<svg width="703" height="269" viewBox="0 0 703 269" fill="none" xmlns="http://www.w3.org/2000/svg">
<path d="M284.2 101.404H268.7V176.104H284.2V101.404Z" fill="#133347"/>
<path d="M309.1 103.104C306.2 104.304 303.6 105.904 301.5 108.004C299.4 110.104 297.8 112.504 296.6 115.504C295.4 118.504 294.8 121.904 294.8 125.604V176.104H310.3V129.504C310.3 126.304 311.2 123.304 313.1 120.604C315.2 117.604 318.4 116.004 322.3 116.004H325.4V101.304H318.8C315.3 101.404 312 102.004 309.1 103.104Z" fill="#133347"/>
<path d="M404.6 156.304C402.9 153.704 402 150.804 402 147.704V116.504H416.3V101.404H402V76.5038C402 73.0038 399.1 70.1038 395.6 70.1038H386.5V152.004C386.5 155.804 387.1 159.304 388.3 162.304C389.5 165.204 391.2 167.804 393.3 169.804C395.5 171.804 398.1 173.404 401.1 174.504C404.2 175.604 407.6 176.204 411.3 176.204H416.2V161.004H413.7C408.7 160.804 406 158.404 404.6 156.304Z" fill="#133347"/>
<path d="M619.1 138.904C618 136.604 616.6 134.404 614.8 132.504C613.1 130.704 611 129.204 608.6 128.104L604.5 126.304L628.9 101.304H608.9L582.5 128.804V76.7038C582.5 73.0038 579.5 70.0038 575.8 70.0038H567V176.004H582.5V153.104C582.5 150.904 582.9 148.904 583.6 147.204C584.3 145.504 585.3 144.004 586.5 142.804C587.7 141.604 589 140.704 590.5 140.104C594.2 138.604 598.1 139.004 601 141.304C602.5 142.504 603.8 144.004 604.7 145.804C605.5 147.404 606.1 149.104 606.4 150.904C606.7 152.604 606.9 154.204 606.9 155.604V175.904H622.3V155.004C622.3 152.104 622 149.304 621.5 146.504C621.1 143.904 620.2 141.304 619.1 138.904Z" fill="#133347"/>
<path d="M377.6 145.304C376.6 143.104 375.2 141.204 373.5 139.604C371.6 137.904 369.4 136.404 366.8 135.104C364 133.704 361 132.504 357.9 131.304C355.5 130.404 353.7 129.604 352.3 129.004C351.3 128.604 346.4 126.204 346.4 122.904C346.4 120.104 349.6 117.604 352.6 116.604C356.5 115.204 361.9 115.404 367.3 117.004C367.8 117.204 368.4 117.404 369 117.604L370.8 118.304V103.404L369.8 103.104C368.9 102.804 368 102.604 367.2 102.504C363.1 101.704 359.7 101.304 357.1 101.304C353.2 101.304 349.5 101.904 346.3 103.004C343.1 104.104 340.2 105.804 337.9 107.804C335.6 109.804 333.8 112.204 332.5 115.004C331.2 117.804 330.5 120.904 330.5 124.304C330.5 127.004 331 129.404 331.9 131.404C332.9 133.504 334.3 135.504 336 137.104C337.8 138.804 339.8 140.304 342.2 141.604C344.7 142.904 347.5 144.204 350.4 145.304C353.3 146.504 355.5 147.304 356.9 147.804C360.2 148.904 363.5 151.504 363.5 154.504C363.5 158.004 359.5 160.504 355.7 160.904C353.5 161.204 351.3 161.104 349.2 160.704C347.9 160.504 346.6 160.204 345.3 159.904C344.2 159.604 342.9 159.304 341.5 158.804C338.1 157.604 335.1 156.204 332.4 154.804L330.4 153.704V171.104L331.2 171.404C338.9 174.604 345.9 175.404 348.6 175.604L350.7 175.704C351.1 175.704 351.4 175.704 351.8 175.704C355.7 175.704 359.5 175.104 362.9 174.004C366.2 172.904 369.1 171.304 371.6 169.304C374 167.404 375.8 165.004 377.2 162.204C378.5 159.504 379.2 156.304 379.2 152.904C379 150.204 378.5 147.504 377.6 145.304Z" fill="#133347"/>
<path d="M276.4 70.0038C275.2 70.0038 274.2 70.2038 273.2 70.7038C272.3 71.1038 271.5 71.7038 270.8 72.4038C270.1 73.1038 269.6 73.9038 269.2 74.9038C268.8 75.8038 268.6 76.8038 268.6 77.8038C268.6 80.0038 269.4 81.8038 270.9 83.3038C272.4 84.8038 274.2 85.5038 276.3 85.5038C278.3 85.5038 280.1 84.8038 281.7 83.4038C283.3 82.0038 284.1 80.1038 284.1 77.8038C284.1 75.6038 283.3 73.8038 281.8 72.3038C280.5 70.8038 278.6 70.0038 276.4 70.0038Z" fill="#133347"/>
<path d="M458.9 101.404C438.4 101.404 421.7 118.204 421.7 138.804C421.7 159.404 438.4 176.204 458.9 176.204C466.7 176.204 474.4 173.704 480.7 169.104V176.204H496.1V138.704C496.1 118.104 479.4 101.404 458.9 101.404ZM480.7 138.704C480.7 150.804 470.9 160.604 458.9 160.604C446.9 160.604 437.1 150.804 437.1 138.704C437.1 126.604 446.9 116.804 458.9 116.804C470.9 116.804 480.7 126.704 480.7 138.704Z" fill="#133347"/>
<path d="M541 101.404C520.5 101.404 503.8 118.204 503.8 138.804C503.8 159.404 520.5 176.204 541 176.204C546.1 176.204 551 175.204 555.7 173.204L556.5 172.904V154.504L554.4 156.204C550.5 159.204 545.9 160.804 541 160.804C529 160.804 519.2 151.004 519.2 138.904C519.2 126.804 529 117.004 541 117.004C545.9 117.004 550.5 118.604 554.4 121.604L556.5 123.304V104.704L555.7 104.404C551 102.404 546.1 101.404 541 101.404Z" fill="#133347"/>
<path d="M249.4 71.5038C250.9 70.0038 253.1 69.6038 255 70.4038C257 71.2038 258.2 73.1038 258.2 75.2038V176.004H242.6V174.704C242.6 172.104 242.6 165.804 242.6 160.104C242.6 156.804 242.6 153.604 242.6 151.604H205.2L219 138.704H219.5C222.6 138.704 223.3 138.704 230.4 138.704C235.2 138.704 239.8 138.704 242.6 138.704C242.6 130.004 242.6 110.904 242.6 101.204L146.1 197.404V195.304V175.804L242.9 77.8038L245.7 74.9038L249.4 71.5038Z" fill="#133347"/>
<path d="M206.4 101.404H122.7L109.9 114.404H193.5L206.4 101.404Z" fill="#133347"/>
<path d="M169.5 138.704H85.9L73 151.704H156.7L169.5 138.704Z" fill="#133347"/>
<path d="M188 120.004H104.3L91.3999 133.004H175.1L188 120.004Z" fill="#133347"/>
</svg>
