<svg width="114" height="21" viewBox="0 0 114 21" fill="none" xmlns="http://www.w3.org/2000/svg">
<g clip-path="url(#clip0_3763_59327)">
<path d="M10.0532 2.00249C9.62404 2.40246 9.20226 2.79503 8.78049 3.18574C6.82145 5.00414 4.86242 6.8244 2.90153 8.6391C2.45201 9.05574 1.98583 9.45571 1.42162 9.70014C0.750107 9.99086 0.365328 9.80939 0.148891 9.08536C-0.152642 8.07247 0.00829868 7.12808 0.591015 6.25777C1.08679 5.51707 1.71205 4.90045 2.35396 4.30049C3.37695 3.34499 4.40734 2.39876 5.45068 1.46918C5.90761 1.0618 6.40708 0.689606 7.01754 0.565539C8.84524 0.197044 10.0107 1.94878 10.0551 2.00063L10.0532 2.00249Z" fill="#4779FF"/>
<path d="M1.25879 11.2537C2.37057 10.9333 3.20488 10.2278 4.01698 9.48527C6.60683 7.12246 9.19298 4.75779 11.7939 2.40794C12.3674 1.88946 12.9705 1.39319 13.6087 0.959888C14.4208 0.408071 15.3032 0.328446 16.1726 0.854339C16.4871 1.04322 16.796 1.26357 17.0513 1.52652C17.9374 2.44313 18.8124 3.37455 19.6652 4.32264C20.5717 5.32998 21.4633 6.35214 22.3309 7.39281C22.6287 7.7502 22.8729 8.16683 23.0746 8.58903C23.4501 9.37417 23.3539 10.15 22.897 10.8815C22.4881 11.537 21.9406 12.074 21.3764 12.5832C19.1676 14.5794 16.9588 16.5756 14.7242 18.5439C14.1248 19.0735 13.4644 19.5476 12.7836 19.9661C11.5016 20.7568 10.216 20.6586 9.04684 19.7217C8.36608 19.1772 7.72601 18.568 7.14145 17.9199C5.25826 15.833 3.41021 13.7165 1.54922 11.6092C1.45488 11.5037 1.36978 11.3889 1.25879 11.2518V11.2537Z" fill="#4779FF"/>
<path d="M39.5742 0.914694H42.3824V16.1396H39.5742V14.8564C38.7473 15.9156 37.5708 16.4433 36.0483 16.4433C34.5259 16.4433 33.3309 15.8878 32.2931 14.7786C31.2553 13.6694 30.7373 12.3103 30.7373 10.7011C30.7373 9.09195 31.2553 7.73278 32.2931 6.62359C33.3309 5.5144 34.5814 4.95888 36.0483 4.95888C37.5153 4.95888 38.7473 5.48848 39.5742 6.54582V0.912842V0.914694ZM34.4038 12.9102C34.9773 13.4824 35.6987 13.7694 36.57 13.7694C37.4413 13.7694 38.1591 13.4824 38.7251 12.9102C39.2912 12.338 39.5742 11.601 39.5742 10.703C39.5742 9.80487 39.2912 9.06788 38.7251 8.49569C38.1591 7.92351 37.4413 7.63649 36.57 7.63649C35.6987 7.63649 34.9773 7.92351 34.4038 8.49569C33.8303 9.06788 33.5436 9.80487 33.5436 10.703C33.5436 11.601 33.8303 12.338 34.4038 12.9102Z" fill="#252731"/>
<path d="M51.7665 5.2644H54.7708L50.8028 16.1582C50.2367 17.7118 49.4875 18.8395 48.5514 19.5431C47.6172 20.2468 46.4537 20.5634 45.0625 20.4894V17.8803C45.8173 17.8951 46.4148 17.7358 46.8588 17.4025C47.3009 17.0692 47.6542 16.5322 47.9151 15.7934L43.4531 5.26626H46.5221L49.3598 12.575L51.7684 5.26626L51.7665 5.2644Z" fill="#252731"/>
<path d="M61.9083 4.95888C63.0978 4.95888 64.0819 5.35701 64.857 6.1551C65.634 6.9532 66.0206 8.05498 66.0206 9.46045V16.1378H63.2125V9.80857C63.2125 9.08454 63.0164 8.52902 62.6242 8.14386C62.232 7.76055 61.7104 7.56797 61.0574 7.56797C60.3322 7.56797 59.7513 7.79204 59.3166 8.24201C58.8819 8.69198 58.6636 9.36601 58.6636 10.2641V16.1359H55.8555V5.26072H58.6636V6.47916C59.3462 5.46441 60.4266 4.95703 61.9065 4.95703L61.9083 4.95888Z" fill="#252731"/>
<path d="M76.2432 5.26452H79.0513V16.1398H76.2432V14.8565C75.4015 15.9157 74.2194 16.4434 72.6951 16.4434C71.1708 16.4434 69.9998 15.8879 68.962 14.7787C67.9242 13.6695 67.4062 12.3104 67.4062 10.7012C67.4062 9.09205 67.9242 7.73288 68.962 6.62369C69.9998 5.51451 71.2429 4.95898 72.6951 4.95898C74.2194 4.95898 75.4015 5.48858 76.2432 6.54592V5.26267V5.26452ZM71.0616 12.9103C71.6277 13.4825 72.3455 13.7695 73.2168 13.7695C74.0881 13.7695 74.8095 13.4825 75.383 12.9103C75.9564 12.3381 76.2432 11.6012 76.2432 10.7031C76.2432 9.80497 75.9564 9.06798 75.383 8.4958C74.8095 7.92361 74.0881 7.63659 73.2168 7.63659C72.3455 7.63659 71.6277 7.92361 71.0616 8.4958C70.4956 9.06798 70.2125 9.80497 70.2125 10.7031C70.2125 11.6012 70.4956 12.3381 71.0616 12.9103Z" fill="#252731"/>
<path d="M92.8643 4.95898C94.113 4.95898 95.1101 5.36451 95.8574 6.17743C96.6048 6.99034 96.9785 8.0773 96.9785 9.44018V16.1398H94.1703V9.63647C94.1703 8.98465 94.0112 8.47728 93.6912 8.11434C93.3712 7.7514 92.9216 7.56993 92.3408 7.56993C91.7026 7.56993 91.2049 7.78103 90.8498 8.20137C90.4946 8.62172 90.317 9.23093 90.317 10.029V16.1416H87.5089V9.63832C87.5089 8.98651 87.3498 8.47913 87.0297 8.11619C86.7097 7.75325 86.2602 7.57178 85.6793 7.57178C85.0559 7.57178 84.5583 7.78288 84.1883 8.20322C83.8183 8.62357 83.6333 9.23279 83.6333 10.0309V16.1435H80.8252V5.26822H83.6333V6.42185C84.2863 5.44969 85.2945 4.96454 86.6598 4.96454C88.025 4.96454 88.9814 5.48673 89.6196 6.53111C90.3447 5.48673 91.4269 4.96454 92.8624 4.96454L92.8643 4.95898Z" fill="#252731"/>
<path d="M100.153 3.95904C99.6887 3.95904 99.2854 3.78868 98.945 3.44796C98.6047 3.10724 98.4326 2.70541 98.4326 2.24063C98.4326 1.77584 98.6028 1.37031 98.945 1.02219C99.2854 0.674063 99.6887 0.5 100.153 0.5C100.617 0.5 101.041 0.674063 101.383 1.02219C101.724 1.37031 101.894 1.77584 101.894 2.24063C101.894 2.70541 101.724 3.10724 101.383 3.44796C101.043 3.78868 100.632 3.95904 100.153 3.95904ZM98.7601 16.1397V5.26451H101.568V16.1397H98.7601Z" fill="#252731"/>
<path d="M108.692 16.4434C107.051 16.4434 105.684 15.8935 104.589 14.7898C103.494 13.6881 102.946 12.3252 102.946 10.7012C102.946 9.07724 103.494 7.71436 104.589 6.61258C105.684 5.5108 107.053 4.95898 108.692 4.95898C109.752 4.95898 110.716 5.21267 111.587 5.72005C112.458 6.22742 113.119 6.90886 113.568 7.76436L111.152 9.17723C110.934 8.72726 110.605 8.37173 110.163 8.11064C109.721 7.84954 109.223 7.71992 108.672 7.71992C107.83 7.71992 107.133 7.99953 106.581 8.5569C106.03 9.11613 105.754 9.82904 105.754 10.6994C105.754 11.5697 106.03 12.2622 106.581 12.8196C107.133 13.3788 107.83 13.6566 108.672 13.6566C109.238 13.6566 109.741 13.5307 110.185 13.2751C110.627 13.0214 110.958 12.6696 111.175 12.2196L113.613 13.6121C113.134 14.4676 112.458 15.1528 111.589 15.6676C110.718 16.1823 109.754 16.4397 108.694 16.4397L108.692 16.4434Z" fill="#252731"/>
</g>
<defs>
<clipPath id="clip0_3763_59327">
<rect width="113.613" height="20" fill="white" transform="translate(0 0.5)"/>
</clipPath>
</defs>
</svg>