<?xml version="1.0" encoding="utf-8"?>
<!-- Generator: Adobe Illustrator 27.2.0, SVG Export Plug-In . SVG Version: 6.00 Build 0)  -->
<svg version="1.1" id="Layer_2_00000154419299306760762090000015193199550671114889_"
	 xmlns="http://www.w3.org/2000/svg" xmlns:xlink="http://www.w3.org/1999/xlink" x="0px" y="0px" viewBox="0 0 730.9 119.5"
	 style="enable-background:new 0 0 730.9 119.5;" xml:space="preserve">
<style type="text/css">
	.st0{fill:#D91F1E;}
</style>
<g id="Layer_1-2">
	<g>
		<g>
			<path d="M465.3,29.5c-3.7,0-10.4,0.8-16.2,5.9v-4.9H436V90h13.3V56.8c0-8.5,6-14.5,14.5-14.5s13.5,5.1,13.5,14.3V90h13.2V53.8
				C490.5,41.7,482.7,29.5,465.3,29.5L465.3,29.5z"/>
			<path d="M544,35.8c-4.8-4.1-10.9-6.3-17.8-6.3c-16.9,0-29.7,13.2-29.7,30.7s12.8,30.9,29.7,30.9c6.9,0,13.1-2.4,17.8-6.4V90h13.2
				V30.5H544V35.8z M527.3,78.6c-12.7,0-17.4-11.1-17.4-18.4c0-10.5,7.3-18.2,17.4-18.2c10.1,0,17.2,7.7,17.2,18.2
				S537.3,78.6,527.3,78.6z"/>
			<path d="M638.5,29.5c-8.8,0-16.1,3.4-20.7,9.5c-4.5-6.1-11.7-9.5-20.6-9.5c-5.3,0-11.2,1.6-16.2,5.9v-4.9h-13.2V90h13.3V56.9
				c0-8.5,6-14.6,14.5-14.6s13.5,5.1,13.5,14.3V90h13.2V56.9c0-8.5,6-14.6,14.5-14.6c5.1,0,13.6,1.9,13.6,14.3V90h13.2V53.8
				C663.7,39.3,653.6,29.5,638.5,29.5L638.5,29.5z"/>
			<path d="M727.4,60.1c-0.1-19.9-13.8-30.6-28.1-30.6c-17.1,0-29.5,13-29.5,30.9s12.4,30.8,30.1,30.8c10.2,0,18.1-3.4,25.2-10.8
				l-7.2-9c-4.3,4.5-10.1,7.6-17.5,7.6c-8.8,0-15-5.1-16.7-13.3H727C727.2,63.5,727.4,61.9,727.4,60.1L727.4,60.1z M683.8,54.1
				c2-7.7,7.6-12.3,15.3-12.3c10.4,0,13.6,8.4,14.5,12.3H683.8L683.8,54.1z"/>
		</g>
		<g>
			<polygon points="393.8,58.6 382.8,30.5 365,30.5 385.1,79.3 			"/>
			<polygon points="230.2,73.8 216,30.5 199,30.5 220.8,90 239.1,90 261.1,30.5 244.5,30.5 			"/>
			<path d="M343.9,38.5v-8h-15.9V90h15.9V61.2c0-12.3,6.4-14.9,14.3-14.9h3.6V30.5C354.5,30.5,347.8,33.6,343.9,38.5L343.9,38.5z"/>
			<path d="M291.6,29.5c-17.6,0-29.9,13.4-29.9,31.4s13.5,30.2,31.9,30.2c8.1,0,17.4-3.3,23.2-8.8l-7.6-10.6
				c-4.4,3.6-8.6,5.4-14,5.4c-9.3,0-15.9-4.6-18-12.1H319c0.3-1.7,0.4-3.6,0.4-5.7C319.4,39.7,306.5,29.5,291.6,29.5L291.6,29.5z
				 M277,54.1c1.5-6.9,6.1-10.9,14.3-10.9c7.1,0,12.4,4.4,12.8,10.9H277z"/>
			<path d="M169.5,29.5c-17.6,0-29.9,13.4-29.9,31.4s13.5,30.2,31.9,30.2c8.1,0,17.4-3.3,23.2-8.8l-7.6-10.6
				c-4.4,3.6-8.6,5.4-14,5.4c-9.3,0-15.9-4.6-18-12.1H197c0.3-1.7,0.4-3.6,0.4-5.7C197.4,39.7,184.5,29.5,169.5,29.5z M155,54.1
				c1.5-6.9,6.1-10.9,14.3-10.9c7.1,0,12.4,4.4,12.8,10.9H155L155,54.1z"/>
			<polygon points="412.4,30.5 378.3,111.8 395.2,111.8 429.4,30.5 			"/>
		</g>
	</g>
</g>
<g id="Layer_1-2_00000118384614351088913710000016056288558539378866_">
	<g id="line">
		<path class="st0" d="M79,7.1L66,36.3L51.8,6.5l-14,29.8l-14.5-29c0,0-21.8,27.5-21.8,53.2S28.2,105,51.2,105h1.3
			c23,0,47.6-18.8,47.6-44.5S79,7.1,79,7.1z"/>
	</g>
</g>
</svg>
