<?xml version="1.0" encoding="UTF-8"?> <svg xmlns="http://www.w3.org/2000/svg" viewBox="0 0 1245.23 350.02"><g id="Layer_2" data-name="Layer 2"><g id="Layer_1-2" data-name="Layer 1"><path d="M149.87,218.94H121.5V206.3c-13.26,10.79-29.3,16.35-48.11,16.35-20.35,0-37.93-7.41-52.11-21.9C6.78,186,0,168.06,0,147.09q0-31.92,21.28-53.65C35.77,78.64,53,71.23,73.39,71.23c18.81,0,34.85,5.55,48.11,16.35V74.93h28.37ZM121.5,174.85V119C111,103.61,96.21,95.9,77.4,95.9c-13.88,0-25.29,4.94-34.85,15.11a50.85,50.85,0,0,0-14.18,36.08,50.09,50.09,0,0,0,14.18,35.77C52.11,193,63.52,198,77.4,198,96.21,198,111,190.26,121.5,174.85Z"></path><path d="M325.33,93.44c14.5,14.49,21.59,32.37,21.59,53.34s-7.09,38.86-21.59,53.66c-14.49,14.5-31.76,21.9-52.11,21.9-18.81,0-34.85-5.55-48.1-16.35v12.95H196.74V0h28.38V87.58c13.25-10.8,29.29-16.35,48.1-16.35C293.57,71.23,310.84,78.64,325.33,93.44Zm-21.27,89.42c9.56-10.17,14.49-22.2,14.49-36.08A49.85,49.85,0,0,0,304.06,111c-9.56-10.17-21-15.11-34.85-15.11-18.81,0-33.3,7.71-44.09,23.44v55.2C235.91,190.26,250.71,198,269.21,198,283.09,198,294.5,193,304.06,182.86Z"></path><path d="M400.58,172.38c3.7,18.81,17.58,28.06,41.33,28.06,20.66,0,34.22-8.33,34.22-21,0-10.17-7.09-16.34-21.27-18.81l-32.07-5.55c-28.68-4.93-42.87-18.19-42.87-40.09,0-27.13,23.75-44.4,59.21-44.4q24.06,0,42.55,11.1c12.34,7.4,19.12,19.43,20.67,35.77l-26.22.31c-2.15-16.35-16-25-36.69-25-19.74,0-31.46,8.33-31.46,19.74,0,10.17,8,16.65,24.37,19.42l27.75,4.63c28.68,4.93,43.17,18.5,43.17,40.7,0,28.68-25.29,46.26-62.29,46.26-37.31,0-63.22-16.65-66.92-51.5Z"></path><path d="M663.94,93.13c14.8,14.49,22.2,32.38,22.2,54q0,32.85-22.2,54.59c-14.49,14.49-32.69,21.89-54.27,21.89-21.9,0-40.09-7.4-54.89-21.89-14.5-14.5-21.9-32.69-21.9-54.59s7.4-39.78,21.9-54.27,33-21.59,54.89-21.59C631.25,71.23,649.45,78.64,663.94,93.13Zm-20,90c8.94-9.86,13.56-21.89,13.56-36.08,0-13.87-4.62-25.9-13.56-35.46s-20.36-14.49-34.23-14.49-25.6,4.93-34.85,14.49c-8.94,9.56-13.57,21.59-13.57,35.46,0,14.19,4.32,26.22,13.57,36.08,8.94,9.56,21,14.5,34.85,14.5S635,192.73,643.9,183.17Z"></path><path d="M752.45,218.94H724.08V0h28.37Z"></path><path d="M934.08,218.94H905.71V204.76C891.83,217.4,875.8,223.57,857,223.57s-33.92-6.17-45.33-18.2c-11.41-12.33-17-28.67-17-49.33V74.93h28.37v79.56c0,27.45,15.11,43.18,39.47,43.18,16.65,0,31.14-8,43.17-23.75v-99h28.37Z"></path><path d="M1080.87,218c-12.34,3.7-23.44,5.55-33.61,5.55-33.62,0-53-21-53-58.28V98.68H958.75V74.93h35.47v-53h28.37v53h54V98.68h-54v66.61c0,21.28,9.86,32.07,29.91,32.07a84.81,84.81,0,0,0,24-3.7Z"></path><path d="M1244.62,157.89l-.62-.31v.31H1127.44c4,23.74,21.58,40.7,48.41,40.7,17,0,28.68-5.86,35.15-17.88h30.53c-8.32,25.59-34.23,41.94-66.61,41.94-22.2,0-40.39-7.1-54.58-21.59-13.87-14.49-21-32.38-21-54,0-21.89,7.1-39.78,21-54.27,14.19-14.49,32.38-21.59,54.58-21.59,20.36,0,37,7.1,50.27,21s19.73,31.46,20,53.35A113.43,113.43,0,0,1,1244.62,157.89Zm-117.18-21.28h89.11c-2.77-25-19.11-41-42.86-41C1148.1,95.6,1131.14,112.25,1127.44,136.61Z"></path><path d="M1006.66,348H994.19V251.8h12.47Z"></path><path d="M1090,348h-12.46v-5.55a32.45,32.45,0,0,1-21.13,7.18,31,31,0,0,1-22.9-9.62c-6.36-6.5-9.35-14.36-9.35-23.57s3.12-17.21,9.35-23.57a30.87,30.87,0,0,1,22.9-9.76,32.4,32.4,0,0,1,21.13,7.19v-5.56H1090Zm-12.46-19.37V304.09c-4.61-6.77-11.11-10.16-19.37-10.16a20,20,0,0,0-15.31,6.64,22.3,22.3,0,0,0-6.23,15.85,22,22,0,0,0,6.23,15.71,20,20,0,0,0,15.31,6.64C1066.4,338.77,1072.9,335.38,1077.51,328.61Z"></path><path d="M1167.06,292.85a31.85,31.85,0,0,1,9.48,23.44,32.41,32.41,0,0,1-9.48,23.57,31.24,31.24,0,0,1-22.89,9.61A32.47,32.47,0,0,1,1123,342.3V348h-12.46V251.8H1123v38.48a32.43,32.43,0,0,1,21.14-7.19A30.85,30.85,0,0,1,1167.06,292.85Zm-9.35,39.28a22.43,22.43,0,0,0,6.37-15.84,21.9,21.9,0,0,0-6.37-15.72,20,20,0,0,0-15.3-6.64c-8.27,0-14.63,3.39-19.38,10.3v24.25c4.75,6.9,11.25,10.29,19.38,10.29A20,20,0,0,0,1157.71,332.13Z"></path><path d="M1200.12,327.53c1.63,8.26,7.72,12.33,18.16,12.33,9.07,0,15-3.66,15-9.22,0-4.47-3.11-7.18-9.34-8.26l-14.09-2.44c-12.6-2.17-18.83-8-18.83-17.61,0-11.92,10.43-19.51,26-19.51a35.64,35.64,0,0,1,18.69,4.88c5.42,3.25,8.4,8.54,9.08,15.71l-11.52.14c-1-7.18-7-11-16.12-11-8.67,0-13.82,3.66-13.82,8.67,0,4.47,3.52,7.31,10.71,8.53l12.19,2c12.6,2.17,19,8.13,19,17.89,0,12.6-11.11,20.32-27.36,20.32s-27.77-7.32-29.4-22.63Z"></path></g></g></svg> 