<svg width="274" height="68" viewBox="0 0 274 68" fill="none" xmlns="http://www.w3.org/2000/svg">
<path d="M40.5398 54V13.2727H49.0114V28.5852H49.2699C49.6411 27.7633 50.178 26.928 50.8807 26.0795C51.5966 25.2178 52.5246 24.5019 53.6648 23.9318C54.8182 23.3485 56.25 23.0568 57.9602 23.0568C60.1875 23.0568 62.2424 23.6402 64.125 24.8068C66.0076 25.9602 67.5123 27.7036 68.6392 30.0369C69.7661 32.357 70.3295 35.267 70.3295 38.767C70.3295 42.1742 69.7794 45.0511 68.679 47.3977C67.5919 49.7311 66.107 51.5009 64.2244 52.7074C62.3551 53.9006 60.2604 54.4972 57.9403 54.4972C56.2964 54.4972 54.8977 54.2254 53.7443 53.6818C52.6042 53.1383 51.6695 52.4555 50.9403 51.6335C50.2112 50.7983 49.6544 49.9564 49.2699 49.108H48.892V54H40.5398ZM48.8324 38.7273C48.8324 40.5436 49.0843 42.1278 49.5881 43.4801C50.0919 44.8324 50.821 45.8864 51.7756 46.642C52.7301 47.3845 53.8902 47.7557 55.2557 47.7557C56.6345 47.7557 57.8011 47.3778 58.7557 46.6222C59.7102 45.8532 60.4328 44.7926 60.9233 43.4403C61.4271 42.0748 61.679 40.5038 61.679 38.7273C61.679 36.964 61.4337 35.4129 60.9432 34.0739C60.4527 32.7348 59.7301 31.6875 58.7756 30.9318C57.821 30.1761 56.6477 29.7983 55.2557 29.7983C53.8769 29.7983 52.7102 30.1629 51.7557 30.892C50.8144 31.6212 50.0919 32.6553 49.5881 33.9943C49.0843 35.3333 48.8324 36.911 48.8324 38.7273ZM83.5725 54.5767C81.6236 54.5767 79.8869 54.2386 78.3622 53.5625C76.8376 52.8731 75.6312 51.8589 74.7429 50.5199C73.8679 49.1676 73.4304 47.4839 73.4304 45.4688C73.4304 43.7718 73.742 42.3466 74.3651 41.1932C74.9882 40.0398 75.8367 39.1117 76.9105 38.4091C77.9844 37.7064 79.2041 37.1761 80.5696 36.8182C81.9484 36.4602 83.3935 36.2083 84.9049 36.0625C86.6814 35.8769 88.1132 35.7045 89.2003 35.5455C90.2874 35.3731 91.0763 35.1212 91.5668 34.7898C92.0573 34.4583 92.3026 33.9678 92.3026 33.3182V33.1989C92.3026 31.9394 91.9049 30.965 91.1094 30.2756C90.3272 29.5862 89.2136 29.2415 87.7685 29.2415C86.2439 29.2415 85.0308 29.5795 84.1293 30.2557C83.2278 30.9186 82.6312 31.7538 82.3395 32.7614L74.5043 32.125C74.902 30.2689 75.6842 28.6648 76.8509 27.3125C78.0175 25.947 79.5223 24.8996 81.3651 24.1705C83.2211 23.428 85.3689 23.0568 87.8083 23.0568C89.5052 23.0568 91.1293 23.2557 92.6804 23.6534C94.2448 24.0511 95.6302 24.6676 96.8367 25.5028C98.0564 26.3381 99.0175 27.4119 99.7202 28.7244C100.423 30.0237 100.774 31.5814 100.774 33.3977V54H92.7401V49.7642H92.5015C92.0109 50.7188 91.3547 51.5606 90.5327 52.2898C89.7107 53.0057 88.723 53.5691 87.5696 53.9801C86.4162 54.3778 85.0838 54.5767 83.5725 54.5767ZM85.9986 48.7301C87.2448 48.7301 88.3452 48.4848 89.2997 47.9943C90.2543 47.4905 91.0033 46.8144 91.5469 45.9659C92.0905 45.1174 92.3622 44.1562 92.3622 43.0824V39.8409C92.0971 40.0133 91.7325 40.1723 91.2685 40.3182C90.8177 40.4508 90.3073 40.5767 89.7372 40.696C89.1672 40.8021 88.5971 40.9015 88.027 40.9943C87.4569 41.0739 86.9399 41.1468 86.4759 41.2131C85.4816 41.3589 84.6132 41.5909 83.8708 41.9091C83.1283 42.2273 82.5516 42.6581 82.1407 43.2017C81.7297 43.732 81.5242 44.3949 81.5242 45.1903C81.5242 46.3438 81.9418 47.2254 82.777 47.8352C83.6255 48.4318 84.6994 48.7301 85.9986 48.7301ZM131.641 32.1648L123.886 32.642C123.753 31.9792 123.468 31.3826 123.031 30.8523C122.593 30.3087 122.016 29.8778 121.3 29.5597C120.598 29.2282 119.756 29.0625 118.775 29.0625C117.462 29.0625 116.355 29.3409 115.454 29.8977C114.552 30.4413 114.102 31.1705 114.102 32.0852C114.102 32.8144 114.393 33.4309 114.977 33.9347C115.56 34.4384 116.561 34.8428 117.979 35.1477L123.508 36.2614C126.478 36.8712 128.692 37.8523 130.15 39.2045C131.608 40.5568 132.337 42.3333 132.337 44.5341C132.337 46.536 131.747 48.2926 130.568 49.804C129.401 51.3153 127.797 52.4953 125.755 53.3438C123.727 54.179 121.387 54.5966 118.735 54.5966C114.692 54.5966 111.47 53.7547 109.07 52.071C106.684 50.3741 105.285 48.0672 104.874 45.1506L113.207 44.7131C113.459 45.946 114.068 46.8873 115.036 47.5369C116.004 48.1733 117.244 48.4915 118.755 48.4915C120.24 48.4915 121.433 48.2064 122.335 47.6364C123.249 47.053 123.713 46.304 123.727 45.3892C123.713 44.6203 123.389 43.9905 122.752 43.5C122.116 42.9962 121.135 42.6117 119.809 42.3466L114.519 41.2926C111.536 40.696 109.316 39.6619 107.857 38.1903C106.412 36.7187 105.69 34.8428 105.69 32.5625C105.69 30.6004 106.22 28.91 107.281 27.4915C108.354 26.0729 109.859 24.9792 111.795 24.2102C113.744 23.4413 116.024 23.0568 118.636 23.0568C122.494 23.0568 125.53 23.8722 127.744 25.5028C129.971 27.1335 131.27 29.3542 131.641 32.1648ZM150.472 54.5966C147.33 54.5966 144.626 53.9602 142.359 52.6875C140.105 51.4015 138.368 49.5852 137.149 47.2386C135.929 44.8788 135.319 42.0881 135.319 38.8665C135.319 35.7244 135.929 32.9669 137.149 30.5938C138.368 28.2206 140.085 26.3712 142.299 25.0455C144.526 23.7197 147.138 23.0568 150.134 23.0568C152.149 23.0568 154.025 23.3816 155.762 24.0312C157.512 24.6676 159.037 25.6288 160.336 26.9148C161.649 28.2008 162.669 29.8182 163.399 31.767C164.128 33.7027 164.492 35.9697 164.492 38.5682V40.8949H138.7V35.6449H156.518C156.518 34.4252 156.253 33.3447 155.722 32.4034C155.192 31.4621 154.456 30.7263 153.515 30.196C152.587 29.6525 151.506 29.3807 150.274 29.3807C148.988 29.3807 147.847 29.679 146.853 30.2756C145.872 30.8589 145.103 31.6477 144.546 32.642C143.989 33.6231 143.704 34.7169 143.691 35.9233V40.9148C143.691 42.4261 143.97 43.732 144.526 44.8324C145.096 45.9328 145.899 46.7812 146.933 47.3778C147.967 47.9744 149.193 48.2727 150.612 48.2727C151.553 48.2727 152.415 48.1402 153.197 47.875C153.979 47.6098 154.649 47.2121 155.205 46.6818C155.762 46.1515 156.186 45.5019 156.478 44.733L164.313 45.25C163.916 47.1326 163.1 48.7765 161.867 50.1818C160.648 51.5739 159.07 52.661 157.134 53.4432C155.212 54.2121 152.991 54.5966 150.472 54.5966ZM184.474 54.7159C182.538 54.7159 180.782 54.3513 179.204 53.6222C177.627 52.8797 176.374 51.8125 175.446 50.4205C174.518 49.0152 174.054 47.3182 174.054 45.3295C174.054 43.5795 174.398 42.161 175.088 41.0739C175.777 39.9735 176.699 39.1117 177.852 38.4886C179.005 37.8655 180.278 37.4015 181.67 37.0966C183.075 36.7784 184.487 36.5265 185.906 36.3409C187.762 36.1023 189.267 35.9233 190.42 35.804C191.587 35.6714 192.435 35.4527 192.966 35.1477C193.509 34.8428 193.781 34.3125 193.781 33.5568V33.3977C193.781 31.4356 193.244 29.911 192.17 28.8239C191.11 27.7367 189.499 27.1932 187.338 27.1932C185.097 27.1932 183.341 27.6837 182.068 28.6648C180.795 29.6458 179.9 30.6932 179.383 31.8068L174.929 30.2159C175.724 28.3598 176.785 26.9148 178.11 25.8807C179.449 24.8333 180.908 24.1042 182.485 23.6932C184.076 23.2689 185.641 23.0568 187.179 23.0568C188.16 23.0568 189.287 23.1761 190.559 23.4148C191.845 23.6401 193.085 24.1108 194.278 24.8267C195.485 25.5426 196.485 26.6231 197.281 28.0682C198.076 29.5133 198.474 31.4489 198.474 33.875V54H193.781V49.8636H193.542C193.224 50.5265 192.694 51.2358 191.951 51.9915C191.209 52.7472 190.221 53.3902 188.988 53.9205C187.755 54.4508 186.251 54.7159 184.474 54.7159ZM185.19 50.5C187.046 50.5 188.61 50.1354 189.883 49.4062C191.169 48.6771 192.137 47.7358 192.787 46.5824C193.449 45.429 193.781 44.2159 193.781 42.9432V38.6477C193.582 38.8864 193.145 39.1051 192.468 39.304C191.806 39.4896 191.037 39.6553 190.162 39.8011C189.3 39.9337 188.458 40.053 187.636 40.1591C186.827 40.2519 186.171 40.3314 185.667 40.3977C184.448 40.5568 183.307 40.8153 182.247 41.1733C181.199 41.518 180.351 42.0417 179.701 42.7443C179.065 43.4337 178.747 44.375 178.747 45.5682C178.747 47.1989 179.35 48.4318 180.556 49.267C181.776 50.089 183.321 50.5 185.19 50.5ZM208.16 65.4545V23.4545H212.694V28.3068H213.251C213.596 27.7765 214.073 27.1004 214.683 26.2784C215.306 25.4432 216.194 24.7008 217.348 24.0511C218.514 23.3883 220.092 23.0568 222.081 23.0568C224.653 23.0568 226.92 23.6998 228.882 24.9858C230.844 26.2718 232.375 28.0947 233.475 30.4545C234.576 32.8144 235.126 35.5985 235.126 38.8068C235.126 42.0417 234.576 44.8456 233.475 47.2188C232.375 49.5786 230.85 51.4081 228.902 52.7074C226.953 53.9934 224.706 54.6364 222.16 54.6364C220.198 54.6364 218.627 54.3116 217.447 53.6619C216.267 52.9991 215.359 52.25 214.723 51.4148C214.086 50.5663 213.596 49.8636 213.251 49.3068H212.853V65.4545H208.16ZM212.774 38.7273C212.774 41.0341 213.112 43.0691 213.788 44.8324C214.464 46.5824 215.452 47.9545 216.751 48.9489C218.05 49.9299 219.641 50.4205 221.524 50.4205C223.486 50.4205 225.123 49.9034 226.436 48.8693C227.761 47.822 228.756 46.4167 229.419 44.6534C230.095 42.8769 230.433 40.9015 230.433 38.7273C230.433 36.5795 230.101 34.6439 229.439 32.9205C228.789 31.1837 227.801 29.8116 226.475 28.804C225.163 27.7831 223.512 27.2727 221.524 27.2727C219.615 27.2727 218.011 27.7566 216.711 28.7244C215.412 29.679 214.431 31.018 213.768 32.7415C213.105 34.4517 212.774 36.447 212.774 38.7273ZM243.405 65.4545V23.4545H247.939V28.3068H248.496C248.841 27.7765 249.318 27.1004 249.928 26.2784C250.551 25.4432 251.439 24.7008 252.593 24.0511C253.759 23.3883 255.337 23.0568 257.326 23.0568C259.898 23.0568 262.165 23.6998 264.127 24.9858C266.089 26.2718 267.62 28.0947 268.72 30.4545C269.821 32.8144 270.371 35.5985 270.371 38.8068C270.371 42.0417 269.821 44.8456 268.72 47.2188C267.62 49.5786 266.095 51.4081 264.147 52.7074C262.198 53.9934 259.951 54.6364 257.405 54.6364C255.443 54.6364 253.872 54.3116 252.692 53.6619C251.512 52.9991 250.604 52.25 249.968 51.4148C249.331 50.5663 248.841 49.8636 248.496 49.3068H248.098V65.4545H243.405ZM248.019 38.7273C248.019 41.0341 248.357 43.0691 249.033 44.8324C249.709 46.5824 250.697 47.9545 251.996 48.9489C253.295 49.9299 254.886 50.4205 256.769 50.4205C258.731 50.4205 260.368 49.9034 261.681 48.8693C263.006 47.822 264.001 46.4167 264.664 44.6534C265.34 42.8769 265.678 40.9015 265.678 38.7273C265.678 36.5795 265.346 34.6439 264.684 32.9205C264.034 31.1837 263.046 29.8116 261.72 28.804C260.408 27.7831 258.757 27.2727 256.769 27.2727C254.86 27.2727 253.256 27.7566 251.956 28.7244C250.657 29.679 249.676 31.018 249.013 32.7415C248.35 34.4517 248.019 36.447 248.019 38.7273Z" fill="white"/>
<rect y="25" width="29" height="29" rx="1.5" fill="#0000FF"/>
</svg>
