<svg width="18" height="16" viewBox="0 0 18 16" fill="none" xmlns="http://www.w3.org/2000/svg">
<path fill-rule="evenodd" clip-rule="evenodd" d="M5.99985 0C5.59539 0 5.23075 0.243642 5.07597 0.617317C4.92119 0.990991 5.00675 1.42111 5.29275 1.70711L5.99985 2.41421V6.17157C5.99985 6.43679 5.8945 6.69114 5.70696 6.87868L1.70696 10.8787C-0.182934 12.7686 1.15556 16 3.82828 16H14.1714C16.8441 16 18.1826 12.7686 16.2927 10.8787L12.2927 6.87868C12.1052 6.69114 11.9999 6.43679 11.9999 6.17157V2.41421L12.707 1.70711C12.993 1.42111 13.0785 0.990991 12.9237 0.617317C12.769 0.243642 12.4043 0 11.9999 0H5.99985ZM7.99985 6.17157V2H9.99985V6.17157C9.99985 6.96722 10.3159 7.73028 10.8785 8.29289L11.9061 9.32045C11.1892 9.15369 10.4377 9.18744 9.73489 9.4217L9.26471 9.57842C8.44364 9.85211 7.55596 9.85211 6.73489 9.57842L6.17244 9.39094C6.13436 9.37825 6.09607 9.36675 6.05762 9.35644L7.12117 8.29289C7.68378 7.73028 7.99985 6.96722 7.99985 6.17157Z" fill="#EF4444"/>
</svg>
