<svg width="14" height="16" viewBox="0 0 14 16" fill="none" xmlns="http://www.w3.org/2000/svg">
<path d="M8 15C8 15.3466 8.17945 15.6684 8.47427 15.8507C8.76908 16.0329 9.13723 16.0494 9.44721 15.8944L13.4472 13.8944C13.786 13.725 14 13.3788 14 13V7.23607C14 6.88949 13.8205 6.56762 13.5257 6.38542C13.2309 6.20321 12.8628 6.18665 12.5528 6.34164L8.55279 8.34164C8.214 8.51103 8 8.8573 8 9.23607V15Z" fill="#EF4444"/>
<path d="M12.2111 4.27639C12.5499 4.107 12.7639 3.76074 12.7639 3.38197C12.7639 3.00319 12.5499 2.65693 12.2111 2.48754L7.44721 0.105573C7.16569 -0.0351909 6.83431 -0.0351909 6.55279 0.105573L1.78885 2.48754C1.45007 2.65693 1.23607 3.00319 1.23607 3.38197C1.23607 3.76074 1.45007 4.107 1.78885 4.27639L6.55279 6.65836C6.83431 6.79912 7.16569 6.79912 7.44721 6.65836L12.2111 4.27639Z" fill="#EF4444"/>
<path d="M1.44721 6.34164C1.13723 6.18665 0.769085 6.20321 0.474269 6.38542C0.179452 6.56762 0 6.88949 0 7.23607V13C0 13.3788 0.214002 13.725 0.552786 13.8944L4.55279 15.8944C4.86277 16.0494 5.23091 16.0329 5.52573 15.8507C5.82055 15.6684 6 15.3466 6 15V9.23607C6 8.8573 5.786 8.51103 5.44721 8.34164L1.44721 6.34164Z" fill="#EF4444"/>
</svg>
