<svg width="159" height="36" viewBox="0 0 159 36" fill="none" xmlns="http://www.w3.org/2000/svg">
<g clip-path="url(#clip0_1051_20112)">
<path d="M8.57149 7.47207C10.5026 7.42434 12.4137 7.87856 14.1217 8.79127C15.8298 9.70398 17.2779 11.0447 18.3277 12.6853C18.6711 12.2769 18.9804 11.8772 19.3239 11.5036C19.8632 10.9686 20.5094 10.5565 21.219 10.2949C21.9287 10.0332 22.6855 9.92807 23.4385 9.98648C24.1917 10.0449 24.9237 10.2656 25.5856 10.6336C26.2476 11.0017 26.8241 11.5086 27.2765 12.1205C28.3404 13.8174 29.2051 15.634 29.853 17.5335C30.3322 18.829 30.9063 20.0865 31.5706 21.2957C31.6837 21.5452 31.865 21.7567 32.0934 21.905C32.3218 22.0533 32.5875 22.132 32.8588 22.132C33.1302 22.132 33.3958 22.0533 33.6241 21.905C33.8524 21.7567 34.034 21.5452 34.1471 21.2957C34.704 20.2767 35.0844 19.1689 35.2721 18.02C35.5147 16.3825 36.0317 14.7987 36.8007 13.3369C37.8851 11.3993 39.4981 9.81868 41.447 8.78406C43.1138 7.86969 44.9877 7.41146 46.8832 7.4547V11.0605C42.2799 11.2777 39.4202 14.9095 39.5232 18.1504C39.6263 21.3912 42.4689 24.7364 46.8832 24.8928V28.3682C44.2123 28.9416 39.4545 26.839 37.316 23.3896C36.8778 24.1423 36.2596 24.7714 35.5183 25.2192C34.777 25.6671 33.9364 25.9193 33.0735 25.9527C29.9217 26.1873 28.2641 24.5887 27.2507 22.2948C26.3404 20.2356 25.6276 18.1069 24.8117 16.0217C24.6326 15.5566 24.4021 15.1136 24.1246 14.701C23.3775 13.641 22.0978 13.8321 21.2304 15.092C20.4296 16.3876 19.9386 17.8543 19.7961 19.3754C19.4241 21.6564 18.294 23.7405 16.5928 25.2837C15.0658 26.7812 13.1515 27.8113 11.0707 28.2553C10.2806 28.4203 9.44746 28.4551 8.5543 28.5594V24.8406C9.54348 24.8719 10.5283 24.695 11.4464 24.3211C12.3645 23.9472 13.1958 23.3845 13.8876 22.6684C14.6322 21.9873 15.2047 21.1358 15.5574 20.185C15.9099 19.2342 16.0323 18.2118 15.9144 17.2033C15.5538 14.449 13.0201 11.2603 8.53711 11.0257L8.57149 7.47207Z" fill="#02F3A2"/>
<path d="M51.0174 3.70135V32.2868H4.48217V3.70135H51.0174ZM54.7497 0H0.75V35.997H54.7497V0Z" fill="#02F3A2"/>
<path fill-rule="evenodd" clip-rule="evenodd" d="M144.7 27.0422V15.6953L153.934 26.4091C154.105 26.6086 154.317 26.7686 154.558 26.8779C154.798 26.9873 155.059 27.0433 155.323 27.0422C155.537 27.0396 155.747 26.9994 155.946 26.9235C156.3 26.8003 156.602 26.5671 156.809 26.2587C157.023 25.9579 157.134 25.5978 157.129 25.2301V9.00107H153.494V20.34L144.253 9.62618C144.009 9.34753 143.684 9.14911 143.324 9.05724C142.963 8.96538 142.581 8.98444 142.233 9.11186C141.885 9.24166 141.587 9.47363 141.378 9.77653C141.159 10.0754 141.045 10.4363 141.05 10.8052V27.0422H144.7ZM104.707 19.0898C105.534 19.5821 106.483 19.8369 107.447 19.8256H113.182C113.421 19.8216 113.66 19.8666 113.881 19.9578C114.102 20.0491 114.302 20.1845 114.468 20.3559C114.72 20.6085 114.889 20.9289 114.958 21.2771C115.027 21.6253 114.99 21.9858 114.852 22.3134C114.715 22.641 114.483 22.9212 114.186 23.1191C113.889 23.317 113.541 23.4237 113.182 23.426H102.255V27.0421H113.222C114.186 27.0532 115.135 26.7985 115.962 26.3062C116.777 25.8295 117.458 25.1575 117.943 24.3517C118.429 23.5255 118.685 22.5862 118.685 21.6298C118.685 20.6733 118.429 19.7341 117.943 18.9078C117.461 18.0978 116.779 17.4224 115.962 16.9454C115.135 16.4531 114.186 16.1984 113.222 16.2096H107.447C107.198 16.2259 106.949 16.1914 106.714 16.1084C106.479 16.0253 106.264 15.8953 106.082 15.7266C105.9 15.5578 105.755 15.3539 105.656 15.1273C105.557 14.9007 105.505 14.6564 105.505 14.4094C105.505 14.1624 105.557 13.918 105.656 13.6915C105.755 13.4649 105.9 13.2609 106.082 13.0922C106.264 12.9234 106.479 12.7935 106.714 12.7104C106.949 12.6273 107.198 12.5929 107.447 12.6092H118.07V9.00103H107.447C106.483 8.98748 105.535 9.23952 104.707 9.72901C103.89 10.206 103.208 10.8813 102.726 11.6913C102.24 12.5176 101.984 13.4569 101.984 14.4134C101.984 15.3697 102.24 16.3091 102.726 17.1353C103.209 17.9425 103.891 18.615 104.707 19.0898ZM65.5771 27.0422C65.092 27.0422 64.6268 26.8513 64.2838 26.5114C63.9408 26.1715 63.748 25.7107 63.748 25.2301V10.8052C63.7502 10.326 63.9438 9.86712 64.2866 9.52902C64.6294 9.19091 65.0934 9.00108 65.5771 9.00108H74.0678C75.0338 8.98853 75.9847 9.24045 76.8155 9.72906C77.6347 10.2041 78.3168 10.8799 78.7963 11.6914C79.2932 12.5103 79.5505 13.45 79.5392 14.4055C79.5504 15.7438 79.0478 17.0364 78.1334 18.0216C78.5804 18.4981 78.9325 19.0538 79.1717 19.6595C79.4199 20.2871 79.5446 20.9558 79.5392 21.6298C79.549 22.5875 79.2919 23.5295 78.7963 24.3519C78.3138 25.1589 77.6321 25.8315 76.8155 26.3062C75.9853 26.7973 75.0345 27.0519 74.0678 27.0422H65.5771ZM67.3982 12.6093V16.2096H74.0678C74.3066 16.2137 74.544 16.1696 74.7651 16.0797C74.9862 15.99 75.1865 15.8564 75.3537 15.6873C75.5234 15.5197 75.6582 15.3206 75.7501 15.1013C75.842 14.8819 75.8894 14.6469 75.8894 14.4094C75.8894 14.172 75.842 13.9368 75.7501 13.7176C75.6582 13.4983 75.5234 13.2992 75.3537 13.1316C75.1865 12.9625 74.9862 12.8289 74.7651 12.7392C74.544 12.6494 74.3066 12.6052 74.0678 12.6093H67.3982ZM67.3982 19.8258V23.426H74.0678C74.3066 23.4301 74.544 23.3859 74.7651 23.2962C74.9862 23.2064 75.1865 23.0728 75.3537 22.9038C75.6077 22.6514 75.7806 22.3303 75.8506 21.9808C75.9205 21.6313 75.8844 21.2691 75.747 20.9398C75.6094 20.6107 75.3765 20.3292 75.0777 20.1309C74.7788 19.9326 74.4274 19.8264 74.0678 19.8258H67.3982ZM87.5516 27.0422C86.5849 27.052 85.6341 26.7974 84.804 26.3063C83.9928 25.8273 83.3147 25.1556 82.8312 24.3519C82.3355 23.5296 82.0785 22.5876 82.0882 21.6299V14.4056C82.077 13.4502 82.3343 12.5104 82.8312 11.6916C83.3124 10.8839 83.9907 10.2091 84.804 9.72915C85.6348 9.24056 86.5855 8.98863 87.5516 9.00118H93.9416C94.9076 8.98863 95.8585 9.24056 96.6893 9.72915C97.5085 10.2042 98.1906 10.88 98.6702 11.6916C99.1671 12.5104 99.4242 13.4502 99.4129 14.4056V21.5983C99.4227 22.556 99.1657 23.4979 98.6702 24.3202C98.1876 25.1274 97.506 25.8 96.6893 26.2747C95.8591 26.7657 94.9083 27.0204 93.9416 27.0106L87.5516 27.0422ZM85.7384 14.3819V21.5983C85.7364 21.8348 85.7817 22.0692 85.8722 22.2882C85.9625 22.507 86.0959 22.7059 86.2648 22.873C86.4336 23.0403 86.6344 23.1725 86.8553 23.2621C87.0762 23.3515 87.313 23.3966 87.5516 23.3945H93.9416C94.1805 23.3986 94.4178 23.3544 94.6389 23.2647C94.86 23.1749 95.0603 23.0413 95.2276 22.8723C95.4008 22.7081 95.5378 22.5101 95.63 22.2909C95.7221 22.0716 95.7673 21.8357 95.7627 21.5983V14.3739C95.7627 14.1374 95.7156 13.9032 95.6239 13.6847C95.5323 13.4662 95.3981 13.2679 95.2289 13.1011C95.0597 12.9341 94.8588 12.802 94.638 12.7122C94.417 12.6224 94.1803 12.5767 93.9416 12.5777H87.5516C87.313 12.5756 87.0762 12.6207 86.8553 12.7101C86.6344 12.7997 86.4336 12.9319 86.2648 13.0992C86.0959 13.2663 85.9625 13.4652 85.8722 13.684C85.7817 13.903 85.7364 14.1374 85.7384 14.3739V14.3819ZM126.616 27.0422C125.652 27.0521 124.704 26.7974 123.877 26.3063C123.063 25.8274 122.382 25.1559 121.896 24.3519C121.405 23.5275 121.152 22.5864 121.161 21.6299V14.4055C121.151 13.4513 121.405 12.5127 121.896 11.6914C122.38 10.8835 123.061 10.2088 123.877 9.7291C124.704 9.24038 125.652 8.98839 126.616 9.00111H133.006C133.972 8.9894 134.922 9.24125 135.754 9.7291C136.569 10.2088 137.25 10.8835 137.735 11.6914C138.232 12.5104 138.489 13.45 138.477 14.4055V21.5982C138.487 22.5559 138.23 23.4979 137.735 24.3202C137.248 25.1242 136.567 25.7958 135.754 26.2746C134.923 26.7649 133.973 27.0195 133.006 27.0106L126.616 27.0422ZM124.803 14.3818V21.5982C124.801 21.8355 124.847 22.0707 124.939 22.2897C125.03 22.5087 125.166 22.7069 125.338 22.8721C125.504 23.0413 125.703 23.1751 125.922 23.265C126.143 23.3548 126.378 23.3989 126.616 23.3944H133.006C133.245 23.3972 133.482 23.3524 133.703 23.2626C133.923 23.173 134.124 23.0401 134.292 22.8721C134.466 22.708 134.603 22.5101 134.695 22.2907C134.786 22.0715 134.832 21.8357 134.828 21.5982V14.3739C134.831 14.1365 134.786 13.9008 134.694 13.6816C134.602 13.4624 134.466 13.2643 134.292 13.0999C134.124 12.932 133.923 12.7991 133.703 12.7095C133.482 12.6197 133.245 12.5749 133.006 12.5777H126.616C126.378 12.5732 126.143 12.6173 125.922 12.7071C125.703 12.797 125.504 12.9306 125.338 13.0999C125.169 13.2718 125.037 13.4765 124.95 13.701C124.864 13.9256 124.824 14.1654 124.836 14.4055L124.803 14.3818Z" fill="black"/>
</g>
<defs>
<clipPath id="clip0_1051_20112">
<rect width="157.5" height="36" fill="white" transform="translate(0.75)"/>
</clipPath>
</defs>
</svg>
