<svg width="14" height="14" viewBox="0 0 14 14" fill="none" xmlns="http://www.w3.org/2000/svg">
<path d="M5.39961 3.00003C5.39961 1.67455 4.32509 0.600034 2.99961 0.600034C1.67413 0.600034 0.599609 1.67455 0.599609 3.00003C0.599609 4.32551 1.67413 5.40003 2.99961 5.40003C3.1 5.40003 3.19894 5.39387 3.2961 5.3819L5.27212 9.33395C4.85573 9.7656 4.59961 10.3529 4.59961 11C4.59961 12.3255 5.67413 13.4 6.99961 13.4C8.32509 13.4 9.39961 12.3255 9.39961 11C9.39961 10.3529 9.14348 9.76558 8.72707 9.33392L10.7031 5.38189C10.8002 5.39386 10.8992 5.40003 10.9996 5.40003C12.3251 5.40003 13.3996 4.32551 13.3996 3.00003C13.3996 1.67455 12.3251 0.600034 10.9996 0.600034C9.67412 0.600034 8.59961 1.67455 8.59961 3.00003C8.59961 3.64715 8.85573 4.23446 9.27212 4.66611L7.2961 8.61816C7.19895 8.60619 7.1 8.60003 6.99961 8.60003C6.89921 8.60003 6.80025 8.60619 6.70308 8.61817L4.72707 4.66613C5.14348 4.23448 5.39961 3.64717 5.39961 3.00003Z" fill="black"/>
</svg>
