<svg width="202" height="35" viewBox="0 0 202 35" fill="none" xmlns="http://www.w3.org/2000/svg">
<g clip-path="url(#clip0_345_222)">
<path fill-rule="evenodd" clip-rule="evenodd" d="M60.2664 0.676414H56.6169V24.9889C58.277 25.5777 60.3418 26.0555 62.7032 26.0555C68.7518 26.0555 72.2555 22.5239 72.2555 17.265C72.2555 12.0423 68.7141 9.02693 63.9927 9.02693C62.5546 9.02693 61.0417 9.43136 60.2671 9.83578V0.677126L60.2664 0.676414ZM34.2162 2.14886C32.9993 2.14886 31.9288 3.14213 31.9288 4.39171C31.9288 5.68046 32.9993 6.71004 34.2155 6.71004C35.4332 6.71004 36.503 5.67975 36.503 4.39242C36.503 3.14213 35.4332 2.14886 34.2162 2.14886ZM11.6193 22.3815C10.8226 22.6927 9.98335 22.8564 9.07435 22.8564C5.9021 22.8564 3.68792 20.7966 3.68792 17.5604C3.68792 14.1399 5.97536 12.263 8.92641 12.263C9.79415 12.263 10.6356 12.4126 11.4535 12.7387C11.8379 11.7934 12.3604 10.9106 13.0041 10.1192C11.6477 9.39647 10.302 9.02693 8.59496 9.02693C3.79888 9.02622 0 12.2986 0 17.5597C0 22.7831 3.61466 26.0555 8.59567 26.0555C10.27 26.0555 11.8063 25.7045 13.273 24.9184C12.598 24.1601 12.0406 23.3054 11.6193 22.3815ZM21.6368 9.02622C26.5424 9.02622 30.0838 12.4838 30.0838 17.5597C30.0838 22.5987 26.5417 26.0555 21.6368 26.0555C16.7681 26.0555 13.2274 22.5987 13.2274 17.5597C13.2274 12.4838 16.7681 9.02622 21.6368 9.02622ZM16.9139 17.5597C16.9139 14.2496 18.9055 12.1527 21.6353 12.1527C24.4391 12.1527 26.3937 14.2496 26.3937 17.5597C26.3937 20.8336 24.4391 22.929 21.6353 22.929C18.9062 22.929 16.9139 20.8336 16.9139 17.5597ZM32.4089 25.6881H36.0598V9.39362H32.4089V25.6881ZM39.2456 10.4239C41.533 9.54101 44.3369 9.02622 46.7338 9.02622C50.9019 9.02622 53.5584 10.6076 53.5584 15.2058V25.6881H49.9438V15.5362C49.9438 13.1823 48.4686 12.3357 46.4387 12.3357C45.1477 12.3357 43.8575 12.5194 42.8973 12.8134V25.6867H39.2456V10.4253V10.4239ZM60.2678 22.5994C60.9691 22.8187 61.8924 22.929 62.8127 22.929C66.1699 22.929 68.5683 21.0906 68.5683 17.3383C68.5683 14.1748 66.3186 12.2994 63.5517 12.2994C62.1136 12.2994 61.0068 12.6675 60.2678 13.0726V22.5994ZM79.6705 12.1897C81.4771 12.1897 82.8058 12.9978 82.8058 14.7636V16.1257H80.9977C76.2763 16.1257 73.4362 17.7434 73.4362 21.0529C73.4362 24.7319 76.5352 26.0192 80.7772 26.0192C82.6215 26.0192 84.8343 25.7614 86.3834 25.357V14.5792C86.3834 10.4965 83.8378 9.02551 80.2608 9.02551C78.2309 9.02551 76.3873 9.54101 74.9491 10.3491V13.5126C76.3133 12.7401 77.7892 12.189 79.6705 12.189V12.1897ZM82.805 18.553H81.2566C78.7103 18.553 77.0502 19.2878 77.0502 20.9432C77.0502 22.635 78.6 23.2972 80.8135 23.2972C81.3669 23.2972 82.1414 23.2238 82.805 23.1127V18.553ZM94.0168 23.1135C92.3574 23.1135 90.5508 22.4143 89.0379 21.2743V24.7319C90.2556 25.5414 92.1731 26.0555 94.0921 26.0555C97.6328 26.0555 100.252 24.5104 100.252 21.0906C100.252 18.1479 98.6293 16.7502 94.9023 15.9406C93.021 15.4265 92.3211 14.874 92.3211 13.8074C92.3211 12.7408 93.1689 11.969 94.7558 11.969C96.4884 11.969 97.8903 12.5948 99.3285 13.6237V10.2772C97.9643 9.43136 96.4884 9.02622 94.6441 9.02622C91.3246 9.02622 88.816 10.6439 88.816 13.9555C88.816 16.7872 90.2556 18.1479 93.649 18.9204C95.7515 19.4715 96.7103 19.9493 96.7103 21.2743C96.7103 22.5616 95.6406 23.1127 94.0168 23.1127V23.1135ZM105.247 18.3693V18.4419C105.469 21.3469 107.976 22.929 110.521 22.929C112.771 22.929 114.395 22.4143 116.017 21.3477V24.5482C114.542 25.5777 112.365 26.0555 110.264 26.0555C105.174 26.0555 101.706 22.8187 101.706 17.6701C101.706 12.4838 105.098 9.02622 109.6 9.02622C114.358 9.02622 116.607 12.0793 116.607 16.5294V18.3693H105.247ZM109.491 12.0793C111.852 12.0793 113.106 13.4763 113.179 16.0154H105.36C105.839 13.5511 107.388 12.0793 109.491 12.0793Z" fill="#1452F5"/>
<path fill-rule="evenodd" clip-rule="evenodd" d="M129.637 0.594533C129.637 0.436853 129.7 0.285631 129.811 0.174135C129.923 0.0626381 130.074 0 130.231 0C130.389 0 130.54 0.0626381 130.651 0.174135C130.762 0.285631 130.825 0.436853 130.825 0.594533V33.5822C130.825 33.7399 130.762 33.8911 130.651 34.0026C130.54 34.1141 130.389 34.1768 130.231 34.1768C130.074 34.1768 129.923 34.1141 129.811 34.0026C129.7 33.8911 129.637 33.7399 129.637 33.5822V0.594533Z" fill="#AAB4C0"/>
<path d="M152.213 9.43634L148.557 24.1551L144.736 9.43634H142.976L147.402 25.7173H149.656L153.174 11.3823L156.693 25.7173H158.947L163.372 9.43634H161.696L157.847 24.1551L154.219 9.43634H152.213ZM170.321 18.81H168.974C165.318 18.81 163.147 20.0432 163.147 22.4007C163.147 24.922 165.318 25.9366 168.562 25.9366C169.579 25.9366 170.871 25.7992 171.97 25.498V17.2479C171.97 14.5614 170.403 13.4927 167.985 13.4927C166.583 13.4927 165.291 13.8765 164.274 14.4247V15.9869C165.373 15.4116 166.418 15.0278 167.792 15.0278C169.331 15.0278 170.321 15.8224 170.321 17.3575V18.81ZM170.321 24.4015C169.744 24.5111 169.139 24.566 168.644 24.566C166.445 24.566 164.796 23.9907 164.796 22.4007C164.796 20.8108 166.61 20.1529 169.084 20.1529H170.321V24.4015ZM176.219 7.07886H174.569V25.718H176.219V7.07886ZM180.666 7.07886H179.017V25.718H180.666V7.07886ZM193.278 19.8239V18.7004C193.278 15.3019 191.27 13.4927 188.247 13.4927C185.031 13.4927 182.557 16.1514 182.557 19.7421C182.557 23.6339 185.196 25.9914 188.659 25.9914C190.144 25.9914 191.683 25.6354 192.755 24.8401V23.1953C191.546 24.0996 190.364 24.5389 188.659 24.5389C186.323 24.5389 184.206 22.8116 184.206 19.8788V19.8239H193.278ZM184.316 18.454C184.784 16.2062 186.295 14.9452 188.164 14.9452C190.172 14.9452 191.518 15.9598 191.628 18.454H184.316ZM193.591 15.1645H195.432V22.6193C195.432 25.0864 196.724 25.9914 198.456 25.9914C199.353 25.9997 200.239 25.793 201.04 25.3883V23.9358C200.215 24.3467 199.583 24.5937 198.813 24.5937C197.686 24.5937 197.081 23.9907 197.081 22.4556V15.1645H200.463V13.7668H197.081V10.8618H195.432V13.7668H193.591V15.1645Z" fill="#202A36"/>
</g>
<defs>
<clipPath id="clip0_345_222">
<rect width="202" height="34.1768" fill="white"/>
</clipPath>
</defs>
</svg>
