<svg width="16" height="16" viewBox="0 0 16 16" fill="none" xmlns="http://www.w3.org/2000/svg">
<path d="M16 1C16 0.653423 15.8205 0.331557 15.5257 0.14935C15.2309 -0.0328564 14.8628 -0.0494204 14.5528 0.105574L6.76393 4H3C1.34315 4 0 5.34315 0 7C0 8.65685 1.34315 10 3 10H3.27925L5.05132 15.3162C5.18744 15.7246 5.56958 16 6.00001 16H7.00001C7.55229 16 8.00001 15.5523 8.00001 15V10.618L14.5528 13.8944C14.8628 14.0494 15.2309 14.0329 15.5257 13.8507C15.8205 13.6684 16 13.3466 16 13V1Z" fill="#EF4444"/>
</svg>
