<svg width="18" height="18" viewBox="0 0 18 18" fill="none" xmlns="http://www.w3.org/2000/svg">
<path d="M12 6H6V12H12V6Z" fill="#EF4444"/>
<path fill-rule="evenodd" clip-rule="evenodd" d="M6 1C6 0.447715 6.44772 0 7 0C7.55228 0 8 0.447715 8 1V2H10V1C10 0.447715 10.4477 0 11 0C11.5523 0 12 0.447715 12 1V2H14C15.1046 2 16 2.89543 16 4V6H17C17.5523 6 18 6.44772 18 7C18 7.55228 17.5523 8 17 8H16V10H17C17.5523 10 18 10.4477 18 11C18 11.5523 17.5523 12 17 12H16V14C16 15.1046 15.1046 16 14 16H12V17C12 17.5523 11.5523 18 11 18C10.4477 18 10 17.5523 10 17V16H8V17C8 17.5523 7.55228 18 7 18C6.44772 18 6 17.5523 6 17V16H4C2.89543 16 2 15.1046 2 14V12H1C0.447715 12 0 11.5523 0 11C0 10.4477 0.447715 10 1 10H2V8H1C0.447715 8 0 7.55228 0 7C0 6.44772 0.447715 6 1 6H2V4C2 2.89543 2.89543 2 4 2H6V1ZM4 4H14V14H4V4Z" fill="#EF4444"/>
</svg>
