<svg width="18" height="18" viewBox="0 0 18 18" fill="none" xmlns="http://www.w3.org/2000/svg">
<path d="M2.99961 0.599998C1.67413 0.599998 0.599609 1.67451 0.599609 3V5.4C0.599609 6.72548 1.67413 7.8 2.99961 7.8H5.39961C6.72509 7.8 7.79961 6.72548 7.79961 5.4V3C7.79961 1.67452 6.72509 0.599998 5.39961 0.599998H2.99961Z" fill="#EF4444"/>
<path d="M2.99961 10.2C1.67413 10.2 0.599609 11.2745 0.599609 12.6V15C0.599609 16.3255 1.67413 17.4 2.99961 17.4H5.39961C6.72509 17.4 7.79961 16.3255 7.79961 15V12.6C7.79961 11.2745 6.72509 10.2 5.39961 10.2H2.99961Z" fill="#EF4444"/>
<path d="M10.1996 3C10.1996 1.67451 11.2741 0.599998 12.5996 0.599998H14.9996C16.3251 0.599998 17.3996 1.67452 17.3996 3V5.4C17.3996 6.72548 16.3251 7.8 14.9996 7.8H12.5996C11.2741 7.8 10.1996 6.72548 10.1996 5.4V3Z" fill="#EF4444"/>
<path d="M13.7996 10.2C14.4623 10.2 14.9996 10.7373 14.9996 11.4V12.6H16.1996C16.8623 12.6 17.3996 13.1373 17.3996 13.8C17.3996 14.4627 16.8623 15 16.1996 15H14.9996V16.2C14.9996 16.8627 14.4623 17.4 13.7996 17.4C13.1369 17.4 12.5996 16.8627 12.5996 16.2V15H11.3996C10.7369 15 10.1996 14.4627 10.1996 13.8C10.1996 13.1373 10.7369 12.6 11.3996 12.6H12.5996V11.4C12.5996 10.7373 13.1369 10.2 13.7996 10.2Z" fill="#EF4444"/>
</svg>
