<svg width="202" height="35" viewBox="0 0 202 35" fill="none" xmlns="http://www.w3.org/2000/svg">
<g clip-path="url(#clip0_64_554)">
<mask id="mask0_64_554" style="mask-type:luminance" maskUnits="userSpaceOnUse" x="0" y="0" width="202" height="35">
<path d="M202 0H0V34.1768H202V0Z" fill="white"/>
</mask>
<g mask="url(#mask0_64_554)">
<path fill-rule="evenodd" clip-rule="evenodd" d="M62.5368 4H58.7499V28.9073C60.4725 29.5105 62.6151 30 65.0654 30C71.3419 30 74.9776 26.382 74.9776 20.9944C74.9776 15.644 71.3028 12.5548 66.4035 12.5548C64.9112 12.5548 63.3414 12.9691 62.5376 13.3835L62.5368 4ZM35.5052 5.50847C34.2425 5.50847 33.1317 6.52604 33.1317 7.80619C33.1317 9.12647 34.2425 10.1812 35.5045 10.1812C36.7681 10.1812 37.8782 9.12575 37.8782 7.80692C37.8782 6.52604 36.7681 5.50847 35.5052 5.50847ZM12.057 26.2361C11.2303 26.5549 10.3595 26.7226 9.41621 26.7226C6.12445 26.7226 3.82686 24.6124 3.82686 21.2971C3.82686 17.7929 6.20047 15.8701 9.2627 15.8701C10.1631 15.8701 11.0363 16.0233 11.885 16.3574C12.2839 15.389 12.8261 14.4846 13.494 13.6738C12.0865 12.9334 10.6901 12.5548 8.91876 12.5548C3.942 12.5541 0 15.9065 0 21.2963C0 26.6475 3.75084 30 8.9195 30C10.6569 30 12.2511 29.6404 13.773 28.8351C13.0726 28.0582 12.4942 27.1826 12.057 26.2361ZM22.4519 12.5541C27.5423 12.5541 31.2172 16.0963 31.2172 21.2963C31.2172 26.4586 27.5416 30 22.4519 30C17.3998 30 13.7257 26.4586 13.7257 21.2963C13.7257 16.0963 17.3998 12.5541 22.4519 12.5541ZM17.5511 21.2963C17.5511 17.9053 19.6177 15.7571 22.4504 15.7571C25.3598 15.7571 27.388 17.9053 27.388 21.2963C27.388 24.6503 25.3598 26.797 22.4504 26.797C19.6185 26.797 17.5511 24.6503 17.5511 21.2963ZM33.6299 29.6236H37.4183V12.9305H33.6299V29.6236ZM40.7241 13.986C43.0977 13.0815 46.0072 12.5541 48.4944 12.5541C52.8196 12.5541 55.5761 14.1742 55.5761 18.8849V29.6236H51.8254V19.2233C51.8254 16.8118 50.2946 15.9445 48.1882 15.9445C46.8486 15.9445 45.5098 16.1327 44.5134 16.4339V29.6222H40.7241V13.9874V13.986ZM62.5383 26.4593C63.266 26.684 64.2241 26.797 65.1791 26.797C68.6627 26.797 71.1515 24.9136 71.1515 21.0695C71.1515 17.8286 68.8171 15.9073 65.9459 15.9073C64.4536 15.9073 63.3051 16.2845 62.5383 16.6995V26.4593ZM82.672 15.795C84.5466 15.795 85.9254 16.6228 85.9254 18.4318V19.8273H84.0492C79.1499 19.8273 76.2028 21.4845 76.2028 24.875C76.2028 28.644 79.4185 29.9628 83.8204 29.9628C85.7341 29.9628 88.0303 29.6987 89.6378 29.2844V18.2429C89.6378 14.0603 86.9963 12.5534 83.2845 12.5534C81.1781 12.5534 79.2651 13.0815 77.7727 13.9093V17.1502C79.1883 16.3588 80.7198 15.795 82.672 15.795ZM85.9246 22.3139H84.3178C81.6756 22.3139 79.953 23.0667 79.953 24.7626C79.953 26.4958 81.5611 27.1742 83.858 27.1742C84.4323 27.1742 85.236 27.099 85.9246 26.9852V22.3139ZM97.5587 26.986C95.8368 26.986 93.9622 26.2697 92.3923 25.1018V28.644C93.6558 29.4733 95.6456 30 97.6369 30C101.311 30 104.029 28.4171 104.029 24.9136C104.029 21.8989 102.345 20.467 98.4776 19.6376C96.5254 19.111 95.7992 18.5449 95.7992 17.4522C95.7992 16.3595 96.6789 15.5689 98.3256 15.5689C100.123 15.5689 101.578 16.21 103.071 17.264V13.8357C101.655 12.9691 100.123 12.5541 98.2097 12.5541C94.7651 12.5541 92.162 14.2113 92.162 17.604C92.162 20.5049 93.6558 21.8989 97.1771 22.6903C99.3588 23.2549 100.354 23.7444 100.354 25.1018C100.354 26.4206 99.2437 26.986 97.5587 26.986ZM109.212 22.1258V22.2001C109.442 25.1762 112.044 26.797 114.685 26.797C117.019 26.797 118.705 26.2697 120.388 25.177V28.4558C118.857 29.5105 116.598 30 114.418 30C109.136 30 105.538 26.684 105.538 21.4094C105.538 16.0963 109.057 12.5541 113.729 12.5541C118.666 12.5541 121 15.6819 121 20.2408V22.1258H109.212ZM113.616 15.6819C116.066 15.6819 117.367 17.113 117.443 19.7143H109.329C109.826 17.1897 111.434 15.6819 113.616 15.6819Z" fill="#1452F5"/>
<path fill-rule="evenodd" clip-rule="evenodd" d="M129.637 0.594533C129.637 0.436853 129.7 0.285631 129.811 0.174135C129.923 0.0626381 130.074 0 130.231 0C130.389 0 130.54 0.0626381 130.651 0.174135C130.762 0.285631 130.825 0.436853 130.825 0.594533V33.5822C130.825 33.7399 130.762 33.8911 130.651 34.0026C130.54 34.1141 130.389 34.1768 130.231 34.1768C130.074 34.1768 129.923 34.1141 129.811 34.0026C129.7 33.8911 129.637 33.7399 129.637 33.5822V0.594533Z" fill="#E1E1E1"/>
<path d="M150.704 11.493L146.863 27.0579L142.849 11.493H141L145.65 28.7099H148.018L151.714 13.5508L155.411 28.7099H157.779L162.427 11.493H160.667L156.623 27.0579L152.811 11.493H150.704ZM169.728 21.4055H168.313C164.472 21.4055 162.191 22.7096 162.191 25.2026C162.191 27.8689 164.472 28.9418 167.88 28.9418C168.948 28.9418 170.306 28.7965 171.46 28.478V19.7536C171.46 16.9127 169.814 15.7825 167.274 15.7825C165.801 15.7825 164.443 16.1884 163.375 16.7681V18.4201C164.53 17.8118 165.627 17.4059 167.071 17.4059C168.688 17.4059 169.728 18.2462 169.728 19.8695V21.4055ZM169.728 27.3184C169.122 27.4344 168.486 27.4924 167.966 27.4924C165.656 27.4924 163.923 26.884 163.923 25.2026C163.923 23.5213 165.829 22.8256 168.428 22.8256H169.728V27.3184ZM175.924 9H174.191V28.7106H175.924V9ZM180.596 9H178.863V28.7106H180.596V9ZM193.846 22.4777V21.2896C193.846 17.6957 191.736 15.7825 188.56 15.7825C185.182 15.7825 182.582 18.5941 182.582 22.3912C182.582 26.5067 185.355 28.9997 188.993 28.9997C190.553 28.9997 192.17 28.6233 193.296 27.7823V26.0429C192.026 26.9992 190.784 27.4637 188.993 27.4637C186.539 27.4637 184.315 25.6372 184.315 22.5358V22.4777H193.846ZM184.43 21.0291C184.922 18.652 186.509 17.3185 188.473 17.3185C190.582 17.3185 191.997 18.3915 192.112 21.0291H184.43ZM194.174 17.5505H196.108V25.4338C196.108 28.0427 197.466 28.9997 199.285 28.9997C200.228 29.0085 201.158 28.7899 202 28.362V26.826C201.133 27.2605 200.469 27.5217 199.66 27.5217C198.476 27.5217 197.841 26.884 197.841 25.2607V17.5505H201.394V16.0724H197.841V13.0004H196.108V16.0724H194.174V17.5505Z" fill="white"/>
</g>
</g>
<defs>
<clipPath id="clip0_64_554">
<rect width="202" height="35" fill="white"/>
</clipPath>
</defs>
</svg>
