<svg fill="none" height="35" viewBox="0 0 202 35" width="202" xmlns="http://www.w3.org/2000/svg" xmlns:xlink="http://www.w3.org/1999/xlink"><clipPath id="a"><path d="m0 0h202v35h-202z"/></clipPath><mask id="b" height="35" maskUnits="userSpaceOnUse" width="202" x="0" y="0"><path d="m202 0h-202v35h202z" fill="#fff"/></mask><mask id="c" height="35" maskUnits="userSpaceOnUse" width="202" x="0" y="0"><path d="m202 0h-202v34.1768h202z" fill="#fff"/></mask><g clip-path="url(#a)"><g mask="url(#b)"><g mask="url(#c)"><path clip-rule="evenodd" d="m62.5368 4h-3.7869v24.9073c1.7226.6032 3.8652 1.0927 6.3155 1.0927 6.2765 0 9.9122-3.618 9.9122-9.0056 0-5.3504-3.6748-8.4396-8.5741-8.4396-1.4923 0-3.0621.4143-3.8659.8287zm-27.0316 1.50847c-1.2627 0-2.3735 1.01757-2.3735 2.29772 0 1.32028 1.1108 2.37501 2.3728 2.37501 1.2636 0 2.3737-1.05545 2.3737-2.37428 0-1.28088-1.1101-2.29845-2.373-2.29845zm-23.4482 20.72763c-.8267.3188-1.6975.4865-2.64079.4865-3.29176 0-5.58935-2.1102-5.58935-5.4255 0-3.5042 2.37361-5.427 5.43584-5.427.9004 0 1.7736.1532 2.6223.4873.3989-.9684.9411-1.8728 1.609-2.6836-1.4075-.7404-2.8039-1.119-4.57524-1.119-4.97676-.0007-8.91876 3.3517-8.91876 8.7415 0 5.3512 3.75084 8.7037 8.9195 8.7037 1.7374 0 3.3316-.3596 4.8535-1.1649-.7004-.7769-1.2788-1.6525-1.716-2.599zm10.3949-13.682c5.0904 0 8.7653 3.5422 8.7653 8.7422 0 5.1623-3.6756 8.7037-8.7653 8.7037-5.0521 0-8.7262-3.5414-8.7262-8.7037 0-5.2 3.6741-8.7422 8.7262-8.7422zm-4.9008 8.7422c0-3.391 2.0666-5.5392 4.8993-5.5392 2.9094 0 4.9376 2.1482 4.9376 5.5392 0 3.354-2.0282 5.5007-4.9376 5.5007-2.8319 0-4.8993-2.1467-4.8993-5.5007zm16.0788 8.3273h3.7884v-16.6931h-3.7884zm7.0942-15.6376c2.3736-.9045 5.2831-1.4319 7.7703-1.4319 4.3252 0 7.0817 1.6201 7.0817 6.3308v10.7387h-3.7507v-10.4003c0-2.4115-1.5308-3.2788-3.6372-3.2788-1.3396 0-2.6784.1882-3.6748.4894v13.1883h-3.7893v-15.6348zm21.8142 12.4733c.7277.2247 1.6858.3377 2.6408.3377 3.4836 0 5.9724-1.8834 5.9724-5.7275 0-3.2409-2.3344-5.1622-5.2056-5.1622-1.4923 0-2.6408.3772-3.4076.7922zm20.1337-10.6643c1.8746 0 3.2534.8278 3.2534 2.6368v1.3955h-1.8762c-4.8993 0-7.8464 1.6572-7.8464 5.0477 0 3.769 3.2157 5.0878 7.6176 5.0878 1.9137 0 4.2099-.2641 5.8174-.6784v-11.0415c0-4.1826-2.6415-5.6895-6.3533-5.6895-2.1064 0-4.0194.5281-5.5118 1.3559v3.2409c1.4156-.7914 2.9471-1.3552 4.8993-1.3552zm3.2526 6.5189h-1.6068c-2.6422 0-4.3648.7528-4.3648 2.4487 0 1.7332 1.6081 2.4116 3.905 2.4116.5743 0 1.378-.0752 2.0666-.189zm11.6341 4.6721c-1.7219 0-3.5965-.7163-5.1664-1.8842v3.5422c1.2635.8293 3.2533 1.356 5.2446 1.356 3.6741 0 6.3921-1.5829 6.3921-5.0864 0-3.0147-1.684-4.4466-5.5514-5.276-1.9522-.5266-2.6784-1.0927-2.6784-2.1854s.8797-1.8833 2.5264-1.8833c1.7974 0 3.2524.6411 4.7454 1.6951v-3.4283c-1.416-.8666-2.948-1.2816-4.8613-1.2816-3.4446 0-6.0477 1.6572-6.0477 5.0499 0 2.9009 1.4938 4.2949 5.0151 5.0863 2.1817.5646 3.1769 1.0541 3.1769 2.4115 0 1.3188-1.1103 1.8842-2.7953 1.8842zm11.6533-4.8602v.0743c.23 2.9761 2.832 4.5969 5.473 4.5969 2.334 0 4.02-.5273 5.703-1.62v3.2788c-1.531 1.0547-3.79 1.5442-5.97 1.5442-5.282 0-8.88-3.316-8.88-8.5906 0-5.3131 3.519-8.8553 8.191-8.8553 4.937 0 7.271 3.1278 7.271 7.6867v1.885zm4.404-6.4439c2.45 0 3.751 1.4311 3.827 4.0324h-8.114c.497-2.5246 2.105-4.0324 4.287-4.0324z" fill="#1452f5" fill-rule="evenodd"/><path clip-rule="evenodd" d="m129.637.594533c0-.15768.063-.308902.174-.420398.112-.1114969.263-.174135.42-.174135.158 0 .309.0626381.42.174135.111.111496.174.262718.174.420398v32.987667c0 .1577-.063.3089-.174.4204s-.262.1742-.42.1742c-.157 0-.308-.0627-.42-.1742-.111-.1115-.174-.2627-.174-.4204z" fill="#959595" fill-rule="evenodd"/><path d="m150.704 11.493-3.841 15.5649-4.014-15.5649h-1.849l4.65 17.2169h2.368l3.696-15.1591 3.697 15.1591h2.368l4.648-17.2169h-1.76l-4.044 15.5649-3.812-15.5649zm19.024 9.9125h-1.415c-3.841 0-6.122 1.3041-6.122 3.7971 0 2.6663 2.281 3.7392 5.689 3.7392 1.068 0 2.426-.1453 3.58-.4638v-8.7244c0-2.8409-1.646-3.9711-4.186-3.9711-1.473 0-2.831.4059-3.899.9856v1.652c1.155-.6083 2.252-1.0142 3.696-1.0142 1.617 0 2.657.8403 2.657 2.4636zm0 5.9129c-.606.116-1.242.174-1.762.174-2.31 0-4.043-.6084-4.043-2.2898 0-1.6813 1.906-2.377 4.505-2.377h1.3zm6.196-18.3184h-1.733v19.7106h1.733zm4.672 0h-1.733v19.7106h1.733zm13.25 13.4777v-1.1881c0-3.5939-2.11-5.5071-5.286-5.5071-3.378 0-5.978 2.8116-5.978 6.6087 0 4.1155 2.773 6.6085 6.411 6.6085 1.56 0 3.177-.3764 4.303-1.2174v-1.7394c-1.27.9563-2.512 1.4208-4.303 1.4208-2.454 0-4.678-1.8265-4.678-4.9279v-.0581zm-9.416-1.4486c.492-2.3771 2.079-3.7106 4.043-3.7106 2.109 0 3.524 1.073 3.639 3.7106zm9.744-3.4786h1.934v7.8833c0 2.6089 1.358 3.5659 3.177 3.5659.943.0088 1.873-.2098 2.715-.6377v-1.536c-.867.4345-1.531.6957-2.34.6957-1.184 0-1.819-.6377-1.819-2.261v-7.7102h3.553v-1.4781h-3.553v-3.072h-1.733v3.072h-1.934z" fill="#000"/></g></g></g></svg>