<svg width="16" height="17" viewBox="0 0 16 17" fill="none" xmlns="http://www.w3.org/2000/svg">
<path d="M1 0C0.447715 0 0 0.447715 0 1C0 1.55228 0.447715 2 1 2H2.21922L2.52478 3.22224C2.52799 3.23637 2.5315 3.25039 2.5353 3.26429L3.89253 8.69321L2.99995 9.58578C1.74002 10.8457 2.63235 13 4.41416 13H13C13.5522 13 14 12.5523 14 12C14 11.4477 13.5522 11 13 11L4.41417 11L5.41416 10H12C12.3788 10 12.725 9.786 12.8944 9.44721L15.8944 3.44721C16.0494 3.13723 16.0329 2.76909 15.8507 2.47427C15.6684 2.17945 15.3466 2 15 2H4.28078L3.97014 0.757464C3.85885 0.312297 3.45887 0 3 0H1Z" fill="#EF4444"/>
<path d="M14 15.5C14 16.3284 13.3284 17 12.5 17C11.6716 17 11 16.3284 11 15.5C11 14.6716 11.6716 14 12.5 14C13.3284 14 14 14.6716 14 15.5Z" fill="#EF4444"/>
<path d="M4.5 17C5.32843 17 6 16.3284 6 15.5C6 14.6716 5.32843 14 4.5 14C3.67157 14 3 14.6716 3 15.5C3 16.3284 3.67157 17 4.5 17Z" fill="#EF4444"/>
</svg>
