<svg width="20" height="20" viewBox="0 0 20 20" fill="none" xmlns="http://www.w3.org/2000/svg">
<path fill-rule="evenodd" clip-rule="evenodd" d="M4.00039 0.400002C4.66313 0.400002 5.20039 0.93726 5.20039 1.6V2.8H6.40039C7.06313 2.8 7.60039 3.33726 7.60039 4C7.60039 4.66274 7.06313 5.2 6.40039 5.2H5.20039V6.4C5.20039 7.06274 4.66313 7.6 4.00039 7.6C3.33765 7.6 2.80039 7.06274 2.80039 6.4V5.2H1.60039C0.937649 5.2 0.400391 4.66274 0.400391 4C0.400391 3.33726 0.937649 2.8 1.60039 2.8H2.80039V1.6C2.80039 0.93726 3.33765 0.400002 4.00039 0.400002ZM4.00039 12.4C4.66313 12.4 5.20039 12.9373 5.20039 13.6V14.8H6.40039C7.06313 14.8 7.60039 15.3373 7.60039 16C7.60039 16.6627 7.06313 17.2 6.40039 17.2H5.20039V18.4C5.20039 19.0627 4.66313 19.6 4.00039 19.6C3.33765 19.6 2.80039 19.0627 2.80039 18.4V17.2H1.60039C0.937649 17.2 0.400391 16.6627 0.400391 16C0.400391 15.3373 0.937649 14.8 1.60039 14.8H2.80039V13.6C2.80039 12.9373 3.33765 12.4 4.00039 12.4Z" fill="#EF4444"/>
<path fill-rule="evenodd" clip-rule="evenodd" d="M12.4003 0.400002C12.9448 0.400002 13.421 0.766581 13.5604 1.29293L14.9754 6.63872L19 8.96058C19.3715 9.17489 19.6003 9.57115 19.6003 10C19.6003 10.4289 19.3715 10.8251 19 11.0394L14.9754 13.3613L13.5604 18.7071C13.421 19.2334 12.9448 19.6 12.4003 19.6C11.8558 19.6 11.3796 19.2334 11.2403 18.7071L9.82522 13.3613L5.80072 11.0394C5.42925 10.8251 5.20039 10.4289 5.20039 10C5.20039 9.57115 5.42925 9.17489 5.80072 8.96058L9.82522 6.63872L11.2403 1.29293C11.3796 0.766581 11.8558 0.400002 12.4003 0.400002Z" fill="#EF4444"/>
</svg>
