<svg width="20" height="20" viewBox="0 0 20 20" fill="none" xmlns="http://www.w3.org/2000/svg">
<path d="M10.0004 2.19999C10.0004 1.20588 10.8063 0.399994 11.8004 0.399994C12.7945 0.399994 13.6004 1.20588 13.6004 2.19999V2.79999C13.6004 3.46274 14.1376 3.99999 14.8004 3.99999H18.4004C19.0631 3.99999 19.6004 4.53725 19.6004 5.19999V8.79999C19.6004 9.46274 19.0631 9.99999 18.4004 9.99999H17.8004C16.8063 9.99999 16.0004 10.8059 16.0004 11.8C16.0004 12.7941 16.8063 13.6 17.8004 13.6H18.4004C19.0631 13.6 19.6004 14.1373 19.6004 14.8V18.4C19.6004 19.0627 19.0631 19.6 18.4004 19.6H14.8004C14.1376 19.6 13.6004 19.0627 13.6004 18.4V17.8C13.6004 16.8059 12.7945 16 11.8004 16C10.8063 16 10.0004 16.8059 10.0004 17.8V18.4C10.0004 19.0627 9.46313 19.6 8.80039 19.6H5.20039C4.53765 19.6 4.00039 19.0627 4.00039 18.4V14.8C4.00039 14.1373 3.46313 13.6 2.80039 13.6H2.20039C1.20628 13.6 0.400391 12.7941 0.400391 11.8C0.400391 10.8059 1.20628 9.99999 2.20039 9.99999H2.80039C3.46313 9.99999 4.00039 9.46274 4.00039 8.79999V5.19999C4.00039 4.53725 4.53765 3.99999 5.20039 3.99999H8.80039C9.46313 3.99999 10.0004 3.46274 10.0004 2.79999V2.19999Z" fill="#EF4444"/>
</svg>
