<?xml version="1.0"?>
<svg width="438" height="438" xmlns="http://www.w3.org/2000/svg" xmlns:svg="http://www.w3.org/2000/svg">
 <g class="layer">
  <title>Layer 1</title>
  <path d="m225.9,0c-122.6,0 -225.9,98.5 -225.9,220.1c0,3.9 0.1,227.9 0.1,227.9l225.8,-0.2c122.7,0 222.1,-102.3 222.1,-223.9c0,-121.6 -99.4,-223.9 -222.1,-223.9zm-1.9,352c-19.4,0 -37.9,-4.3 -54.4,-12.1l-81.1,20.1l22.9,-75c-9.8,-18.1 -15.4,-38.9 -15.4,-61c0,-70.7 57.3,-128 128,-128s128,57.3 128,128s-57.3,128 -128,128z" fill="#ef4444" id="svg_1"/>
 </g>
</svg>