<svg width="12" height="16" viewBox="0 0 12 16" fill="none" xmlns="http://www.w3.org/2000/svg">
<path fill-rule="evenodd" clip-rule="evenodd" d="M0 2C0 0.895432 0.89543 0 2 0H6.58579C7.11622 0 7.62493 0.210714 8 0.585786L11.4142 4C11.7893 4.37507 12 4.88378 12 5.41421V14C12 15.1046 11.1046 16 10 16H2C0.89543 16 0 15.1046 0 14V2ZM2 8C2 7.44772 2.44772 7 3 7H9C9.55228 7 10 7.44772 10 8C10 8.55229 9.55228 9 9 9H3C2.44772 9 2 8.55229 2 8ZM3 11C2.44772 11 2 11.4477 2 12C2 12.5523 2.44772 13 3 13H9C9.55228 13 10 12.5523 10 12C10 11.4477 9.55228 11 9 11H3Z" fill="#EF4444"/>
</svg>
