<svg width="72" height="18" viewBox="0 0 72 18" fill="none" xmlns="http://www.w3.org/2000/svg">
<g clip-path="url(#clip0_64_542)">
<path d="M15.9502 2.68053C15.95 1.97316 15.669 1.29482 15.1688 0.794634C14.6686 0.294447 13.9902 0.0133573 13.2829 0.0131584C11.9891 3.34606e-05 10.9204 0.924408 10.6552 2.13903H10.5892C10.4662 1.53766 10.1397 0.997068 9.66466 0.60835C9.1896 0.219633 8.59507 0.00655131 7.98124 0.00500992C7.36742 0.00346853 6.77182 0.213562 6.29482 0.599888C5.81781 0.986215 5.48855 1.52516 5.36252 2.12591H5.29652C5.19836 1.65187 4.9734 1.21336 4.64564 0.857102C4.31788 0.500846 3.8996 0.2402 3.43537 0.102946C2.97114 -0.034308 2.47837 -0.0430266 2.00958 0.0777195C1.54079 0.198466 1.11354 0.444151 0.773383 0.78859C0.433224 1.13303 0.1929 1.56331 0.0780241 2.03358C-0.0368512 2.50384 -0.021972 2.99647 0.121076 3.45894C0.264124 3.92142 0.529979 4.33641 0.890306 4.65969C1.25063 4.98297 1.69192 5.20243 2.16715 5.29466V5.34753C1.55754 5.46642 1.00824 5.79356 0.613324 6.27293C0.218408 6.7523 0.00245603 7.35407 0.00245603 7.97516C0.00245603 8.59625 0.218408 9.19802 0.613324 9.67739C1.00824 10.1568 1.55754 10.4839 2.16715 10.6028V10.6553C1.69144 10.7457 1.24925 10.9637 0.887872 11.286C0.526491 11.6083 0.259518 12.0227 0.115503 12.485C-0.0285117 12.9473 -0.044149 13.4401 0.0702633 13.9106C0.184676 14.3811 0.424834 14.8117 0.765052 15.1562C1.10527 15.5008 1.53275 15.7464 2.00177 15.8667C2.47079 15.9871 2.96371 15.9777 3.4278 15.8396C3.8919 15.7014 4.30971 15.4397 4.63656 15.0825C4.96341 14.7252 5.18699 14.2858 5.2834 13.8113H5.3494C5.60027 15.0259 6.6829 15.9488 7.9639 15.9488C8.58008 15.9516 9.17803 15.7398 9.65506 15.3498C10.1321 14.9597 10.4584 14.4158 10.578 13.8113H10.644C10.8949 15.0259 11.9775 15.9488 13.2585 15.9488C13.9224 15.9472 14.5619 15.6985 15.0525 15.2512C15.5431 14.8039 15.8495 14.1899 15.9122 13.529C15.9748 12.868 15.7891 12.2074 15.3913 11.6759C14.9935 11.1444 14.412 10.78 13.7602 10.6538V10.6013C14.3699 10.4824 14.9192 10.1553 15.3141 9.67589C15.709 9.19652 15.9249 8.59475 15.9249 7.97366C15.9249 7.35257 15.709 6.7508 15.3141 6.27143C14.9192 5.79206 14.3699 5.46492 13.7602 5.34603V5.29316C14.3743 5.1849 14.9305 4.86358 15.3311 4.38572C15.7317 3.90786 15.9509 3.30407 15.9502 2.68053ZM12.2662 11.6457C12.2664 11.7272 12.2504 11.808 12.2193 11.8833C12.1882 11.9587 12.1425 12.0272 12.0848 12.0848C12.0271 12.1425 11.9587 12.1882 11.8833 12.2193C11.8079 12.2505 11.7272 12.2664 11.6456 12.2663H4.31777C4.23623 12.2664 4.15546 12.2505 4.0801 12.2193C4.00473 12.1882 3.93626 12.1425 3.8786 12.0848C3.82094 12.0272 3.77523 11.9587 3.74409 11.8833C3.71295 11.808 3.697 11.7272 3.69715 11.6457V4.31778C3.697 4.23624 3.71295 4.15547 3.74409 4.0801C3.77523 4.00474 3.82094 3.93626 3.8786 3.8786C3.93626 3.82094 4.00473 3.77524 4.0801 3.7441C4.15546 3.71296 4.23623 3.69701 4.31777 3.69716H11.6456C11.7272 3.69701 11.8079 3.71296 11.8833 3.7441C11.9587 3.77524 12.0271 3.82094 12.0848 3.8786C12.1425 3.93626 12.1882 4.00474 12.2193 4.0801C12.2504 4.15547 12.2664 4.23624 12.2662 4.31778V11.6457Z" fill="white"/>
<path d="M24.242 4.81933H30.1307V2.79883H21.8784V14.326H24.242V9.2822H29.2067V7.28833H24.242V4.81933Z" fill="white"/>
<path d="M36.8649 6.74682C36.3369 5.95482 35.2674 5.43994 34.1713 5.43994C31.6363 5.43994 29.9199 7.19569 29.9199 9.95532C29.9199 12.7149 31.6363 14.4711 34.1713 14.4842C35.2674 14.4842 36.35 13.9431 36.8649 13.1773V14.3398H39.0699V5.58507H36.8649V6.74682ZM34.5024 12.5968C33.1149 12.5968 32.1519 11.5142 32.1399 9.95607C32.1399 8.37169 33.1172 7.31532 34.5024 7.31532C35.8877 7.31532 36.8649 8.37169 36.8649 9.95607C36.8649 11.5003 35.8877 12.5961 34.5002 12.5961L34.5024 12.5968Z" fill="white"/>
<path d="M51.006 5.43994C49.8435 5.43994 48.8685 5.95482 48.207 7.01082C47.7195 6.04707 46.728 5.43994 45.5003 5.43994C44.2853 5.43994 43.4798 6.03394 42.978 6.79969V5.58507H40.7729V14.3248H42.978V9.22932C42.978 8.08069 43.6647 7.36744 44.721 7.36744C45.7774 7.36744 46.4625 8.18607 46.4625 9.22932V14.3391H48.6674V9.22932C48.6674 8.26519 49.155 7.36744 50.4104 7.36744C51.573 7.36744 52.1666 8.21269 52.1666 9.22932V14.3248H54.375V8.64844C54.375 6.66769 52.8413 5.43994 51.006 5.43994Z" fill="white"/>
<path d="M57.053 4.4364C57.877 4.4364 58.5451 3.76835 58.5451 2.94427C58.5451 2.1202 57.877 1.45215 57.053 1.45215C56.2289 1.45215 55.5608 2.1202 55.5608 2.94427C55.5608 3.76835 56.2289 4.4364 57.053 4.4364Z" fill="white"/>
<path d="M58.1623 5.58496H55.9573V14.339H58.1623V5.58496Z" fill="white"/>
<path d="M61.9784 11.5533V2.79932H59.7749V11.7911C59.7749 14.0752 61.2801 14.6561 63.0374 14.4314V12.5302C62.4273 12.5831 61.9784 12.3719 61.9784 11.5533Z" fill="white"/>
<path d="M69.6499 5.58496L67.4449 11.2497L65.2924 5.58721H62.916L66.3375 14.1143L66.075 14.7616C65.7713 15.5273 65.1638 15.7385 64.596 15.7385C64.2 15.7385 63.6983 15.6196 63.0514 15.3027V17.2437C63.5799 17.4782 64.1474 17.6126 64.725 17.6401C66.4418 17.6401 67.4846 16.9651 68.079 15.4876L72 5.58496H69.6499Z" fill="white"/>
</g>
<defs>
<clipPath id="clip0_64_542">
<rect width="72" height="18" fill="white"/>
</clipPath>
</defs>
</svg>
