<svg fill="none" height="18" viewBox="0 0 72 18" width="72" xmlns="http://www.w3.org/2000/svg" xmlns:xlink="http://www.w3.org/1999/xlink"><clipPath id="a"><path d="m0 0h72v18h-72z"/></clipPath><g clip-path="url(#a)" fill="#000"><path d="m15.9502 2.68053c-.0002-.70737-.2812-1.38571-.7814-1.885896-.5002-.500187-1.1786-.7812767-1.8859-.7814756-1.2938-.01312494-2.3625.9112496-2.6277 2.1258716h-.066c-.123-.60137-.4495-1.141962-.92457-1.53068-.47506-.388717-1.06959-.60179869-1.68342-.60334008-.61382-.00154139-1.20942.20855208-1.68642.59487808-.47701.386327-.80627.925272-.9323 1.526022h-.066c-.09816-.47404-.32312-.91255-.65088-1.268808-.32776-.356256-.74604-.616902-1.21027-.754156s-.957-.1459726-1.42579-.0252265c-.46879.1207465-.89604.3664315-1.236198.7108705-.340159.34444-.580483.77472-.6953584 1.24499-.1148753.47026-.0999961.96289.0430514 1.42536.143048.46248.408903.87747.76923 1.20075.360325.32328.801615.54274 1.276845.63497v.05287c-.60961.11889-1.15891.44603-1.553827.9254-.394915.47937-.61086749 1.08114-.61086749 1.70223s.21595249 1.22286.61086749 1.70223c.394917.47941.944217.80651 1.553827.92541v.0525c-.47571.0904-.9179.3084-1.279279.6307-.36138.3223-.628354.7367-.772369 1.199-.1440142.4623-.1596515.9551-.0452392 1.4256.1144122.4705.3545702.9011.6947882 1.2456.340219.3446.767699.5902 1.236719.7105.46902.1204.96194.111 1.42603-.0271.4641-.1382.88191-.3999 1.20876-.7571.32685-.3573.55043-.7967.64684-1.2712h.066c.25087 1.2146 1.3335 2.1375 2.6145 2.1375.61618.0028 1.21413-.209 1.69116-.599.47707-.3901.80337-.934.92297-1.5385h.066c.2509 1.2146 1.3335 2.1375 2.6145 2.1375.6639-.0016 1.3034-.2503 1.794-.6976s.797-1.0613.8597-1.7222c.0626-.661-.1231-1.3216-.5209-1.8531s-.9793-.8959-1.6311-1.0221v-.0525c.6097-.1189 1.159-.446 1.5539-.92541.3949-.47937.6108-1.08114.6108-1.70223s-.2159-1.22286-.6108-1.70223-.9442-.80651-1.5539-.9254v-.05287c.6141-.10826 1.1703-.42958 1.5709-.90744s.6198-1.08165.6191-1.70519zm-3.684 8.96517c.0002.0815-.0158.1623-.0469.2376-.0311.0754-.0768.1439-.1345.2015-.0577.0577-.1261.1034-.2015.1345-.0754.0312-.1561.0471-.2377.047h-7.32786c-.08154.0001-.16231-.0158-.23767-.047-.07537-.0311-.14384-.0768-.2015-.1345-.05766-.0576-.10337-.1261-.13451-.2015-.03114-.0753-.04709-.1561-.04694-.2376v-7.32792c-.00015-.08154.0158-.16231.04694-.23768.03114-.07536.07685-.14384.13451-.2015s.12613-.10336.2015-.1345c.07536-.03114.15613-.04709.23767-.04694h7.32786c.0816-.00015.1623.0158.2377.04694s.1438.07684.2015.1345.1034.12614.1345.2015c.0311.07537.0471.15614.0469.23768z"/><path d="m24.2421 4.81933h5.8887v-2.0205h-8.2523v11.52717h2.3636v-5.0438h4.9647v-1.99387h-4.9647z"/><path d="m36.8649 6.74682c-.528-.792-1.5975-1.30688-2.6936-1.30688-2.535 0-4.2514 1.75575-4.2514 4.51538 0 2.75958 1.7164 4.51578 4.2514 4.52888 1.0961 0 2.1787-.5411 2.6936-1.3069v1.1625h2.205v-8.75473h-2.205zm-2.3625 5.84998c-1.3875 0-2.3505-1.0826-2.3625-2.64073 0-1.58438.9773-2.64075 2.3625-2.64075 1.3853 0 2.3625 1.05637 2.3625 2.64075 0 1.54423-.9772 2.64003-2.3647 2.64003z"/><path d="m51.006 5.43994c-1.1625 0-2.1375.51488-2.799 1.57088-.4875-.96375-1.479-1.57088-2.7067-1.57088-1.215 0-2.0205.594-2.5223 1.35975v-1.21462h-2.205v8.73973h2.205v-5.09548c0-1.14863.6867-1.86188 1.743-1.86188 1.0564 0 1.7415.81863 1.7415 1.86188v5.10978h2.205v-5.10978c0-.96413.4875-1.86188 1.743-1.86188 1.1625 0 1.7562.84525 1.7562 1.86188v5.09548h2.2083v-5.67636c0-1.98075-1.5337-3.2085-3.369-3.2085z"/><path d="m57.0531 4.4364c.824 0 1.4921-.66805 1.4921-1.49213 0-.82407-.6681-1.49212-1.4921-1.49212-.8241 0-1.4922.66805-1.4922 1.49212 0 .82408.6681 1.49213 1.4922 1.49213z"/><path d="m58.1624 5.58496h-2.205v8.75404h2.205z"/><path d="m61.9785 11.5533v-8.75398h-2.2035v8.99178c0 2.2841 1.5052 2.865 3.2625 2.6403v-1.9012c-.6101.0529-1.059-.1583-1.059-.9769z"/><path d="m69.6499 5.58496-2.205 5.66474-2.1525-5.66249h-2.3764l3.4215 8.52709-.2625.6473c-.3037.7657-.9112.9769-1.479.9769-.396 0-.8977-.1189-1.5446-.4358v1.941c.5285.2345 1.096.3689 1.6736.3964 1.7168 0 2.7596-.675 3.354-2.1525l3.921-9.90264z"/></g></svg>