<svg width="128" height="32" viewBox="0 0 128 32" fill="none" xmlns="http://www.w3.org/2000/svg">
<g clip-path="url(#clip0_699_13)">
<mask id="mask0_699_13" style="mask-type:luminance" maskUnits="userSpaceOnUse" x="0" y="0" width="128" height="32">
<path d="M0 0H128V32H0V0Z" fill="white"/>
</mask>
<g mask="url(#mask0_699_13)">
<path d="M28.3557 4.76539C28.3554 3.50785 27.8558 2.30191 26.9666 1.41269C26.0773 0.523468 24.8713 0.0237531 23.6139 0.0233995C21.3138 6.62987e-05 19.4139 1.6434 18.9424 3.80273H18.8251C18.6064 2.73362 18.026 1.77257 17.1814 1.08152C16.3368 0.390465 15.2799 0.0116536 14.1887 0.00891334C13.0974 0.00617309 12.0386 0.379673 11.1906 1.06647C10.3426 1.75328 9.75721 2.7114 9.53315 3.7794H9.41582C9.24131 2.93666 8.84138 2.15709 8.2587 1.52374C7.67601 0.8904 6.93241 0.427029 6.10711 0.183022C5.28181 -0.0609852 4.40577 -0.0764849 3.57237 0.138175C2.73897 0.352835 1.97941 0.789609 1.37469 1.40194C0.769958 2.01428 0.342715 2.77922 0.138493 3.61526C-0.0657302 4.45128 -0.0392783 5.32706 0.215028 6.14923C0.469336 6.97142 0.941967 7.70918 1.58255 8.2839C2.22313 8.85862 3.00764 9.24877 3.85249 9.41274V9.50673C2.76874 9.71809 1.79221 10.2997 1.09014 11.1519C0.388065 12.0041 0.00414926 13.0739 0.00414926 14.1781C0.00414926 15.2822 0.388065 16.352 1.09014 17.2043C1.79221 18.0565 2.76874 18.6381 3.85249 18.8494V18.9428C3.00679 19.1035 2.22067 19.491 1.57822 20.064C0.935768 20.637 0.461147 21.3737 0.205121 22.1956C-0.0509044 23.0174 -0.0787041 23.8935 0.124696 24.73C0.328095 25.5664 0.755043 26.3319 1.35987 26.9444C1.96471 27.557 2.72467 27.9936 3.55849 28.2075C4.3923 28.4215 5.2686 28.4048 6.09365 28.1593C6.91872 27.9136 7.66149 27.4484 8.24256 26.8133C8.82362 26.1781 9.2211 25.397 9.39249 24.5534H9.50983C9.95582 26.7127 11.8805 28.3534 14.1578 28.3534C15.2533 28.3584 16.3163 27.9819 17.1643 27.2885C18.0125 26.595 18.5925 25.6281 18.8052 24.5534H18.9225C19.3685 26.7127 21.2932 28.3534 23.5705 28.3534C24.7508 28.3506 25.8877 27.9085 26.7598 27.1133C27.632 26.3181 28.1767 25.2265 28.2882 24.0516C28.3995 22.8765 28.0693 21.7021 27.3621 20.7572C26.6549 19.8123 25.6212 19.1645 24.4624 18.9401V18.8468C25.5463 18.6354 26.5229 18.0539 27.2249 17.2016C27.9269 16.3494 28.3108 15.2796 28.3108 14.1754C28.3108 13.0712 27.9269 12.0014 27.2249 11.1492C26.5229 10.297 25.5463 9.71542 24.4624 9.50406V9.41007C25.5541 9.21761 26.5429 8.64637 27.2551 7.79684C27.9673 6.94731 28.357 5.87391 28.3557 4.76539ZM21.8064 20.7035C21.8068 20.8484 21.7783 20.992 21.723 21.1259C21.6677 21.2599 21.5865 21.3817 21.4839 21.4841C21.3813 21.5867 21.2597 21.6679 21.1257 21.7232C20.9917 21.7787 20.8482 21.8069 20.7031 21.8068H7.67582C7.53086 21.8069 7.38727 21.7787 7.25329 21.7232C7.1193 21.6679 6.99758 21.5867 6.89507 21.4841C6.79257 21.3817 6.7113 21.2599 6.65594 21.1259C6.60058 20.992 6.57223 20.8484 6.57249 20.7035V7.67606C6.57223 7.5311 6.60058 7.38751 6.65594 7.25352C6.7113 7.11954 6.79257 6.9978 6.89507 6.8953C6.99758 6.79279 7.1193 6.71154 7.25329 6.65618C7.38727 6.60082 7.53086 6.57247 7.67582 6.57274H20.7031C20.8482 6.57247 20.9917 6.60082 21.1257 6.65618C21.2597 6.71154 21.3813 6.79279 21.4839 6.8953C21.5865 6.9978 21.6677 7.11954 21.723 7.25352C21.7783 7.38751 21.8068 7.5311 21.8064 7.67606V20.7035Z" fill="black"/>
<path d="M43.097 8.56771H53.5658V4.97571H38.895V25.4685H43.097V16.5017H51.9231V12.957H43.097V8.56771Z" fill="black"/>
<path d="M65.5376 11.9944C64.5989 10.5864 62.6976 9.67102 60.749 9.67102C56.2423 9.67102 53.1909 12.7924 53.1909 17.6984C53.1909 22.6043 56.2423 25.7264 60.749 25.7497C62.6976 25.7497 64.6222 24.7878 65.5376 23.4263V25.493H69.4576V9.92903H65.5376V11.9944ZM61.3376 22.3943C58.8709 22.3943 57.1589 20.4697 57.1376 17.6997C57.1376 14.883 58.875 13.005 61.3376 13.005C63.8003 13.005 65.5376 14.883 65.5376 17.6997C65.5376 20.445 63.8003 22.3931 61.3337 22.3931L61.3376 22.3943Z" fill="black"/>
<path d="M90.6774 9.67102C88.6107 9.67102 86.8774 10.5864 85.7014 12.4637C84.8347 10.7504 83.072 9.67102 80.8894 9.67102C78.7294 9.67102 77.2974 10.727 76.4054 12.0884V9.92903H72.4854V25.4663H76.4054V16.4077C76.4054 14.3657 77.6262 13.0977 79.504 13.0977C81.3821 13.0977 82.6 14.553 82.6 16.4077V25.4918H86.52V16.4077C86.52 14.6937 87.3867 13.0977 89.6187 13.0977C91.6854 13.0977 92.7408 14.6004 92.7408 16.4077V25.4663H96.6667V15.375C96.6667 11.8537 93.9401 9.67102 90.6774 9.67102Z" fill="black"/>
<path d="M101.428 7.88694C102.893 7.88694 104.08 6.69929 104.08 5.23426C104.08 3.76925 102.893 2.5816 101.428 2.5816C99.9626 2.5816 98.7749 3.76925 98.7749 5.23426C98.7749 6.69929 99.9626 7.88694 101.428 7.88694Z" fill="black"/>
<path d="M103.399 9.92883H99.4795V25.4916H103.399V9.92883Z" fill="black"/>
<path d="M110.184 20.5392V4.97656H106.267V20.9619C106.267 25.0226 108.943 26.0553 112.067 25.6558V22.2759C110.982 22.3699 110.184 21.9945 110.184 20.5392Z" fill="black"/>
<path d="M123.822 9.92883L119.902 19.9995L116.075 9.93283H111.851L117.933 25.0921L117.467 26.2429C116.927 27.6041 115.847 27.9796 114.837 27.9796C114.133 27.9796 113.241 27.7682 112.091 27.2048V30.6555C113.031 31.0724 114.04 31.3113 115.067 31.3602C118.119 31.3602 119.973 30.1602 121.029 27.5335L128 9.92883H123.822Z" fill="black"/>
</g>
</g>
<defs>
<clipPath id="clip0_699_13">
<rect width="128" height="32" fill="white"/>
</clipPath>
</defs>
</svg>
