<svg width="100" height="40" viewBox="0 0 100 40" fill="none" xmlns="http://www.w3.org/2000/svg">
<mask id="mask0_699_89" style="mask-type:luminance" maskUnits="userSpaceOnUse" x="39" y="5" width="58" height="32">
<path d="M96.491 5.26831H39.376V36.4878H96.491V5.26831Z" fill="white"/>
</mask>
<g mask="url(#mask0_699_89)">
<mask id="mask1_699_89" style="mask-type:luminance" maskUnits="userSpaceOnUse" x="39" y="5" width="58" height="32">
<path d="M96.491 5.26831H39.376V36.4878H96.491V5.26831Z" fill="white"/>
</mask>
<g mask="url(#mask1_699_89)">
<path d="M43.3575 29.3073V11.9368C43.3575 10.6813 43.6294 9.57742 44.1735 8.62501C44.7174 7.65096 45.4899 6.88253 46.4906 6.31976C47.4914 5.75697 48.6665 5.47559 50.0154 5.47559C51.038 5.47559 51.9193 5.64874 52.6591 5.99508C53.3988 6.3414 54.0624 6.8176 54.6499 7.42368L51.9411 10.151C51.7018 9.91291 51.4406 9.72893 51.1577 9.59906C50.8749 9.46919 50.516 9.40425 50.0807 9.40425C49.2975 9.40425 48.6883 9.6207 48.253 10.0536C47.8396 10.4649 47.6329 11.0601 47.6329 11.8394V29.3073H43.3575ZM39.7021 17.359V13.6251H52.3V17.359H39.7021Z" fill="black"/>
<path fill-rule="evenodd" clip-rule="evenodd" d="M64.8371 14.4574C64.4547 14.1173 64.044 13.8615 63.605 13.69C62.9958 13.4303 62.3104 13.3004 61.5488 13.3004C59.7864 13.3004 58.4375 13.8632 57.5018 14.9888C57.4909 15.0017 57.48 15.0146 57.4693 15.0276V13.6251H53.1938V29.3073H57.4693V20.6382C57.4693 19.4694 57.7521 18.6036 58.3178 18.0408C58.9054 17.4564 59.656 17.1641 60.5699 17.1641C61.005 17.1641 61.3857 17.2291 61.7122 17.359C61.9691 17.4548 62.1964 17.5861 62.3942 17.7528C62.5449 17.4067 62.7188 17.0708 62.9157 16.7451C63.4371 15.8678 64.0775 15.1053 64.8371 14.4574Z" fill="black"/>
<path d="M70.9584 29.632C69.3701 29.632 67.934 29.275 66.6504 28.5606C65.3884 27.8246 64.3767 26.8398 63.6151 25.6059C62.8754 24.3505 62.5054 22.9544 62.5054 21.4176C62.5054 19.8806 62.8754 18.5062 63.6151 17.2941C64.3549 16.0603 65.3666 15.0862 66.6504 14.3719C67.934 13.636 69.3592 13.268 70.9258 13.268C72.536 13.268 73.972 13.636 75.2338 14.3719C76.5177 15.0862 77.5295 16.0603 78.2691 17.2941C79.0089 18.5062 79.3789 19.8806 79.3789 21.4176C79.3789 22.9544 79.0089 24.3505 78.2691 25.6059C77.5295 26.8398 76.5177 27.8246 75.2338 28.5606C73.972 29.275 72.5467 29.632 70.9584 29.632ZM70.9258 25.6709C71.7307 25.6709 72.4381 25.4978 73.0473 25.1514C73.6783 24.7834 74.1568 24.2857 74.4833 23.6578C74.8313 23.0084 75.0054 22.2726 75.0054 21.45C75.0054 20.6275 74.8313 19.9025 74.4833 19.2746C74.1352 18.6469 73.6562 18.1599 73.0473 17.8136C72.4381 17.4456 71.7307 17.2616 70.9258 17.2616C70.1426 17.2616 69.4463 17.4456 68.8369 17.8136C68.2278 18.1599 67.749 18.6469 67.4011 19.2746C67.0529 19.9025 66.8789 20.6275 66.8789 21.45C66.8789 22.2726 67.0529 23.0084 67.4011 23.6578C67.749 24.2857 68.2278 24.7834 68.8369 25.1514C69.4463 25.4978 70.1426 25.6709 70.9258 25.6709Z" fill="black"/>
<path d="M87.7161 36.2556C86.0407 36.2556 84.5614 35.9524 83.2775 35.3463C81.9937 34.7619 80.9713 33.9286 80.2095 32.8464L82.9185 30.1514C83.5276 30.8657 84.2023 31.4068 84.9419 31.7748C85.7037 32.1645 86.6175 32.3594 87.6834 32.3594C89.0107 32.3594 90.0549 32.0238 90.8167 31.3527C91.6 30.6817 91.9916 29.751 91.9916 28.5606V24.6318L92.7095 21.1902L92.0241 17.7486V13.6251H96.267V28.4956C96.267 30.054 95.897 31.4068 95.1575 32.5541C94.4393 33.7229 93.4386 34.6322 92.1547 35.2815C90.8709 35.9309 89.3916 36.2556 87.7161 36.2556ZM87.5202 28.8852C86.106 28.8852 84.8331 28.5496 83.7017 27.8786C82.5705 27.1859 81.6783 26.2445 81.0255 25.054C80.3945 23.8634 80.0791 22.5323 80.0791 21.0603C80.0791 19.5885 80.3945 18.2681 81.0255 17.0992C81.6783 15.9303 82.5705 15.0104 83.7017 14.3394C84.8331 13.6467 86.106 13.3004 87.5202 13.3004C88.6953 13.3004 89.7286 13.5277 90.6208 13.9822C91.5347 14.4368 92.2526 15.0645 92.7748 15.8654C93.297 16.6446 93.5799 17.5646 93.6234 18.6252V23.5604C93.5799 24.5994 93.2861 25.5301 92.7423 26.3527C92.22 27.1535 91.5021 27.7812 90.5883 28.2359C89.6961 28.6688 88.6736 28.8852 87.5202 28.8852ZM88.3688 25.0214C89.1522 25.0214 89.8265 24.8591 90.3924 24.5344C90.9799 24.1881 91.4368 23.7227 91.7631 23.1383C92.0894 22.5323 92.2526 21.8505 92.2526 21.0928C92.2526 20.3135 92.0894 19.6318 91.7631 19.0473C91.4368 18.4629 90.9799 18.0083 90.3924 17.6836C89.8265 17.3373 89.1522 17.1641 88.3688 17.1641C87.5855 17.1641 86.9002 17.3373 86.3126 17.6836C85.7253 18.0083 85.2684 18.4737 84.9419 19.0798C84.6156 19.6642 84.4524 20.3352 84.4524 21.0928C84.4524 21.8286 84.6156 22.4999 84.9419 23.1059C85.2684 23.6903 85.7253 24.1557 86.3126 24.502C86.9002 24.8484 87.5855 25.0214 88.3688 25.0214Z" fill="black"/>
</g>
</g>
<path fill-rule="evenodd" clip-rule="evenodd" d="M22.5873 7.05934C21.6257 8.28601 21.0524 9.83208 21.0524 11.5122C21.0524 15.4994 24.2815 18.7317 28.2649 18.7317C29.4277 18.7317 30.5263 18.4563 31.499 17.967C31.5517 18.4423 31.5788 18.9253 31.5788 19.4146C31.5788 20.6014 31.4195 21.751 31.1214 22.8433C28.2443 25.6162 23.5047 27.1022 18.6819 27.1218C13.5535 27.1424 8.62348 25.505 5.98342 22.3391C5.76712 21.3992 5.65283 20.4203 5.65283 19.4146C5.65283 18.9253 5.67989 18.4423 5.7326 17.967C6.70531 18.4563 7.80385 18.7317 8.96667 18.7317C12.95 18.7317 16.1791 15.4994 16.1791 11.5122C16.1791 9.83208 15.6058 8.28601 14.6443 7.05934C15.8959 6.65655 17.2305 6.43903 18.6158 6.43903C20.0012 6.43903 21.3357 6.65655 22.5873 7.05934ZM24.3051 7.75222C23.3764 8.73169 22.8068 10.0554 22.8068 11.5122C22.8068 14.5296 25.2505 16.9756 28.2649 16.9756C29.3296 16.9756 30.3232 16.6704 31.1632 16.1426C30.2047 12.4497 27.6622 9.39618 24.3051 7.75222ZM12.9266 7.75222C9.56946 9.39618 7.02691 12.4497 6.06848 16.1426C6.90829 16.6704 7.90188 16.9756 8.96667 16.9756C11.9811 16.9756 14.4248 14.5296 14.4248 11.5122C14.4248 10.0554 13.8551 8.73169 12.9266 7.75222ZM18.6882 28.6827C22.6944 28.6665 26.7961 27.6909 29.9509 25.7147C27.7374 29.6964 23.4908 32.3902 18.6158 32.3902C13.6544 32.3902 9.344 29.6002 7.16505 25.5022C10.2818 27.6779 14.5214 28.6995 18.6882 28.6827ZM16.4715 21.8537C16.956 21.8537 17.3487 21.4605 17.3487 20.9756C17.3487 20.4907 16.956 20.0976 16.4715 20.0976C15.9871 20.0976 15.5944 20.4907 15.5944 20.9756C15.5944 21.4605 15.9871 21.8537 16.4715 21.8537ZM20.76 21.8537C21.2445 21.8537 21.6372 21.4605 21.6372 20.9756C21.6372 20.4907 21.2445 20.0976 20.76 20.0976C20.2756 20.0976 19.8829 20.4907 19.8829 20.9756C19.8829 21.4605 20.2756 21.8537 20.76 21.8537Z" fill="black"/>
<path d="M3.50879 11.5122C3.50879 8.49482 5.95245 6.04877 8.96688 6.04877C11.9813 6.04877 14.425 8.49482 14.425 11.5122C14.425 14.5295 11.9813 16.9756 8.96688 16.9756C5.95245 16.9756 3.50879 14.5295 3.50879 11.5122Z" fill="black"/>
<path d="M6.23779 11.5122C6.23779 10.0035 7.45963 8.78052 8.96684 8.78052C10.474 8.78052 11.6959 10.0035 11.6959 11.5122C11.6959 13.0209 10.474 14.2439 8.96684 14.2439C7.45963 14.2439 6.23779 13.0209 6.23779 11.5122Z" fill="white"/>
<path d="M22.8071 11.5122C22.8071 8.49482 25.2508 6.04877 28.2652 6.04877C31.2796 6.04877 33.7233 8.49482 33.7233 11.5122C33.7233 14.5295 31.2796 16.9756 28.2652 16.9756C25.2508 16.9756 22.8071 14.5295 22.8071 11.5122Z" fill="black"/>
<path d="M25.5361 11.5122C25.5361 10.0035 26.758 8.78052 28.2652 8.78052C29.7724 8.78052 30.9942 10.0035 30.9942 11.5122C30.9942 13.0209 29.7724 14.2439 28.2652 14.2439C26.758 14.2439 25.5361 13.0209 25.5361 11.5122Z" fill="white"/>
</svg>
