<svg width="16" height="16" viewBox="0 0 16 16" fill="none" xmlns="http://www.w3.org/2000/svg">
<path fill-rule="evenodd" clip-rule="evenodd" d="M3 3C3 1.34315 4.34315 0 6 0C6.76836 0 7.46924 0.288854 8 0.763896C8.53076 0.288854 9.23164 0 10 0C11.6569 0 13 1.34315 13 3C13 3.35064 12.9398 3.68722 12.8293 4H14C15.1046 4 16 4.89543 16 6C16 7.10457 15.1046 8 14 8H9V7C9 6.44772 8.55228 6 8 6C7.44772 6 7 6.44771 7 7V8H2C0.895431 8 0 7.10457 0 6C0 4.89543 0.895431 4 2 4H3.17071C3.06015 3.68722 3 3.35064 3 3ZM7 4V3C7 2.44772 6.55228 2 6 2C5.44772 2 5 2.44772 5 3C5 3.55228 5.44772 4 6 4H7ZM10 4C10.5523 4 11 3.55228 11 3C11 2.44772 10.5523 2 10 2C9.44772 2 9 2.44772 9 3V4H10Z" fill="#EF4444"/>
<path d="M7 9H1V14C1 15.1046 1.89543 16 3 16H7V9Z" fill="#EF4444"/>
<path d="M9 16H13C14.1046 16 15 15.1046 15 14V9H9V16Z" fill="#EF4444"/>
</svg>
