<svg width="158" height="36" viewBox="0 0 158 36" fill="none" xmlns="http://www.w3.org/2000/svg">
<path d="M60.7003 17.488H67.4304C67.4304 18.1765 67.396 18.8134 67.3444 19.3814C67.2927 19.9494 67.1722 20.4658 67.0001 20.9477C66.7591 21.6362 66.4321 22.2387 66.019 22.7723C65.6059 23.2886 65.1067 23.7362 64.5559 24.0804C64.0051 24.4247 63.3855 24.7001 62.7142 24.8722C62.0429 25.0615 61.3372 25.1476 60.5971 25.1476C59.5815 25.1476 58.652 24.9755 57.8086 24.6484C56.9824 24.3214 56.2595 23.8394 55.6571 23.2542C55.0546 22.6346 54.5899 21.9116 54.2628 21.0682C53.9358 20.2076 53.7637 19.2781 53.7637 18.2454C53.7637 17.2298 53.9186 16.3004 54.2456 15.4569C54.5727 14.5963 55.0546 13.8734 55.6398 13.2709C56.2595 12.6685 56.9824 12.2038 57.843 11.8767C58.7037 11.5497 59.6504 11.3776 60.7003 11.3776C62.0601 11.3776 63.2478 11.6702 64.2805 12.2554C65.3133 12.8406 66.1223 13.7529 66.7247 14.9922L63.506 16.3176C63.2134 15.5946 62.8175 15.0955 62.3355 14.7856C61.8708 14.4758 61.32 14.3209 60.7175 14.3209C60.2184 14.3209 59.7536 14.4242 59.3405 14.6135C58.9274 14.8029 58.566 15.061 58.2734 15.4225C57.9807 15.7668 57.757 16.1971 57.5849 16.679C57.4299 17.1782 57.3439 17.729 57.3439 18.3314C57.3439 18.8822 57.4127 19.3986 57.5504 19.8633C57.7053 20.3281 57.9119 20.7412 58.2045 21.0854C58.4971 21.4297 58.8586 21.7051 59.2717 21.8944C59.702 22.0838 60.2012 22.1698 60.752 22.1698C61.079 22.1698 61.406 22.1354 61.7159 22.0666C62.0257 21.9805 62.3011 21.86 62.5421 21.7051C62.8003 21.533 63.0068 21.3092 63.1617 21.051C63.3166 20.7928 63.4371 20.4658 63.4888 20.0871H60.7003V17.488ZM84.161 14.4758V25.1476H80.5464V14.4758H77.6203V11.3776H87.0872V14.4758H84.161ZM99.6523 16.0938C98.8605 15.1299 97.8966 14.6479 96.7434 14.6479C96.227 14.6479 95.7623 14.734 95.3147 14.9233C94.8844 15.1127 94.523 15.3709 94.1959 15.6807C93.8861 15.9905 93.6279 16.3692 93.4558 16.8167C93.2837 17.2643 93.1976 17.729 93.1976 18.2454C93.1976 18.7617 93.2837 19.2437 93.4558 19.6912C93.6451 20.1387 93.8861 20.5174 94.1959 20.8445C94.523 21.1715 94.9016 21.4297 95.332 21.6018C95.7623 21.7912 96.227 21.8772 96.7262 21.8772C97.8106 21.8772 98.7917 21.4125 99.6523 20.483V24.5107L99.3081 24.6312C98.7917 24.8206 98.3097 24.941 97.845 25.0271C97.3975 25.1132 96.9499 25.1648 96.5024 25.1648C95.6074 25.1648 94.7295 24.9927 93.9033 24.6656C93.0771 24.3214 92.3542 23.8394 91.7173 23.2198C91.0977 22.6001 90.5813 21.86 90.2026 21.0166C89.8239 20.156 89.6346 19.2265 89.6346 18.2282C89.6346 17.2298 89.8239 16.3004 90.1854 15.4741C90.5641 14.6307 91.0632 13.9078 91.7001 13.3054C92.337 12.6857 93.0771 12.221 93.9033 11.8767C94.7295 11.5325 95.6074 11.3604 96.5196 11.3604C97.036 11.3604 97.5524 11.412 98.0515 11.5325C98.5679 11.6358 99.1015 11.8079 99.6523 12.0316V16.0938ZM106.744 18.2626C106.744 18.779 106.847 19.2609 107.036 19.7084C107.226 20.156 107.501 20.5346 107.828 20.8617C108.155 21.1887 108.551 21.4469 108.999 21.619C109.446 21.7912 109.928 21.8772 110.427 21.8772C110.927 21.8772 111.391 21.7912 111.839 21.619C112.286 21.4297 112.682 21.1715 113.026 20.8617C113.371 20.5346 113.646 20.156 113.835 19.7084C114.025 19.2609 114.128 18.7962 114.128 18.2626C114.128 17.729 114.025 17.2643 113.835 16.8167C113.646 16.3692 113.371 15.9905 113.026 15.6635C112.699 15.3364 112.304 15.0955 111.839 14.9233C111.391 14.734 110.927 14.6479 110.427 14.6479C109.928 14.6479 109.463 14.734 108.999 14.9233C108.551 15.0955 108.173 15.3537 107.828 15.6635C107.501 15.9905 107.226 16.3692 107.036 16.8167C106.847 17.2643 106.744 17.7462 106.744 18.2626ZM103.198 18.2626C103.198 17.2987 103.37 16.3864 103.732 15.5602C104.093 14.7168 104.592 13.9767 105.229 13.357C105.866 12.7374 106.623 12.2382 107.501 11.8939C108.396 11.5325 109.377 11.3604 110.427 11.3604C111.477 11.3604 112.458 11.5325 113.336 11.8939C114.231 12.2382 114.989 12.7201 115.626 13.357C116.28 13.9767 116.779 14.7168 117.14 15.5602C117.502 16.3864 117.674 17.2987 117.674 18.2626C117.674 19.2265 117.502 20.1387 117.14 20.9822C116.779 21.8084 116.28 22.5485 115.626 23.1682C114.989 23.7878 114.231 24.287 113.336 24.6484C112.441 24.9927 111.477 25.1648 110.427 25.1648C109.36 25.1648 108.379 24.9927 107.501 24.6484C106.623 24.287 105.866 23.805 105.229 23.1682C104.592 22.5485 104.093 21.8084 103.732 20.9822C103.37 20.1387 103.198 19.2437 103.198 18.2626ZM124.783 11.3776V25.1476H121.168V11.3776H124.783ZM74.1777 11.3776V25.1476H70.5631V11.3776H74.1777ZM128.569 25.1476V11.3776H132.012L138.725 19.7945V11.3776H142.339V25.1476H138.862L132.184 16.7307V25.1476H128.569Z" fill="black"/>
<path fill-rule="evenodd" clip-rule="evenodd" d="M40.9863 27L39.0838 25.245C40.485 23.869 41.2564 22.055 41.2564 20.138C41.2582 18.9715 40.9694 17.823 40.4163 16.797C40.0265 16.0772 39.5203 15.4274 38.9184 14.874L37.9258 13.956L38.9901 13L39.897 13.915L40.7641 13.065C42.7891 14.938 43.9053 17.45 43.9053 20.138C43.9053 22.714 42.8689 25.151 40.9863 27Z" fill="#0FCE7C" stroke="#0FCE7C" stroke-width="0.149573"/>
<path d="M40.9237 33.1398H31.7451C24.6165 33.1398 18.8154 27.2448 18.8154 19.9998C18.8154 12.7538 24.6155 6.85976 31.7471 6.85976C34.707 6.85976 37.5154 7.86376 39.7956 9.71276L33.4951 15.6288C32.9409 15.3984 32.347 15.2799 31.7471 15.2798C29.1859 15.2798 27.103 17.3978 27.103 19.9998C27.103 22.6018 29.1859 24.7198 31.7471 24.7198C32.1917 24.7194 32.6339 24.6541 33.0596 24.5258L40.9247 30.5418V33.1398H40.9237ZM31.7451 21.8598C30.7366 21.8598 29.9154 21.0248 29.9154 19.9998C29.9154 18.9738 30.7366 18.1398 31.7461 18.1398C32.7547 18.1398 33.5759 18.9738 33.5759 19.9998C33.5759 21.0248 32.7547 21.8598 31.7461 21.8598H31.7451ZM36.3902 19.9998C36.3902 19.0738 36.1251 18.2098 35.6697 17.4798L39.4269 13.9508L39.4587 13.9848L43.9045 9.72776L42.88 8.68676C39.9062 5.66376 35.9517 3.99976 31.7461 3.99976C23.0638 3.99976 16 11.1778 16 19.9998C16 28.7348 22.9263 35.8538 31.49 35.9928V35.9998H43.7381V29.1148L35.4814 22.7998C36.0733 21.9871 36.3917 21.0063 36.3902 19.9998Z" fill="black"/>
<path fill-rule="evenodd" clip-rule="evenodd" d="M31.7552 21.7888C32.779 21.7888 33.6089 20.9589 33.6089 19.9352C33.6089 18.9114 32.779 18.0815 31.7552 18.0815C30.7315 18.0815 29.9016 18.9114 29.9016 19.9352C29.9016 20.9589 30.7315 21.7888 31.7552 21.7888ZM31.7552 24.5693C34.3146 24.5693 36.3894 22.4945 36.3894 19.9352C36.3894 17.3758 34.3146 15.301 31.7552 15.301C29.1959 15.301 27.1211 17.3758 27.1211 19.9352C27.1211 22.4945 29.1959 24.5693 31.7552 24.5693Z" fill="black"/>
<path d="M46.8936 3L45.897 4L44.9004 3L45.897 2L46.8936 3Z" fill="#25E899"/>
<path d="M38.9229 3L37.9263 4L36.9297 3L37.9263 2L38.9229 3Z" fill="#25E899"/>
<path d="M26.9634 14C26.4133 14 25.9668 13.504 25.9668 12.892V1.108C25.9668 0.496 26.4133 0 26.9634 0C27.5135 0 27.96 0.496 27.96 1.108V12.892C27.96 13.504 27.5135 14 26.9634 14Z" fill="black"/>
<path d="M32.8325 11.4309C32.2824 11.4309 31.8359 11.0259 31.8359 10.5262V0.904674C31.8359 0.40498 32.2824 0 32.8325 0C33.3826 0 33.8291 0.40498 33.8291 0.904674V10.5262C33.8291 11.0259 33.3826 11.4309 32.8325 11.4309Z" fill="black"/>
</svg>
