<svg width="141" height="40" viewBox="0 0 141 40" fill="none" xmlns="http://www.w3.org/2000/svg">
<path d="M50.0343 19.4311H57.4921C57.4921 20.1961 57.454 20.9037 57.3967 21.5348C57.3395 22.166 57.206 22.7397 57.0153 23.2752C56.7482 24.0402 56.3858 24.7096 55.9281 25.3025C55.4703 25.8762 54.9172 26.3735 54.3068 26.756C53.6965 27.1385 53.0098 27.4445 52.2659 27.6357C51.5221 27.8461 50.74 27.9417 49.9199 27.9417C48.7945 27.9417 47.7646 27.7505 46.83 27.3871C45.9144 27.0237 45.1133 26.4882 44.4458 25.838C43.7782 25.1495 43.2632 24.3462 42.9008 23.4091C42.5384 22.4528 42.3477 21.4201 42.3477 20.2726C42.3477 19.1442 42.5193 18.1114 42.8817 17.1743C43.2441 16.2181 43.7782 15.4148 44.4267 14.7454C45.1133 14.0761 45.9144 13.5597 46.8681 13.1963C47.8218 12.8329 48.8708 12.6417 50.0343 12.6417C51.5411 12.6417 52.8572 12.9668 54.0016 13.6171C55.1461 14.2673 56.0425 15.2809 56.7101 16.6579L53.1433 18.1306C52.8191 17.3273 52.3804 16.7727 51.8463 16.4284C51.3313 16.0842 50.721 15.9121 50.0534 15.9121C49.5003 15.9121 48.9853 16.0268 48.5275 16.2372C48.0697 16.4476 47.6692 16.7344 47.3449 17.1361C47.0207 17.5186 46.7727 17.9967 46.582 18.5322C46.4103 19.0868 46.315 19.6988 46.315 20.3682C46.315 20.9802 46.3913 21.554 46.5439 22.0703C46.7155 22.5867 46.9444 23.0457 47.2687 23.4282C47.5929 23.8107 47.9934 24.1167 48.4512 24.3271C48.9281 24.5375 49.4812 24.6331 50.0915 24.6331C50.4539 24.6331 50.8163 24.5948 51.1597 24.5183C51.503 24.4227 51.8082 24.2888 52.0752 24.1167C52.3613 23.9255 52.5902 23.6768 52.7618 23.39C52.9335 23.1031 53.067 22.7397 53.1242 22.319H50.0343V19.4311ZM76.0317 16.0842V27.9417H72.0262V16.0842H68.7837V12.6417H79.2742V16.0842H76.0317ZM93.1979 17.8819C92.3205 16.8109 91.2524 16.2754 89.9745 16.2754C89.4023 16.2754 88.8873 16.3711 88.3914 16.5814C87.9145 16.7918 87.514 17.0787 87.1516 17.4229C86.8082 17.7672 86.5221 18.1879 86.3314 18.6852C86.1407 19.1825 86.0453 19.6988 86.0453 20.2726C86.0453 20.8463 86.1407 21.3818 86.3314 21.8791C86.5412 22.3763 86.8082 22.7971 87.1516 23.1605C87.514 23.5238 87.9336 23.8107 88.4104 24.002C88.8873 24.2123 89.4023 24.308 89.9554 24.308C91.157 24.308 92.2442 23.7916 93.1979 22.7588V27.2341L92.8164 27.368C92.2442 27.5783 91.7102 27.7122 91.1952 27.8078C90.6993 27.9035 90.2034 27.9608 89.7074 27.9608C88.7156 27.9608 87.7429 27.7696 86.8273 27.4062C85.9118 27.0237 85.1107 26.4882 84.405 25.7997C83.7183 25.1112 83.1461 24.2888 82.7265 23.3517C82.3069 22.3955 82.0971 21.3627 82.0971 20.2535C82.0971 19.1442 82.3069 18.1114 82.7074 17.1934C83.127 16.2563 83.6802 15.4531 84.3859 14.7837C85.0916 14.0952 85.9118 13.5788 86.8273 13.1963C87.7429 12.8138 88.7156 12.6226 89.7265 12.6226C90.2987 12.6226 90.8709 12.6799 91.4241 12.8138C91.9963 12.9286 92.5876 13.1198 93.1979 13.3684V17.8819ZM101.056 20.2917C101.056 20.8655 101.171 21.401 101.38 21.8982C101.59 22.3955 101.895 22.8162 102.258 23.1796C102.62 23.543 103.059 23.8298 103.555 24.0211C104.051 24.2123 104.585 24.308 105.138 24.308C105.691 24.308 106.206 24.2123 106.702 24.0211C107.198 23.8107 107.637 23.5238 108.018 23.1796C108.4 22.8162 108.705 22.3955 108.915 21.8982C109.124 21.401 109.239 20.8846 109.239 20.2917C109.239 19.6988 109.124 19.1825 108.915 18.6852C108.705 18.1879 108.4 17.7672 108.018 17.4038C107.656 17.0404 107.217 16.7727 106.702 16.5814C106.206 16.3711 105.691 16.2754 105.138 16.2754C104.585 16.2754 104.07 16.3711 103.555 16.5814C103.059 16.7727 102.639 17.0596 102.258 17.4038C101.895 17.7672 101.59 18.1879 101.38 18.6852C101.171 19.1825 101.056 19.718 101.056 20.2917ZM97.1271 20.2917C97.1271 19.2207 97.3178 18.2071 97.7184 17.2891C98.1189 16.3519 98.672 15.5296 99.3778 14.8411C100.083 14.1526 100.923 13.5979 101.895 13.2154C102.887 12.8138 103.974 12.6226 105.138 12.6226C106.301 12.6226 107.389 12.8138 108.361 13.2154C109.353 13.5979 110.192 14.1334 110.898 14.8411C111.623 15.5296 112.176 16.3519 112.577 17.2891C112.977 18.2071 113.168 19.2207 113.168 20.2917C113.168 21.3627 112.977 22.3763 112.577 23.3135C112.176 24.2315 111.623 25.0538 110.898 25.7423C110.192 26.4308 109.353 26.9855 108.361 27.3871C107.37 27.7696 106.301 27.9608 105.138 27.9608C103.955 27.9608 102.868 27.7696 101.895 27.3871C100.923 26.9855 100.083 26.45 99.3778 25.7423C98.672 25.0538 98.1189 24.2315 97.7184 23.3135C97.3178 22.3763 97.1271 21.3818 97.1271 20.2917ZM121.045 12.6417V27.9417H117.04V12.6417H121.045ZM64.969 12.6417V27.9417H60.9635V12.6417H64.969ZM125.242 27.9417V12.6417H129.056L136.495 21.9938V12.6417H140.5V27.9417H136.648L129.247 18.5896V27.9417H125.242Z" fill="black"/>
<path fill-rule="evenodd" clip-rule="evenodd" d="M28.1864 29.9999L26.0782 28.0499C27.6309 26.521 28.4856 24.5054 28.4856 22.3754C28.4876 21.0793 28.1676 19.8032 27.5547 18.6632C27.1228 17.8635 26.5619 17.1414 25.8949 16.5266L24.7949 15.5066L25.9744 14.4443L26.9793 15.461L27.9401 14.5166C30.1841 16.5977 31.421 19.3888 31.421 22.3754C31.421 25.2377 30.2725 27.9454 28.1864 29.9999Z" fill="#0FCE7C" stroke="#0FCE7C" stroke-width="0.149573"/>
<path d="M28.1186 36.8221H17.9475C10.0482 36.8221 3.61977 30.2721 3.61977 22.2221C3.61977 14.171 10.0471 7.62211 17.9498 7.62211C21.2297 7.62211 24.3417 8.73767 26.8684 10.7921L19.8868 17.3654C19.2726 17.1095 18.6145 16.9778 17.9498 16.9777C15.1116 16.9777 12.8035 19.331 12.8035 22.2221C12.8035 25.1132 15.1116 27.4666 17.9498 27.4666C18.4424 27.4662 18.9324 27.3936 19.4042 27.251L28.1197 33.9354V36.8221H28.1186ZM17.9475 24.2888C16.8299 24.2888 15.92 23.361 15.92 22.2221C15.92 21.0821 16.8299 20.1554 17.9486 20.1554C19.0662 20.1554 19.9762 21.0821 19.9762 22.2221C19.9762 23.361 19.0662 24.2888 17.9486 24.2888H17.9475ZM23.0949 22.2221C23.0949 21.1932 22.8011 20.2332 22.2965 19.4221L26.4598 15.501L26.4952 15.5388L31.4217 10.8088L30.2864 9.65211C26.991 6.29322 22.609 4.44434 17.9486 4.44434C8.3276 4.44434 0.5 12.4199 0.5 22.2221C0.5 31.9277 8.1752 39.8377 17.6648 39.9921V39.9999H31.2372V32.3499L22.0877 25.3332C22.7437 24.4303 23.0965 23.3405 23.0949 22.2221Z" fill="black"/>
<path fill-rule="evenodd" clip-rule="evenodd" d="M17.9594 24.2096C19.0939 24.2096 20.0135 23.2875 20.0135 22.15C20.0135 21.0125 19.0939 20.0904 17.9594 20.0904C16.825 20.0904 15.9053 21.0125 15.9053 22.15C15.9053 23.2875 16.825 24.2096 17.9594 24.2096ZM17.9594 27.2991C20.7955 27.2991 23.0946 24.9938 23.0946 22.15C23.0946 19.3063 20.7955 17.001 17.9594 17.001C15.1233 17.001 12.8242 19.3063 12.8242 22.15C12.8242 24.9938 15.1233 27.2991 17.9594 27.2991Z" fill="black"/>
<path d="M34.7341 3.33328L33.6297 4.44439L32.5254 3.33328L33.6297 2.22217L34.7341 3.33328Z" fill="#25E899"/>
<path d="M25.9001 3.33328L24.7958 4.44439L23.6914 3.33328L24.7958 2.22217L25.9001 3.33328Z" fill="#25E899"/>
<path d="M12.6493 15.5556C12.0397 15.5556 11.5449 15.0044 11.5449 14.3244V1.23111C11.5449 0.551111 12.0397 0 12.6493 0C13.2589 0 13.7536 0.551111 13.7536 1.23111V14.3244C13.7536 15.0044 13.2589 15.5556 12.6493 15.5556Z" fill="black"/>
<path d="M19.1532 12.701C18.5436 12.701 18.0488 12.251 18.0488 11.6958V1.00519C18.0488 0.449978 18.5436 0 19.1532 0C19.7628 0 20.2575 0.449978 20.2575 1.00519V11.6958C20.2575 12.251 19.7628 12.701 19.1532 12.701Z" fill="black"/>
</svg>
