<svg width="23" height="22" viewBox="0 0 23 22" fill="none" xmlns="http://www.w3.org/2000/svg">
<path fill-rule="evenodd" clip-rule="evenodd" d="M11.5056 0.199952C8.93993 0.199077 6.45778 1.13446 4.50348 2.83864C2.54919 4.54282 1.25037 6.90451 0.839576 9.50088C0.428786 12.0972 0.93284 14.7587 2.2615 17.0088C3.59015 19.259 5.65665 20.9509 8.09099 21.7814C8.62759 21.884 8.82794 21.5411 8.82794 21.2496C8.82794 20.9855 8.81898 20.1126 8.81361 19.1866C5.80865 19.8578 5.17546 17.881 5.17546 17.881C4.68358 16.5973 3.97529 16.2599 3.97529 16.2599C2.9951 15.5723 4.05039 15.5869 4.05039 15.5869C5.13433 15.6658 5.70491 16.7275 5.70491 16.7275C6.669 18.4219 8.23231 17.9323 8.8494 17.6444C8.94599 16.9293 9.225 16.4415 9.53444 16.1646C7.13584 15.884 4.61382 14.9341 4.61382 10.6908C4.59776 9.5907 4.99628 8.52659 5.72637 7.72016C5.61369 7.4396 5.24345 6.31367 5.83013 4.78616C5.83013 4.78616 6.73697 4.48909 8.80109 5.92125C10.5722 5.42491 12.4407 5.42491 14.2118 5.92125C16.2723 4.48909 17.1792 4.78616 17.1792 4.78616C17.7659 6.31184 17.3974 7.43776 17.2847 7.72016C18.0142 8.52688 18.4121 9.59093 18.3955 10.6908C18.3955 14.9451 15.8699 15.8822 13.4641 16.1554C13.8523 16.4983 14.1975 17.1731 14.1975 18.2055C14.1975 19.6872 14.185 20.881 14.185 21.2459C14.185 21.5393 14.3782 21.8859 14.9255 21.7759C17.3563 20.9421 19.4188 19.2493 20.744 17C22.0694 14.7507 22.5715 12.0915 22.1603 9.49771C21.7493 6.90388 20.4518 4.54447 18.4998 2.84116C16.5479 1.13786 14.0688 0.201683 11.5056 0.199952Z" fill="white"/>
</svg>
