<svg width="98" height="26" viewBox="0 0 98 26" fill="none" xmlns="http://www.w3.org/2000/svg">
<g clip-path="url(#clip0_345_226)">
<path d="M35.1852 25.5884L18.0212 0.588381L0.804688 25.5884H24.7912L18.0212 16.0471L14.6629 21.0047H11.0938L18.0235 11.037L28.0412 25.5896L35.1852 25.5884Z" fill="url(#paint0_linear_345_226)"/>
<path d="M49.563 12.9206C49.3673 12.9206 49.2835 13.0045 49.2835 13.2002V14.8776C49.2835 15.0733 49.3673 15.1572 49.563 15.1572H55.1264V18.0972C54.5203 19.0263 53.6776 19.7772 52.6851 20.2727C51.6926 20.7681 50.586 20.9902 49.4792 20.9162C45.3137 20.9162 42.7417 18.237 42.7417 13.0884C42.7417 7.97236 45.761 5.26059 49.1996 5.26059C51.8788 5.26059 54.064 6.32294 54.7629 8.89492C54.7746 8.97464 54.8153 9.04724 54.8772 9.09883C54.9391 9.15041 55.0179 9.17735 55.0984 9.17449H56.883C57.0786 9.17449 57.1905 9.09062 57.1905 8.89492C56.4356 4.98103 53.0809 3.02408 49.1949 3.02408C44.8337 3.02408 40.2769 6.37885 40.2769 13.0884C40.2769 19.714 44.5868 23.1527 49.5863 23.1527C51.0941 23.1985 52.5878 22.8515 53.921 22.1458C55.2541 21.44 56.3808 20.3997 57.1905 19.127C57.3905 18.81 57.4881 18.439 57.47 18.0646V13.2049C57.47 13.0092 57.3862 12.9253 57.1905 12.9253L49.563 12.9206ZM78.5818 3.58321C78.5818 3.38752 78.4979 3.30365 78.3022 3.30365H75.6463C75.5514 3.29412 75.4559 3.31641 75.3749 3.36701C75.294 3.41761 75.2321 3.49365 75.199 3.58321L69.7755 16.0238L64.352 3.58321C64.3189 3.49365 64.257 3.41761 64.1761 3.36701C64.0951 3.31641 63.9997 3.29412 63.9047 3.30365H61.2488C61.0531 3.30365 60.9692 3.38752 60.9692 3.58321V22.5936C60.9692 22.7892 61.0531 22.8731 61.2488 22.8731H63.038C63.2337 22.8731 63.3176 22.7892 63.3176 22.5936V6.96593L68.7924 19.3506C68.8198 19.4248 68.8694 19.4887 68.9345 19.5337C68.9995 19.5787 69.0767 19.6026 69.1558 19.6022H70.3952C70.4743 19.6026 70.5515 19.5787 70.6166 19.5337C70.6816 19.4887 70.7312 19.4248 70.7586 19.3506L76.2334 6.96593V22.5936C76.2334 22.7892 76.3173 22.8731 76.513 22.8731H78.3022C78.4979 22.8731 78.5818 22.7892 78.5818 22.5936V3.58321ZM84.6763 3.58321C84.4806 3.3316 84.4806 3.30365 84.2849 3.30365H82.1322C81.9365 3.30365 81.8527 3.44343 81.9365 3.58321L87.8633 12.5526L81.2097 22.5936C81.1258 22.7333 81.2097 22.8731 81.4054 22.8731H83.5021C83.6978 22.8731 83.7537 22.8452 83.9494 22.5936L89.2658 14.6027L94.5728 22.5936C94.7685 22.8452 94.8244 22.8731 95.0201 22.8731H97.1169C97.3125 22.8731 97.3964 22.7333 97.3125 22.5936L90.6636 12.5572L96.5903 3.58787C96.6742 3.44809 96.5903 3.30831 96.3946 3.30831H94.2373C94.0417 3.30831 94.0416 3.33626 93.846 3.58787L89.2658 10.4884L84.6763 3.58321Z" fill="black"/>
</g>
<defs>
<linearGradient id="paint0_linear_345_226" x1="19.2327" y1="1.23841" x2="8.55519" y2="28.4793" gradientUnits="userSpaceOnUse">
<stop stop-color="#03D1CF" stop-opacity="0.988"/>
<stop offset="1" stop-color="#4E09F8"/>
</linearGradient>
<clipPath id="clip0_345_226">
<rect width="96.5404" height="25" fill="white" transform="translate(0.804688 0.588381)"/>
</clipPath>
</defs>
</svg>
