<svg width="16" height="16" viewBox="0 0 16 16" fill="none" xmlns="http://www.w3.org/2000/svg">
  <g fill="#EF4444">
    <path d="M4,6 C5.1045695,6 6,6.8954305 6,8 C6,9.1045695 5.1045695,10 4,10 C2.8954305,10 2,9.1045695 2,8 C2,6.8954305 2.8954305,6 4,6 Z M12,6 C13.1045695,6 14,6.8954305 14,8 C14,9.1045695 13.1045695,10 12,10 C10.8954305,10 10,9.1045695 10,8 C10,6.8954305 10.8954305,6 12,6 Z M8,2 C9.1045695,2 10,2.8954305 10,4 C10,5.1045695 9.1045695,6 8,6 C6.8954305,6 6,5.1045695 6,4 C6,2.8954305 6.8954305,2 8,2 Z"/>
    <path d="M1,14 L3,12 H5 C5.55228475,12 6,12.4477153 6,13 C6,13.5522847 5.55228475,14 5,14 H2 C1.44771525,14 1,13.5522847 1,13 V14 Z" />
    <path d="M11,14 L13,12 H15 C15.5522847,14 15,12.4477153 15,13 C15,13.5522847 15.5522847,14 15,14 H12 C11.4477153,14 11,13.5522847 11,13 V14 Z" />
  </g>
</svg>