<svg width="192" height="40" viewBox="0 0 192 40" fill="none" xmlns="http://www.w3.org/2000/svg">
<g clip-path="url(#clip0_146_126)">
<path d="M10.1608 30.063L0 40V0L10.1608 9.937V30.063Z" fill="black"/>
<path d="M27.1611 30.063L37.3219 40V0L27.1611 9.937V30.063Z" fill="black"/>
<path d="M57.3579 9.93701H61.9672V17.5722H69.7472V9.93701H74.3584V30.1044H69.7491V22.3263H61.9691V30.1044H57.3579V9.93701Z" fill="black"/>
<path d="M81.2241 20.0206C81.2241 13.9407 85.5664 9.64734 91.0201 9.64734C96.4738 9.64734 100.816 13.9407 100.816 20.0206C100.816 26.1006 96.4738 30.392 91.0201 30.392C85.5664 30.392 81.2241 26.0987 81.2241 20.0206V20.0206ZM96.2048 20.0206C96.2048 16.4193 93.9011 14.1137 91.0201 14.1137C88.139 14.1137 85.8334 16.4193 85.8334 20.0206C85.8334 23.622 88.139 25.9275 91.0201 25.9275C93.9011 25.9275 96.2048 23.622 96.2048 20.0206V20.0206Z" fill="black"/>
<path d="M107.695 9.93701H112.305V25.638H121.38V30.1044H107.695V9.93701Z" fill="black"/>
<path d="M129.316 9.93701H136.807C142.26 9.93701 146.603 14.2624 146.603 20.0207C146.603 25.779 142.253 30.1044 136.807 30.1044H129.316V9.93701ZM136.807 25.638C139.69 25.638 141.993 23.3343 141.993 20.0207C141.993 16.7071 139.69 14.4015 136.807 14.4015H133.926V25.638H136.807Z" fill="black"/>
<path d="M153.871 9.93701H167.701V14.1138H158.486V18.0028H167.137V22.0367H158.486V25.9276H167.701V30.1044H153.871V9.93701Z" fill="black"/>
<path d="M175.577 9.93701H185.083C188.974 9.93701 191.71 12.6733 191.71 16.8519C191.71 19.9925 190.298 21.5534 188.889 22.4109C188.034 22.913 187.082 23.229 186.095 23.3343L192.289 30.1044H186.525L180.761 23.622H180.186V30.1044H175.577V9.93701V9.93701ZM184.792 19.4434C186.089 19.4434 187.097 18.4636 187.097 16.8519C187.097 15.2403 186.089 14.2586 184.792 14.2586H180.186V19.4434H184.792V19.4434Z" fill="black"/>
</g>
<defs>
<clipPath id="clip0_146_126">
<rect width="192" height="40" fill="white"/>
</clipPath>
</defs>
</svg>
