<svg width="63" height="60" viewBox="0 0 63 60" fill="none" xmlns="http://www.w3.org/2000/svg">
<path d="M5.92756 47.554C4.52131 47.554 3.31392 47.0568 2.3054 46.0625C1.31108 45.054 0.813919 43.8466 0.813919 42.4403C0.813919 41.0483 1.31108 39.8551 2.3054 38.8608C3.31392 37.8665 4.52131 37.3693 5.92756 37.3693C7.29119 37.3693 8.48437 37.8665 9.5071 38.8608C10.5298 39.8551 11.0412 41.0483 11.0412 42.4403C11.0412 43.3778 10.7997 44.2372 10.3168 45.0185C9.84801 45.7855 9.23011 46.4034 8.46307 46.8722C7.69602 47.3267 6.85085 47.554 5.92756 47.554Z" fill="url(#paint0_linear_1434_21610)"/>
<path d="M18.4933 14.2727H27.57V48.6193C27.57 51.1477 27.0728 53.1932 26.0785 54.7557C25.0842 56.3182 23.6566 57.4616 21.7958 58.1861C19.9492 58.9105 17.7404 59.2727 15.1694 59.2727C14.8569 59.2727 14.5586 59.2656 14.2745 59.2514C13.9762 59.2514 13.6637 59.2443 13.337 59.2301V52.1349C13.5785 52.1491 13.7915 52.1562 13.9762 52.1562C14.1467 52.1704 14.3313 52.1776 14.5302 52.1776C15.9933 52.1776 17.016 51.8651 17.5984 51.2401C18.195 50.6293 18.4933 49.706 18.4933 48.4702V14.2727ZM23.0103 10.054C21.6751 10.054 20.5245 9.60652 19.5586 8.71164C18.5927 7.80255 18.1097 6.7159 18.1097 5.45169C18.1097 4.20169 18.5927 3.12925 19.5586 2.23437C20.5245 1.32527 21.6751 0.870728 23.0103 0.870728C24.3739 0.870728 25.5316 1.32527 26.4833 2.23437C27.4492 3.12925 27.9322 4.20169 27.9322 5.45169C27.9322 6.7159 27.4492 7.80255 26.4833 8.71164C25.5316 9.60652 24.3739 10.054 23.0103 10.054Z" fill="url(#paint1_linear_1434_21610)"/>
<path d="M62.071 23.6051L53.7614 24.1165C53.6193 23.4062 53.3139 22.767 52.8452 22.1989C52.3764 21.6165 51.7585 21.1548 50.9915 20.8139C50.2386 20.4588 49.3366 20.2812 48.2855 20.2812C46.8793 20.2812 45.6932 20.5795 44.7273 21.1761C43.7614 21.7585 43.2784 22.5398 43.2784 23.5199C43.2784 24.3011 43.5909 24.9616 44.2159 25.5014C44.8409 26.0412 45.9134 26.4744 47.4332 26.8011L53.3565 27.9943C56.5384 28.6477 58.9105 29.6989 60.473 31.1477C62.0355 32.5966 62.8168 34.5 62.8168 36.8579C62.8168 39.0028 62.1847 40.8849 60.9205 42.5043C59.6705 44.1236 57.9517 45.3878 55.7642 46.2969C53.5909 47.1918 51.0838 47.6392 48.2429 47.6392C43.9105 47.6392 40.4588 46.7372 37.8878 44.9332C35.331 43.115 33.8324 40.6435 33.392 37.5185L42.3196 37.0497C42.5895 38.3707 43.2429 39.3793 44.2798 40.0753C45.3168 40.7571 46.6449 41.098 48.2642 41.098C49.8551 41.098 51.1335 40.7926 52.0994 40.1818C53.0795 39.5568 53.5767 38.7543 53.5909 37.7741C53.5767 36.9503 53.2287 36.2756 52.5469 35.75C51.8651 35.2102 50.8139 34.7983 49.3935 34.5142L43.7259 33.3849C40.5298 32.7457 38.1506 31.6378 36.5881 30.0611C35.0398 28.4844 34.2656 26.4744 34.2656 24.0312C34.2656 21.929 34.8338 20.1179 35.9702 18.598C37.1207 17.0781 38.733 15.9062 40.8068 15.0824C42.8949 14.2585 45.3381 13.8466 48.1364 13.8466C52.2699 13.8466 55.5227 14.7202 57.8949 16.4673C60.2812 18.2145 61.6733 20.5937 62.071 23.6051Z" fill="url(#paint2_linear_1434_21610)"/>
<defs>
<linearGradient id="paint0_linear_1434_21610" x1="1.16087" y1="29.7503" x2="62.6556" y2="29.7503" gradientUnits="userSpaceOnUse">
<stop stop-color="white"/>
<stop offset="1" stop-color="white" stop-opacity="0"/>
</linearGradient>
<linearGradient id="paint1_linear_1434_21610" x1="1.16087" y1="29.7503" x2="62.6556" y2="29.7503" gradientUnits="userSpaceOnUse">
<stop stop-color="white"/>
<stop offset="1" stop-color="white" stop-opacity="0"/>
</linearGradient>
<linearGradient id="paint2_linear_1434_21610" x1="1.16087" y1="29.7503" x2="62.6556" y2="29.7503" gradientUnits="userSpaceOnUse">
<stop stop-color="white"/>
<stop offset="1" stop-color="white" stop-opacity="0"/>
</linearGradient>
</defs>
</svg>
