<svg width="121" height="40" viewBox="0 0 121 40" fill="none" xmlns="http://www.w3.org/2000/svg">
<path d="M21.0163 25.8102C20.6108 25.8102 10.9868 25.7257 3.6249 18.3318C3.46903 18.1767 3.3173 18.0188 3.16832 17.861C1.62615 16.2296 0.895068 14.2879 1.04956 12.248C1.1875 10.4476 2.01514 8.70403 3.37385 7.3358C4.73256 5.96749 6.47474 5.13934 8.26654 5.00226C10.1439 4.86374 11.9385 5.47589 13.4849 6.79153C13.6517 4.76404 14.4849 3.05232 15.914 1.82252C17.2782 0.646738 19.0866 0 21.0178 0C22.9489 0 24.7573 0.646738 26.1215 1.82252C27.5492 3.05369 28.3838 4.76404 28.5506 6.79153C30.097 5.47589 31.8916 4.85263 33.7689 5.00226C35.5621 5.14071 37.2988 5.97168 38.6602 7.3358C40.0218 8.69992 40.8494 10.449 40.9845 12.248C41.1404 14.2879 40.4079 16.2296 38.8672 17.8637C38.7182 18.0216 38.5665 18.1795 38.4106 18.3346C31.0474 25.7257 21.4233 25.8102 21.0163 25.8102ZM8.79902 6.51594C7.12995 6.51594 5.56295 7.29561 4.4484 8.41321C2.44551 10.4255 1.53511 13.9126 4.27183 16.8168C4.41162 16.9654 4.55415 17.1127 4.69945 17.2585C11.6213 24.2065 20.9253 24.2869 21.0178 24.2869C21.1102 24.2869 30.4335 24.1899 37.3374 17.2585C37.4836 17.1118 37.6261 16.9645 37.765 16.8168C40.5018 13.9085 39.5913 10.4255 37.5885 8.41321C35.5856 6.40094 32.1109 5.48693 29.2142 8.23595C29.0661 8.37538 28.9194 8.51847 28.7741 8.66529C28.6624 8.77747 28.5534 8.8924 28.4458 9.00733L27.0071 10.539L27.0636 8.43673C27.0636 8.27614 27.0733 8.11684 27.0733 7.9548C27.0733 7.7471 27.0733 7.53939 27.065 7.33854C26.9547 3.34314 23.8551 1.522 21.0205 1.522C18.1858 1.522 15.0891 3.34177 14.9774 7.33854C14.9774 7.54213 14.969 7.75402 14.969 7.9548C14.969 8.11273 14.969 8.26784 14.9774 8.42432L15.0339 10.539L13.5938 9.01562C13.4849 8.89933 13.3745 8.78295 13.2614 8.66803C13.1152 8.52121 12.9685 8.37812 12.8213 8.23869C11.5316 7.01035 10.1315 6.51594 8.79902 6.51594Z" fill="#00501E"/>
<path d="M20.0409 17.7418H18.9373C18.9373 16.0923 17.3372 14.749 15.373 14.749C13.4087 14.749 11.8086 16.0923 11.8086 17.7418H10.7051C10.7051 15.4802 12.799 13.6411 15.373 13.6411C17.9469 13.6411 20.0409 15.4802 20.0409 17.7418Z" fill="#00501E"/>
<path d="M31.2596 17.6957H30.1561C30.1561 16.0463 28.5573 14.7044 26.5917 14.7044C24.6261 14.7044 23.0274 16.0463 23.0274 17.6957H21.9238C21.9238 15.4356 24.0177 13.5964 26.5917 13.5964C29.1656 13.5964 31.2596 15.4356 31.2596 17.6957Z" fill="#00501E"/>
<path d="M16.6443 17.7657C17.5212 17.7657 18.232 17.0521 18.232 16.1717C18.232 15.2913 17.5212 14.5776 16.6443 14.5776C15.7674 14.5776 15.0566 15.2913 15.0566 16.1717C15.0566 17.0521 15.7674 17.7657 16.6443 17.7657Z" fill="#00501E"/>
<path d="M27.7889 17.7657C28.6657 17.7657 29.3766 17.0521 29.3766 16.1717C29.3766 15.2913 28.6657 14.5776 27.7889 14.5776C26.912 14.5776 26.2012 15.2913 26.2012 16.1717C26.2012 17.0521 26.912 17.7657 27.7889 17.7657Z" fill="#00501E"/>
<path d="M21.0086 21.8153C19.7079 21.8153 18.5023 21.1436 17.9395 20.105L18.9051 19.5759C19.2789 20.2684 20.1024 20.7074 21.0059 20.7074C21.9094 20.7074 22.7342 20.2628 23.1067 19.5759L24.0723 20.105C23.515 21.1436 22.3136 21.8153 21.0086 21.8153Z" fill="#00501E"/>
<path d="M40.7868 37.1719C38.0216 38.4719 34.9046 38.8129 31.9255 38.1413C29.4596 37.5924 27.1958 36.362 25.3899 34.5891C26.5331 35.0648 27.7595 35.3068 28.997 35.301C31.1367 35.3014 33.2237 34.6335 34.9684 33.3898L34.0829 32.1517C31.6951 33.8773 28.4108 34.2928 25.8189 33.117C23.2615 31.9606 21.8186 29.4858 21.7262 26.1302V25.0486H20.2088V25.2397V26.1219C20.1206 29.4816 18.6749 31.9592 16.1148 33.117C13.5229 34.29 10.233 33.8801 7.85082 32.1476L6.96663 33.3857C8.71025 34.6299 10.7961 35.2987 12.9353 35.2995C14.1728 35.3056 15.3992 35.0637 16.5424 34.5878C14.737 36.3606 12.4737 37.5911 10.0082 38.14C7.02905 38.8116 3.91209 38.4706 1.14694 37.1706L0.5 38.5485C2.53071 39.5055 4.74679 40.0006 6.99007 39.9985C8.1172 39.9989 9.24091 39.874 10.3407 39.6259C13.7152 38.8738 16.7297 36.9802 18.8791 34.2623L18.8888 34.2498C19.3931 33.5855 19.8359 32.8763 20.2116 32.1309V39.9708H21.7289V32.142C22.104 32.8837 22.5455 33.5897 23.0476 34.2512L23.0573 34.2637C25.2065 36.9812 28.2205 38.8748 31.5944 39.6274C32.6941 39.8754 33.8179 40.0003 34.945 39.9999C37.1887 40.002 39.4052 39.5069 41.4364 38.5499L40.7868 37.1719Z" fill="#00501E"/>
<path d="M58.0273 29.8201V9.7937H60.4209V27.6461H70.8346V29.8201H58.0273Z" fill="#00501E"/>
<path d="M73.2676 29.8201V9.7937H85.5497V11.9677H75.6612V18.6669H83.6748V20.8409H75.6612V27.6505H85.6917V29.8245L73.2676 29.8201Z" fill="#00501E"/>
<path d="M88.0234 29.8201V9.7937H93.0989L100.051 28.3053H100.852V9.7937H103.22V29.8201H98.1423L91.2176 11.2848H90.389V29.8223L88.0234 29.8201Z" fill="#00501E"/>
<path d="M113.35 30.2198C112.018 30.2422 110.697 29.9792 109.475 29.4483C108.366 28.9589 107.428 28.1466 106.783 27.1166C106.128 26.0764 105.8 24.7747 105.799 23.2115V22.6108H108.167V23.2115C108.167 24.8713 108.651 26.1059 109.62 26.9156C110.588 27.7252 111.832 28.1337 113.35 28.1409C114.907 28.1409 116.093 27.7879 116.91 27.082C117.301 26.7605 117.615 26.354 117.828 25.8933C118.04 25.4325 118.146 24.9294 118.137 24.4218C118.171 23.7821 117.973 23.1517 117.579 22.6475C117.156 22.1676 116.624 21.797 116.027 21.567C115.273 21.2612 114.494 21.0169 113.701 20.8366L112.22 20.4648C111.16 20.196 110.129 19.8224 109.142 19.3497C108.309 18.9614 107.588 18.3664 107.047 17.6209C106.544 16.9006 106.292 15.98 106.292 14.8591C106.266 13.8227 106.56 12.8037 107.133 11.9416C107.725 11.0961 108.547 10.4402 109.501 10.0529C110.618 9.59824 111.816 9.37769 113.02 9.40453C114.267 9.38458 115.503 9.62294 116.654 10.1048C117.671 10.5322 118.546 11.2412 119.177 12.1491C119.795 13.0567 120.104 14.1964 120.102 15.5679V16.7694H117.734V15.5679C117.734 14.5954 117.531 13.8138 117.123 13.2232C116.707 12.625 116.121 12.1664 115.442 11.907C114.665 11.6076 113.838 11.461 113.005 11.4749C111.695 11.4749 110.641 11.763 109.841 12.3392C109.042 12.9156 108.643 13.7403 108.644 14.8137C108.616 15.4274 108.797 16.0325 109.157 16.5295C109.544 17.0064 110.044 17.3779 110.612 17.6101C111.338 17.9203 112.091 18.164 112.861 18.3383L114.344 18.7122C115.419 18.9316 116.465 19.2723 117.463 19.7279C118.333 20.1148 119.092 20.7145 119.672 21.4719C120.223 22.2067 120.498 23.1655 120.498 24.3482C120.523 25.4436 120.215 26.5207 119.616 27.4364C118.993 28.3407 118.129 29.0501 117.123 29.483C115.932 29.9951 114.645 30.2463 113.35 30.2198Z" fill="#00501E"/>
</svg>
