<svg width="158" height="36" viewBox="0 0 158 36" fill="none" xmlns="http://www.w3.org/2000/svg">
<path d="M43.4629 23.2292C43.098 23.2292 34.4363 23.1532 27.8107 16.4986C27.6704 16.359 27.5338 16.217 27.3997 16.0749C26.0118 14.6066 25.3538 12.8591 25.4928 11.0232C25.617 9.40287 26.3619 7.83363 27.5847 6.60222C28.8075 5.37074 30.3755 4.6254 31.9881 4.50203C33.6778 4.37737 35.2929 4.9283 36.6846 6.11238C36.8348 4.28763 37.5847 2.74709 38.8708 1.64027C40.0986 0.582064 41.7262 0 43.4642 0C45.2023 0 46.8298 0.582064 48.0576 1.64027C49.3425 2.74832 50.0936 4.28763 50.2438 6.11238C51.6355 4.9283 53.2506 4.36737 54.9402 4.50203C56.5541 4.62663 58.1172 5.37451 59.3425 6.60222C60.5678 7.82993 61.3127 9.4041 61.4343 11.0232C61.5746 12.8591 60.9154 14.6066 59.5287 16.0774C59.3946 16.2194 59.2581 16.3616 59.1178 16.5012C52.4909 23.1532 43.8292 23.2292 43.4629 23.2292ZM32.4674 5.86434C30.9652 5.86434 29.5549 6.56605 28.5518 7.57189C26.7492 9.38294 25.9298 12.5214 28.3929 15.1351C28.5187 15.2689 28.647 15.4014 28.7777 15.5326C35.0074 21.7859 43.381 21.8582 43.4642 21.8582C43.5474 21.8582 51.9384 21.7709 58.1519 15.5326C58.2835 15.4006 58.4118 15.268 58.5368 15.1351C60.9998 12.5177 60.1804 9.38294 58.3779 7.57189C56.5753 5.76084 53.448 4.93824 50.841 7.41236C50.7077 7.53785 50.5757 7.66662 50.4449 7.79876C50.3444 7.89973 50.2463 8.00316 50.1494 8.10659L48.8546 9.48514L48.9055 7.59306C48.9055 7.44852 48.9142 7.30515 48.9142 7.15932C48.9142 6.97239 48.9142 6.78545 48.9067 6.60468C48.8075 3.00882 46.0179 1.3698 43.4667 1.3698C40.9155 1.3698 38.1284 3.00759 38.0279 6.60468C38.0279 6.78792 38.0204 6.97862 38.0204 7.15932C38.0204 7.30146 38.0204 7.44106 38.0279 7.58189L38.0788 9.48514L36.7827 8.11406C36.6846 8.00939 36.5853 7.90466 36.4835 7.80122C36.3519 7.66909 36.2199 7.54031 36.0874 7.41482C34.9267 6.30931 33.6666 5.86434 32.4674 5.86434Z" fill="#00501E"/>
<path d="M42.5877 15.9674H41.5946C41.5946 14.4829 40.1545 13.2739 38.3866 13.2739C36.6188 13.2739 35.1787 14.4829 35.1787 15.9674H34.1855C34.1855 13.9321 36.0701 12.2769 38.3866 12.2769C40.7032 12.2769 42.5877 13.9321 42.5877 15.9674Z" fill="#00501E"/>
<path d="M52.6854 15.9259H51.6922C51.6922 14.4415 50.2534 13.2337 48.4843 13.2337C46.7152 13.2337 45.2764 14.4415 45.2764 15.9259H44.2832C44.2832 13.8919 46.1677 12.2366 48.4843 12.2366C50.8008 12.2366 52.6854 13.8919 52.6854 15.9259Z" fill="#00501E"/>
<path d="M39.5285 15.9891C40.3177 15.9891 40.9575 15.3468 40.9575 14.5545C40.9575 13.7622 40.3177 13.1199 39.5285 13.1199C38.7393 13.1199 38.0996 13.7622 38.0996 14.5545C38.0996 15.3468 38.7393 15.9891 39.5285 15.9891Z" fill="#00501E"/>
<path d="M49.5598 15.9891C50.3489 15.9891 50.9887 15.3468 50.9887 14.5545C50.9887 13.7622 50.3489 13.1199 49.5598 13.1199C48.7706 13.1199 48.1309 13.7622 48.1309 14.5545C48.1309 15.3468 48.7706 15.9891 49.5598 15.9891Z" fill="#00501E"/>
<path d="M43.4595 19.6339C42.2889 19.6339 41.2038 19.0294 40.6973 18.0945L41.5663 17.6184C41.9028 18.2416 42.6439 18.6367 43.4571 18.6367C44.2702 18.6367 45.0126 18.2366 45.3478 17.6184L46.2168 18.0945C45.7153 19.0294 44.634 19.6339 43.4595 19.6339Z" fill="#00501E"/>
<path d="M61.2581 33.4547C58.7694 34.6247 55.9642 34.9315 53.2829 34.3272C51.0636 33.8332 49.0262 32.7258 47.4009 31.1302C48.4298 31.5583 49.5335 31.7761 50.6473 31.7709C52.5731 31.7713 54.4513 31.1701 56.0216 30.0508L55.2246 28.9365C53.0756 30.4895 50.1197 30.8635 47.787 29.8053C45.4853 28.7645 44.1868 26.5372 44.1036 23.5171V22.5437H42.738V22.7157V23.5097C42.6585 26.5334 41.3574 28.7633 39.0533 29.8053C36.7206 30.861 33.7597 30.4921 31.6157 28.9328L30.82 30.0471C32.3892 31.1668 34.2665 31.7688 36.1917 31.7696C37.3056 31.775 38.4093 31.5573 39.4381 31.129C37.8133 32.7245 35.7763 33.8319 33.5573 34.3259C30.8761 34.9304 28.0709 34.6235 25.5822 33.4535L25 34.6937C26.8276 35.555 28.8221 36.0005 30.8411 35.9986C31.8555 35.999 32.8668 35.8866 33.8566 35.6633C36.8937 34.9864 39.6067 33.2822 41.5412 30.8361L41.5499 30.8248C42.0038 30.227 42.4023 29.5886 42.7405 28.9178V35.9737H44.1061V28.9278C44.4436 29.5953 44.8409 30.2307 45.2929 30.8261L45.3016 30.8373C47.2358 33.2831 49.9484 34.9873 52.985 35.6646C53.9747 35.8878 54.9861 36.0003 56.0005 35.9999C58.0199 36.0018 60.0147 35.5562 61.8428 34.6949L61.2581 33.4547Z" fill="#00501E"/>
<path d="M76.7773 26.8385V8.8147H78.9315V24.8819H88.3038V26.8385H76.7773Z" fill="#00501E"/>
<path d="M90.4941 26.8385V8.8147H101.548V10.7713H92.6484V16.8006H99.8606V18.7572H92.6484V24.8858H101.676V26.8424L90.4941 26.8385Z" fill="#00501E"/>
<path d="M103.773 26.8385V8.8147H108.341L114.599 25.4751H115.319V8.8147H117.45V26.8385H112.88L106.648 10.1567H105.902V26.8404L103.773 26.8385Z" fill="#00501E"/>
<path d="M126.567 27.1981C125.369 27.2183 124.18 26.9815 123.08 26.5038C122.082 26.0633 121.238 25.3322 120.657 24.4052C120.068 23.4691 119.773 22.2975 119.771 20.8907V20.35H121.902V20.8907C121.902 22.3844 122.338 23.4956 123.21 24.2243C124.082 24.953 125.201 25.3206 126.567 25.3271C127.969 25.3271 129.037 25.0094 129.771 24.3741C130.124 24.0847 130.406 23.7189 130.597 23.3042C130.789 22.8895 130.884 22.4367 130.876 21.9799C130.907 21.4042 130.728 20.8368 130.374 20.3831C129.993 19.9511 129.514 19.6176 128.977 19.4106C128.298 19.1353 127.598 18.9155 126.883 18.7532L125.55 18.4186C124.596 18.1766 123.668 17.8405 122.78 17.4151C122.03 17.0655 121.382 16.53 120.895 15.8591C120.442 15.2108 120.215 14.3823 120.215 13.3735C120.192 12.4408 120.456 11.5236 120.973 10.7477C121.505 9.98679 122.245 9.39644 123.104 9.04788C124.109 8.6387 125.187 8.44021 126.271 8.46437C127.392 8.44641 128.506 8.66094 129.541 9.09459C130.456 9.47928 131.244 10.1174 131.811 10.9345C132.368 11.7513 132.646 12.777 132.644 14.0114V15.0928H130.513V14.0114C130.513 13.1362 130.33 12.4327 129.963 11.9012C129.589 11.3628 129.062 10.9501 128.45 10.7166C127.751 10.4472 127.006 10.3152 126.257 10.3277C125.078 10.3277 124.129 10.587 123.41 11.1056C122.69 11.6243 122.331 12.3666 122.333 13.3326C122.307 13.8849 122.47 14.4295 122.794 14.8769C123.142 15.306 123.592 15.6404 124.103 15.8493C124.757 16.1285 125.434 16.3479 126.128 16.5048L127.462 16.8413C128.429 17.0387 129.371 17.3454 130.269 17.7554C131.052 18.1036 131.735 18.6433 132.257 19.325C132.753 19.9863 133.001 20.8492 133.001 21.9137C133.023 22.8995 132.746 23.8689 132.207 24.693C131.647 25.5069 130.869 26.1454 129.963 26.535C128.891 26.9959 127.733 27.2219 126.567 27.1981Z" fill="#00501E"/>
</svg>
