<svg width="138" height="34" viewBox="0 0 138 34" fill="none" xmlns="http://www.w3.org/2000/svg">
<g clip-path="url(#clip0_699_2)">
<mask id="mask0_699_2" style="mask-type:luminance" maskUnits="userSpaceOnUse" x="0" y="0" width="139" height="34">
<path fill-rule="evenodd" clip-rule="evenodd" d="M36.5053 9.62732C38.2081 8.07443 40.4421 7.11193 42.932 7.11108C48.4647 7.1129 52.947 11.5339 52.947 16.9902C52.947 21.7105 48.207 25.7472 47.0221 26.6768C41.4809 31.0254 34.2633 33.5682 26.4734 33.5682C18.6836 33.5682 11.466 31.0254 5.92489 26.6768C4.74665 25.7472 0 21.7039 0 16.9902C0 11.5328 4.48407 7.11108 10.0117 7.11108C12.5029 7.11108 14.7382 8.07375 16.4416 9.62732L16.6166 9.54101C17.0071 4.44876 21.2084 0.432068 26.4734 0.432068C31.7386 0.432068 35.9399 4.44876 36.3304 9.54101L36.5053 9.62732ZM38.5051 19.4487C39.2658 20.1989 39.8113 21.1018 40.1142 22.091H40.1209C40.2624 22.5425 39.9458 23.0139 39.4746 23.0935C39.0773 23.16 38.6936 22.9143 38.5724 22.5293C38.3435 21.7989 37.9395 21.1283 37.3739 20.5707C36.4582 19.6678 35.2397 19.1697 33.9402 19.1697C33.8897 19.1697 33.8409 19.1731 33.7921 19.1765C33.7432 19.1798 33.6944 19.1832 33.6439 19.1832C34.3711 19.515 34.8828 20.2387 34.8828 21.0819C34.8828 22.2437 33.9335 23.1799 32.7552 23.1799C31.577 23.1799 30.6277 22.237 30.6277 21.0819C30.6277 20.8163 30.6815 20.5574 30.7757 20.325C30.6815 20.4048 30.5872 20.4843 30.4997 20.5707C29.9341 21.1283 29.5303 21.7989 29.3012 22.5293C29.1868 22.9143 28.803 23.16 28.399 23.0935C27.9277 23.0139 27.6114 22.5425 27.7527 22.091C28.0557 21.1018 28.601 20.1989 29.3619 19.4487C30.5805 18.247 32.2099 17.5831 33.9335 17.5831C35.6571 17.5831 37.2864 18.247 38.5051 19.4487ZM18.8724 19.1765C18.9212 19.1733 18.97 19.1699 19.0205 19.1699C20.32 19.1699 21.5385 19.6678 22.4542 20.5709C23.0198 21.1285 23.4238 21.7991 23.6527 22.5294C23.7738 22.9145 24.1576 23.1601 24.5549 23.0937C25.0261 23.0141 25.3427 22.5427 25.2012 22.0912C24.8983 21.1019 24.3529 20.1991 23.5921 19.4489C22.3734 18.2471 20.7442 17.5833 19.0205 17.5833C17.2969 17.5833 15.6675 18.2471 14.4489 19.4489C13.6881 20.1991 13.1427 21.1019 12.8397 22.0912C12.6983 22.5427 13.0148 23.0141 13.4861 23.0937C13.8901 23.1601 14.2738 22.9145 14.3883 22.5294C14.6172 21.7991 15.0212 21.1285 15.5867 20.5709C15.6743 20.4845 15.7685 20.4048 15.8628 20.3252C15.7685 20.5576 15.7147 20.8165 15.7147 21.0821C15.7147 22.2372 16.664 23.18 17.8422 23.18C19.0205 23.18 19.9698 22.2438 19.9698 21.0821C19.9698 20.2389 19.4582 19.5152 18.7309 19.1833H18.7242C18.7747 19.1833 18.8235 19.1799 18.8724 19.1765ZM26.4808 26.8445C27.7197 26.8445 28.8508 26.3799 29.7126 25.6229C30.0291 25.3508 30.4937 25.3375 30.8033 25.6097C31.1535 25.9152 31.1737 26.4661 30.8235 26.7782C29.679 27.8073 28.1506 28.438 26.4808 28.438C24.8112 28.438 23.2896 27.8073 22.1381 26.7782C21.7881 26.4661 21.8083 25.9218 22.1583 25.6097C22.4749 25.3309 22.9394 25.3508 23.249 25.6229C24.1041 26.3799 25.2421 26.8445 26.4808 26.8445Z" fill="white"/>
<path d="M128.572 28.7538C134.06 28.7538 138 26.5348 138 22.097C138 18.9073 135.957 16.6606 131.527 15.0241L130.401 14.6081C128.634 13.9549 127.587 13.3599 127.587 12.2504C127.587 9.75411 133.216 10.7249 136.171 11.4183L137.719 6.70305C135.889 6.14832 133.919 5.73227 131.105 5.73227C125.476 5.73227 121.817 8.50595 121.817 12.3891C121.817 15.3015 123.905 17.1542 126.742 18.3526L128.713 19.1847C131.261 20.2608 132.512 20.7101 132.512 21.8197C132.512 22.7904 131.105 23.6226 128.713 23.6226C126.883 23.6226 124.913 23.3451 122.802 22.9291L122.099 27.9217C123.646 28.3378 125.757 28.7538 128.572 28.7538ZM101.271 28.4766H106.9V15.1628C106.9 12.2504 108.448 10.5862 110.981 10.5862C113.514 10.5862 114.922 12.3891 114.922 15.3015V28.4766H120.551V14.8854C120.551 9.33805 117.455 5.4549 110.981 5.4549C105.212 5.4549 101.271 9.33805 101.271 14.8854V28.4766ZM76.5041 28.7538C78.4742 28.7538 80.0222 28.4766 81.4293 27.9217L80.8665 22.7904C76.9262 23.6226 72.2823 23.7613 72.2823 19.1847V6.42568H66.6533V19.7394C66.6533 25.7028 70.1715 28.7538 76.5041 28.7538ZM80.5851 16.9657C80.5851 25.9427 87.0471 28.8689 92.8364 28.8689C95.1317 28.8689 97.507 28.4086 99.2703 27.6832L98.5795 22.7821C96.719 23.3077 94.7813 23.4866 93.0151 23.4866C89.4099 23.4866 86.0887 22.3078 86.0887 17.4803V16.5496C86.0887 12.7428 87.9983 10.7277 90.8283 10.7277C92.6858 10.7277 94.2366 11.7817 94.2366 13.776C94.2366 16.1988 90.9705 17.2972 85.0896 17.1044L85.3711 20.2941C92.7633 22.3661 99.7249 20.1318 99.7249 13.6373C99.7249 9.05791 96.1731 5.86539 91.0409 5.86539C84.8659 5.86539 80.5851 10.2062 80.5851 16.9657Z" fill="white"/>
</mask>
<g mask="url(#mask0_699_2)">
<path d="M138 0H0V34H138V0Z" fill="black"/>
</g>
</g>
<defs>
<clipPath id="clip0_699_2">
<rect width="138" height="34" fill="white"/>
</clipPath>
</defs>
</svg>
