<svg width="16" height="16" viewBox="0 0 16 16" fill="none" xmlns="http://www.w3.org/2000/svg">
<path d="M9 1C9 0.447715 8.55229 0 8 0C7.44771 0 7 0.447715 7 1V2C7 2.55228 7.44771 3 8 3C8.55229 3 9 2.55228 9 2V1Z" fill="#EF4444"/>
<path d="M13.6568 3.75731C14.0473 3.36678 14.0473 2.73362 13.6568 2.34309C13.2663 1.95257 12.6331 1.95257 12.2426 2.34309L11.5355 3.0502C11.145 3.44072 11.145 4.07389 11.5355 4.46441C11.926 4.85494 12.5592 4.85494 12.9497 4.46441L13.6568 3.75731Z" fill="#EF4444"/>
<path d="M16 8C16 8.55229 15.5523 9 15 9H14C13.4477 9 13 8.55228 13 8C13 7.44771 13.4477 7 14 7H15C15.5523 7 16 7.44771 16 8Z" fill="#EF4444"/>
<path d="M3.05019 4.46443C3.44071 4.85496 4.07388 4.85496 4.4644 4.46443C4.85493 4.07391 4.85493 3.44074 4.4644 3.05022L3.7573 2.34311C3.36677 1.95259 2.73361 1.95259 2.34308 2.34311C1.95256 2.73363 1.95256 3.3668 2.34308 3.75732L3.05019 4.46443Z" fill="#EF4444"/>
<path d="M3 8C3 8.55229 2.55228 9 2 9H1C0.447715 9 -1.19209e-07 8.55228 0 8C0 7.44771 0.447715 7 1 7H2C2.55228 7 3 7.44771 3 8Z" fill="#EF4444"/>
<path d="M6 14V13H10V14C10 15.1046 9.10457 16 8 16C6.89543 16 6 15.1046 6 14Z" fill="#EF4444"/>
<path d="M10.0009 12C10.0155 11.6597 10.2076 11.3537 10.4768 11.1411C11.4046 10.4086 12 9.27384 12 8C12 5.79086 10.2091 4 8 4C5.79086 4 4 5.79086 4 8C4 9.27384 4.59545 10.4086 5.52319 11.1411C5.79241 11.3537 5.98451 11.6597 5.99911 12H10.0009Z" fill="#EF4444"/>
</svg>
