<svg width="54" height="40" viewBox="0 0 54 40" fill="none" xmlns="http://www.w3.org/2000/svg">
<path d="M54.0009 18.405V9.04518H44.4529V5.04127L44.4888 0H35.207V30.622C35.207 31.8527 35.4461 33.0713 35.9106 34.208C36.3751 35.3448 37.0558 36.3774 37.9139 37.2468C38.772 38.1162 39.7905 38.8053 40.9113 39.2745C42.032 39.7438 43.2329 39.9841 44.4452 39.9817L54.0009 39.9661V30.7598H46.8424C46.5256 30.7602 46.2116 30.697 45.9187 30.5741C45.6259 30.4511 45.3598 30.2707 45.1357 30.0432C44.9116 29.8158 44.7339 29.5456 44.6128 29.2483C44.4916 28.951 44.4295 28.6324 44.4298 28.3107V24.6708H44.4554C44.4554 22.5908 44.4554 20.5109 44.4554 18.3972L54.0009 18.405Z" fill="black"/>
<path d="M24.7865 9.04518H32.0346V0H22.8145V40H32.0346V16.4622C32.0346 15.5416 31.6253 14.6701 30.9207 14.0906L24.7865 9.04518Z" fill="black"/>
<path d="M9.22026 28.3107V0H0V30.622C-2.2918e-06 31.8527 0.239078 33.0713 0.70356 34.208C1.16804 35.3448 1.8488 36.3774 2.70688 37.2468C3.56496 38.1162 4.5835 38.8053 5.70423 39.2745C6.82495 39.7438 8.02584 39.9841 9.23816 39.9817L19.6237 39.9661V30.7598H11.6329C10.993 30.7598 10.3794 30.5018 9.92687 30.0425C9.47445 29.5832 9.22026 28.9603 9.22026 28.3107Z" fill="black"/>
</svg>
