<svg width="54" height="40" viewBox="0 0 54 40" fill="none" xmlns="http://www.w3.org/2000/svg">
<g clip-path="url(#clip0_1051_20104)">
<path d="M53.8606 18.0547V8.87304H44.3372V4.94533L44.373 0H35.1152V30.0392C35.1152 31.2465 35.3537 32.4419 35.817 33.557C36.2802 34.6722 36.9592 35.6851 37.8151 36.538C38.671 37.3908 39.6869 38.0668 40.8047 38.5271C41.9225 38.9875 43.1204 39.2232 44.3295 39.2209L53.8606 39.2056V30.1744H46.7206C46.4045 30.1748 46.0914 30.1129 45.7993 29.9923C45.5072 29.8716 45.2418 29.6946 45.0183 29.4715C44.7947 29.2483 44.6175 28.9833 44.4967 28.6917C44.3759 28.4001 44.3139 28.0875 44.3142 27.7719V24.2013H44.3397C44.3397 22.1609 44.3397 20.1205 44.3397 18.047L53.8606 18.0547Z" fill="black"/>
<path d="M24.7229 8.87304H31.9522V0H22.7559V39.2388H31.9522V16.149C31.9522 15.2458 31.544 14.391 30.8411 13.8224L24.7229 8.87304Z" fill="black"/>
<path d="M9.19646 27.7719V0H0V30.0392C-2.28588e-06 31.2465 0.238461 32.4419 0.701744 33.557C1.16502 34.6722 1.84403 35.6851 2.6999 36.538C3.55576 37.3908 4.57167 38.0668 5.68951 38.5271C6.80734 38.9875 8.00513 39.2232 9.21432 39.2209L19.5731 39.2056V30.1744H11.6029C10.9646 30.1744 10.3526 29.9213 9.90125 29.4708C9.45 29.0202 9.19646 28.4091 9.19646 27.7719Z" fill="black"/>
</g>
<defs>
<clipPath id="clip0_1051_20104">
<rect width="54" height="40" fill="white"/>
</clipPath>
</defs>
</svg>
