<svg width="159" height="36" viewBox="0 0 159 36" fill="none" xmlns="http://www.w3.org/2000/svg">
<g clip-path="url(#clip0_1063_20145)">
<path d="M104.474 16.2492V7.98574H95.9033V4.4508L95.9355 0H87.6035V27.0353C87.6035 28.1219 87.8181 29.1977 88.2351 30.2013C88.652 31.205 89.2631 32.1166 90.0334 32.8842C90.8037 33.6517 91.718 34.2601 92.7241 34.6744C93.7301 35.0887 94.8082 35.3009 95.8964 35.2988L104.474 35.285V27.157H98.0484C97.7639 27.1573 97.4821 27.1016 97.2192 26.993C96.9563 26.8844 96.7174 26.7251 96.5163 26.5243C96.3151 26.3235 96.1555 26.085 96.0468 25.8226C95.9381 25.5601 95.8823 25.2787 95.8826 24.9947V21.7812H95.9056C95.9056 19.9448 95.9056 18.1085 95.9056 16.2423L104.474 16.2492Z" fill="black"/>
<path d="M78.2508 7.98574H84.7572V0H76.4805V35.3149H84.7572V14.5341C84.7572 13.7212 84.3898 12.9519 83.7572 12.4402L78.2508 7.98574Z" fill="black"/>
<path d="M64.2768 24.9947V0H56V27.0353C56 28.1219 56.2146 29.1977 56.6316 30.2013C57.0485 31.205 57.6596 32.1166 58.4299 32.8842C59.2002 33.6517 60.1145 34.2601 61.1206 34.6744C62.1266 35.0887 63.2046 35.3009 64.2929 35.2988L73.6158 35.285V27.157H66.4426C65.8682 27.157 65.3173 26.9292 64.9111 26.5237C64.505 26.1182 64.2768 25.5682 64.2768 24.9947Z" fill="black"/>
</g>
<defs>
<clipPath id="clip0_1063_20145">
<rect width="48.6" height="36" fill="white" transform="translate(56)"/>
</clipPath>
</defs>
</svg>
