<svg width="207" height="32" viewBox="0 0 207 32" fill="none" xmlns="http://www.w3.org/2000/svg">
<path fill-rule="evenodd" clip-rule="evenodd" d="M25.5889 17.4013L36.4569 28.6667C36.5873 28.8002 36.6913 28.9587 36.7626 29.1338C36.8339 29.3086 36.8713 29.4965 36.8725 29.6864C36.8738 29.8763 36.839 30.0646 36.77 30.2406C36.7011 30.4166 36.5993 30.5768 36.4707 30.712L35.6732 31.5357C35.449 31.7792 35.153 31.9381 34.832 31.9874C34.6199 32.0166 34.4041 31.9947 34.2016 31.9234C33.9992 31.8518 33.8153 31.7328 33.6646 31.5755L20.3933 17.8189C20.1625 17.58 19.9795 17.2965 19.8546 16.9843C19.7296 16.6722 19.6654 16.3374 19.6654 15.9995C19.6654 15.6615 19.7296 15.3268 19.8546 15.0147C19.9795 14.7025 20.1625 14.4189 20.3933 14.1801L33.6646 0.423461C33.7939 0.289221 33.9474 0.182718 34.1165 0.110056C34.2855 0.0373939 34.4667 0 34.6497 0C34.8326 0 35.0138 0.0373939 35.1828 0.110056C35.3519 0.182718 35.5054 0.289221 35.6349 0.423461L36.4569 1.28982C36.5864 1.42384 36.6891 1.58301 36.7592 1.75824C36.8294 1.93346 36.8655 2.12128 36.8655 2.31098C36.8655 2.50067 36.8294 2.6885 36.7592 2.86373C36.6891 3.03894 36.5864 3.19813 36.4569 3.33216L25.5889 14.6005C25.2325 14.9729 25.0324 15.4763 25.0324 16.001C25.0324 16.5254 25.2325 17.0288 25.5889 17.4013ZM11.2832 14.6125L0.419392 3.34398C0.287568 3.2105 0.182615 3.05122 0.110626 2.87534C0.0386356 2.69949 0.00104059 2.51054 2.12965e-05 2.31949C-0.000997996 2.12845 0.0345813 1.93907 0.104691 1.76238C0.174801 1.58571 0.27805 1.42524 0.408441 1.29026L1.20282 0.463646C1.42904 0.22173 1.7253 0.0631354 2.04651 0.012007C2.25843 -0.0164645 2.47384 0.0058593 2.67614 0.077265C2.87844 0.148671 3.06225 0.267242 3.21342 0.423874L16.4795 14.1807C16.7102 14.4195 16.8932 14.7031 17.0181 15.0153C17.1429 15.3275 17.2072 15.6621 17.2072 16.0002C17.2072 16.3381 17.1429 16.6726 17.0181 16.985C16.8932 17.2971 16.7102 17.5806 16.4795 17.8195L3.21342 31.5763C3.08394 31.7106 2.93021 31.8171 2.761 31.8899C2.59179 31.9626 2.41044 32 2.22729 32C2.04414 32 1.86278 31.9626 1.69358 31.8899C1.52438 31.8171 1.37064 31.7106 1.24116 31.5763L0.419392 30.7242C0.289854 30.5899 0.187096 30.4304 0.116987 30.255C0.0468785 30.0795 0.0107967 29.8914 0.0107967 29.7014C0.0107967 29.5115 0.0468785 29.3235 0.116987 29.148C0.187096 28.9726 0.289854 28.8131 0.419392 28.6789L11.2832 17.4133C11.6395 17.0408 11.8394 16.5374 11.8394 16.0128C11.8394 15.4883 11.6395 14.9849 11.2832 14.6125Z" fill="white"/>
<path fill-rule="evenodd" clip-rule="evenodd" d="M92.5513 13.8696C91.7369 13.3372 90.7829 13.0596 89.8104 13.0721C89.0171 13.0594 88.234 13.2534 87.5382 13.6351C87.0943 13.8704 86.6974 14.1852 86.3668 14.5638V7.67676H83.79V24.5663H86.3668V23.3391C86.6936 23.7103 87.082 24.0225 87.5147 24.2614C88.2232 24.63 89.0123 24.8155 89.8104 24.8011C90.7797 24.8142 91.7318 24.5452 92.5513 24.0268C93.3732 23.5166 94.0445 22.7958 94.4955 21.9391C94.9854 21.0236 95.2353 19.9985 95.2217 18.9599C95.239 17.9211 94.9889 16.895 94.4955 15.9808C94.0498 15.1142 93.3779 14.3847 92.5513 13.8696ZM92.153 20.7193C91.8985 21.2225 91.5092 21.6449 91.0286 21.9391C90.5315 22.2297 89.9641 22.3772 89.3888 22.3657C88.8062 22.3755 88.2318 22.2281 87.7256 21.9391C87.2445 21.6455 86.855 21.223 86.6011 20.7193C86.3267 20.1659 86.1901 19.5543 86.2029 18.9366C86.1901 18.3188 86.3267 17.7071 86.6011 17.1537C86.8513 16.6535 87.2421 16.2377 87.7256 15.9574C88.227 15.6552 88.8035 15.5007 89.3888 15.5117C89.9669 15.4988 90.5363 15.6535 91.0286 15.9574C91.5115 16.2383 91.9021 16.654 92.153 17.1537C92.4436 17.7022 92.5901 18.3158 92.579 18.9366C92.5901 19.5574 92.4436 20.1708 92.153 20.7193ZM64.5959 22.2211C65.5953 22.2211 66.4386 22.0726 67.1258 21.7755C67.7998 21.4814 68.4049 21.0491 68.902 20.5065L70.7292 22.3363C69.9736 23.1065 69.0742 23.7203 68.082 24.1425C67.0669 24.5804 65.9035 24.7993 64.5915 24.7993C63.4603 24.8099 62.3382 24.5945 61.2906 24.166C60.3024 23.7422 59.4081 23.1259 58.66 22.3526C57.9121 21.5793 57.325 20.6647 56.9336 19.662C56.5239 18.6087 56.3171 17.4871 56.3245 16.3566C56.316 15.2329 56.5236 14.1179 56.9356 13.0726C57.325 12.0655 57.914 11.1478 58.667 10.3749C59.4362 9.58241 60.3586 8.95525 61.378 8.53177C62.3974 8.10828 63.4924 7.89733 64.5959 7.91183C65.924 7.91113 67.0712 8.13149 68.0374 8.57292C68.9978 9.00389 69.8717 9.6066 70.6163 10.3514L68.7892 12.1812C68.2935 11.6415 67.6857 11.2171 67.0087 10.9379C66.3229 10.6408 65.5188 10.4922 64.5959 10.4922C63.8331 10.484 63.0763 10.6291 62.3704 10.9187C61.7053 11.1944 61.1062 11.6087 60.6135 12.1342C60.118 12.6696 59.7363 13.3 59.4912 13.9874C59.2189 14.7472 59.084 15.5495 59.093 16.3566C59.0839 17.1623 59.2181 17.9631 59.4891 18.7217C59.7382 19.4145 60.1201 20.0521 60.6135 20.5983C61.1112 21.1132 61.7093 21.5204 62.3704 21.7947C63.0763 22.0843 63.8331 22.2292 64.5959 22.2211ZM73.603 13.3064L76.4833 20.6423L79.5298 13.3064H82.3876L77.1638 24.6835L75.0788 29.2577H72.2209L75.0436 23.4339L70.7685 13.3064H73.603ZM102.457 13.07C103.506 13.0692 104.429 13.3116 105.226 13.7971C106.026 14.2736 106.68 14.9621 107.115 15.7868C107.593 16.6718 107.835 17.6657 107.817 18.6721C107.817 18.8686 107.801 19.0646 107.77 19.2585C107.751 19.4713 107.72 19.6828 107.677 19.8919H99.2893C99.3562 20.1774 99.459 20.4532 99.5948 20.7129C99.8655 21.2337 100.28 21.6654 100.79 21.9563C101.337 22.2471 101.95 22.3939 102.57 22.3827C103.117 22.3897 103.661 22.286 104.167 22.0777C104.653 21.8847 105.087 21.5793 105.432 21.1863L107.072 22.8519C106.533 23.4879 105.85 23.9863 105.081 24.3062C104.294 24.6359 103.45 24.8035 102.598 24.7988C101.535 24.8153 100.487 24.5583 99.5523 24.0524C98.6513 23.542 97.9054 22.7964 97.394 21.8951C96.8825 20.994 96.6245 19.9708 96.6475 18.9343C96.6355 18.1649 96.7774 17.4009 97.0645 16.687C97.3516 15.9732 97.7782 15.324 98.3196 14.7777C98.8608 14.2313 99.5056 13.7988 100.216 13.5055C100.927 13.2123 101.689 13.0642 102.457 13.07ZM100.707 15.8614C100.224 16.1423 99.8329 16.5582 99.582 17.0579L99.5799 17.0599C99.4604 17.2883 99.3689 17.5303 99.3073 17.7807H105.291C105.23 17.4719 105.131 17.1723 104.993 16.8894C104.774 16.4361 104.423 16.0599 103.986 15.8103C103.565 15.56 103.042 15.4349 102.417 15.4349C101.819 15.4216 101.228 15.5688 100.707 15.8614ZM116.92 13.3776C116.439 13.1685 115.92 13.0645 115.397 13.0726C114.119 13.0726 113.159 13.5183 112.515 14.4097C112.505 14.4237 112.496 14.4382 112.486 14.4528L112.469 14.479V13.3061H109.892V24.567H112.469V18.3038C112.469 17.3342 112.703 16.6233 113.171 16.1711C113.64 15.7191 114.233 15.4923 114.952 15.4909C115.247 15.4853 115.54 15.533 115.818 15.6317C116.079 15.7323 116.311 15.8931 116.498 16.1009L118.19 14.3628C117.844 13.9444 117.411 13.6079 116.92 13.3776ZM127.644 22.2211C128.644 22.2211 129.488 22.0726 130.174 21.7755C130.849 21.4815 131.455 21.0492 131.952 20.5065L133.779 22.3363C133.024 23.1063 132.125 23.7201 131.132 24.1425C130.117 24.5804 128.954 24.7993 127.642 24.7993C126.511 24.8099 125.388 24.5945 124.341 24.166C123.353 23.7422 122.459 23.1257 121.71 22.3526C120.962 21.5793 120.375 20.6647 119.984 19.662C119.574 18.6086 119.368 17.4871 119.375 16.3566C119.366 15.233 119.573 14.118 119.984 13.0725C120.374 12.0653 120.964 11.1476 121.717 10.3749C122.486 9.58265 123.408 8.95564 124.427 8.53217C125.446 8.10868 126.541 7.89761 127.644 7.91181C128.972 7.91109 130.119 8.13146 131.088 8.5729C132.047 9.00409 132.921 9.60677 133.665 10.3514L131.837 12.1811C131.342 11.6415 130.734 11.2171 130.057 10.9379C129.371 10.6407 128.567 10.4922 127.644 10.4922C126.881 10.484 126.125 10.629 125.419 10.9187C124.753 11.1943 124.155 11.6087 123.662 12.1342C123.166 12.6693 122.783 13.2998 122.537 13.9874C122.265 14.7472 122.13 15.5495 122.139 16.3566C122.131 17.1623 122.266 17.9631 122.537 18.7215C122.786 19.4145 123.168 20.0521 123.662 20.5982C124.16 21.1132 124.757 21.5204 125.419 21.7947C126.125 22.0843 126.881 22.2292 127.644 22.2211ZM143.666 13.8469C142.754 13.325 141.718 13.0577 140.668 13.0728C139.622 13.0599 138.592 13.3358 137.693 13.8704C136.817 14.3733 136.084 15.0919 135.563 15.9581C135.041 16.8551 134.773 17.8777 134.788 18.9159C134.775 19.9604 135.042 20.9892 135.561 21.8951C136.08 22.7742 136.813 23.5076 137.691 24.0276C138.36 24.4233 139.101 24.682 139.871 24.7889C140.641 24.8958 141.424 24.8487 142.176 24.6505C142.928 24.4521 143.633 24.1065 144.25 23.6335C144.867 23.1606 145.385 22.5697 145.772 21.8951C146.306 20.9942 146.583 19.9635 146.571 18.9159C146.586 17.8756 146.31 16.8519 145.775 15.9602C145.272 15.0806 144.544 14.3511 143.666 13.8469ZM143.502 20.671C143.244 21.179 142.845 21.6023 142.354 21.8908C141.84 22.1814 141.258 22.3287 140.668 22.3174C140.078 22.3251 139.497 22.178 138.981 21.8908C138.497 21.5935 138.101 21.1726 137.833 20.671C137.561 20.1254 137.424 19.5217 137.435 18.9116C137.422 18.3089 137.559 17.7124 137.833 17.1758C138.102 16.6876 138.499 16.2822 138.981 16.0028C139.492 15.7025 140.075 15.5483 140.668 15.5572C141.261 15.5444 141.845 15.6989 142.354 16.0028C142.836 16.2825 143.233 16.6878 143.502 17.1758C143.793 17.7075 143.94 18.3057 143.928 18.9116C143.938 19.5255 143.791 20.1318 143.502 20.6731V20.671ZM154.64 13.0727C155.439 13.0594 156.223 13.2884 156.889 13.7296C157.539 14.144 158.073 14.7181 158.439 15.3972C158.803 16.0404 158.994 16.7671 158.993 17.5063V24.5671H156.416V18.0692C156.416 17.3193 156.176 16.7015 155.694 16.2161C155.226 15.7313 154.617 15.4889 153.867 15.4889C153.401 15.4808 152.941 15.5939 152.532 15.8173C152.148 16.0305 151.831 16.3475 151.618 16.7321C151.395 17.1419 151.282 17.6027 151.29 18.0692V24.5671H148.714V13.3073H151.29V14.5815C151.599 14.2102 151.972 13.8977 152.391 13.6592C153.075 13.265 153.852 13.0624 154.64 13.0727ZM169.791 13.7296C169.125 13.2884 168.341 13.0594 167.542 13.0727C166.754 13.0624 165.977 13.265 165.294 13.6592C164.873 13.8974 164.499 14.2099 164.189 14.5815V13.3073H161.612V24.5671H164.189V18.0692C164.182 17.6027 164.295 17.1419 164.517 16.7321C164.73 16.3475 165.048 16.0305 165.431 15.8173C165.84 15.5939 166.3 15.4808 166.767 15.4889C167.516 15.4889 168.125 15.7313 168.593 16.2161C169.079 16.7009 169.32 17.3187 169.32 18.0692V24.5671H171.896V17.5063C171.894 16.7657 171.701 16.0382 171.335 15.3951C170.969 14.7176 170.439 14.1444 169.791 13.7296ZM179.599 13.07C180.647 13.0692 181.57 13.3116 182.366 13.7971C183.167 14.2742 183.82 14.9625 184.256 15.7868C184.734 16.6718 184.977 17.6657 184.958 18.6721C184.958 18.8684 184.942 19.0646 184.912 19.2585C184.892 19.4713 184.86 19.6827 184.817 19.8919H176.43C176.497 20.1774 176.6 20.4532 176.736 20.7129C177.007 21.2337 177.421 21.6654 177.931 21.9563C178.479 22.2471 179.091 22.394 179.711 22.3827C180.259 22.3895 180.802 22.2859 181.308 22.0777C181.794 21.8841 182.227 21.5788 182.574 21.1863L184.213 22.8519C183.673 23.4875 182.991 23.9859 182.222 24.3062C181.436 24.6356 180.591 24.8031 179.739 24.7988C178.677 24.8155 177.629 24.5585 176.694 24.0524C175.793 23.542 175.047 22.7964 174.535 21.8951C174.024 20.994 173.765 19.9708 173.789 18.9343C173.776 18.1649 173.919 17.4009 174.206 16.687C174.492 15.9732 174.919 15.324 175.46 14.7777C176.002 14.2313 176.646 13.7988 177.357 13.5055C178.068 13.2123 178.83 13.0642 179.599 13.07ZM177.848 15.8614C177.365 16.1417 176.974 16.5577 176.723 17.0579L176.721 17.0599C176.601 17.2881 176.51 17.5302 176.449 17.7807H182.43C182.371 17.4719 182.272 17.1721 182.135 16.8894C181.916 16.4363 181.564 16.0603 181.128 15.8103C180.704 15.56 180.182 15.4349 179.557 15.4349C178.96 15.4214 178.37 15.5687 177.848 15.8614ZM190.499 16.0044C191.018 15.7019 191.61 15.5477 192.21 15.5587C192.725 15.5522 193.236 15.6562 193.709 15.8636C194.174 16.0481 194.585 16.3465 194.904 16.7316L196.59 15.0191C196.063 14.3946 195.395 13.903 194.642 13.5839C193.878 13.2365 193.046 13.0603 192.207 13.0679C191.149 13.0546 190.106 13.3216 189.184 13.842C188.307 14.3455 187.58 15.0743 187.077 15.9532C186.554 16.8575 186.286 17.8875 186.303 18.9323C186.29 19.9767 186.557 21.0055 187.077 21.9115C187.58 22.7903 188.307 23.5191 189.184 24.0227C190.015 24.4782 190.937 24.7403 191.881 24.7889C192.827 24.8377 193.77 24.6719 194.642 24.3041C195.392 23.9718 196.056 23.4747 196.587 22.8497L194.901 21.1374C194.578 21.5244 194.168 21.8299 193.706 22.0287C193.23 22.2207 192.72 22.3164 192.207 22.3102C191.61 22.3199 191.02 22.1729 190.496 21.8838C190.017 21.5911 189.622 21.179 189.349 20.6875C189.075 20.1417 188.94 19.538 188.951 18.9281C188.935 18.3177 189.072 17.7131 189.349 17.1687C189.62 16.6833 190.018 16.2807 190.499 16.0044ZM202.551 13.307H205.245V15.6528H202.551V24.5668H199.974V15.6528H197.28V13.307H199.974V8.61546H202.551V13.307Z" fill="white"/>
</svg>
