<svg width="150" height="36" viewBox="0 0 150 36" fill="none" xmlns="http://www.w3.org/2000/svg">
<g clip-path="url(#clip0_2325_42455)">
<path d="M36.2431 4.28564V16.6242L0 31.2034L36.2431 4.28564Z" fill="#00C9FF"/>
<path d="M29.4502 3.75V25.0347C29.4502 28.0092 28.2569 30.8618 26.1327 32.9651C24.0085 35.0684 21.1275 36.25 18.1235 36.25C15.1195 36.25 12.2385 35.0684 10.1144 32.9651C7.99022 30.8618 6.79688 28.0092 6.79688 25.0347V16.0659L13.5917 12.3633V25.0347C13.5281 25.5877 13.5832 26.1478 13.7534 26.6783C13.9236 27.2088 14.205 27.6977 14.5794 28.1129C14.9537 28.5282 15.4124 28.8604 15.9254 29.0879C16.4385 29.3154 16.9942 29.4331 17.5564 29.4331C18.1185 29.4331 18.6743 29.3154 19.1873 29.0879C19.7003 28.8604 20.159 28.5282 20.5333 28.1129C20.9076 27.6977 21.1891 27.2088 21.3593 26.6783C21.5295 26.1478 21.5846 25.5877 21.521 25.0347V8.04533L29.4502 3.75Z" fill="#0D67FE"/>
<path d="M52.78 9.19092V14.6942C52.78 16.5398 51.7197 17.5163 50.3972 17.5163C49.3199 17.5163 48.4762 16.8954 48.4762 15.2078V9.19092H46.5039V15.3488C46.5039 17.7138 47.7808 19.2378 49.8785 19.2378C50.472 19.2438 51.0558 19.0893 51.5672 18.7908C52.0785 18.4924 52.4978 18.0615 52.78 17.5445H52.8142V18.9499H54.7524V9.19092H52.78Z" fill="#0D67FE"/>
<path d="M61.3848 8.90817C60.7776 8.89825 60.1789 9.05017 59.6513 9.34809C59.1238 9.646 58.6869 10.0789 58.3864 10.6015H58.3522V9.19042H56.4141V18.9551H58.3864V13.4518C58.3864 11.6062 59.4809 10.6297 60.8604 10.6297C62.0005 10.6297 62.8897 11.2506 62.8897 12.9383V18.9551H64.8621V12.7802C64.8621 10.4322 63.5566 8.90817 61.3848 8.90817Z" fill="#0D67FE"/>
<path d="M70.7254 13.0413H70.3493C68.6391 13.0413 68.3028 12.7422 68.3028 11.9802C68.3028 11.2182 68.9868 10.5917 70.258 10.5917C70.5015 10.5728 70.7463 10.6044 70.9766 10.6848C71.207 10.7652 71.4178 10.8923 71.5955 11.0583C71.7733 11.2241 71.9139 11.425 72.0085 11.6479C72.1032 11.8708 72.1496 12.1109 72.1448 12.3528H74.2027C74.0602 10.3828 72.5895 8.90967 70.258 8.90967C67.5902 8.90967 66.2677 10.4675 66.2677 11.9802C66.2677 13.7356 67.7384 14.7459 69.5853 14.7459H70.1212C71.8313 14.7459 72.3443 15.141 72.3443 16.078C72.3443 16.9133 71.4836 17.5512 70.1953 17.5512C69.6758 17.5789 69.1662 17.4023 68.7776 17.0598C68.3889 16.7173 68.1527 16.2366 68.1203 15.7223H66.0625C66.1879 17.7487 67.8696 19.2388 70.1668 19.2388C72.9258 19.2388 74.3623 17.6583 74.3623 16.078C74.3908 14.2662 72.9486 13.0413 70.7254 13.0413Z" fill="#0D67FE"/>
<path d="M80.5854 10.8961V9.20275H77.9119V7.84814H75.9453V9.1915H74.332V10.8848H75.9453V16.3316C75.9453 18.1603 76.9144 18.9448 78.7441 18.9448H80.5911V17.2516H78.9209C78.7835 17.2596 78.6461 17.238 78.518 17.1883C78.3899 17.1387 78.2742 17.0622 78.1789 16.964C78.0835 16.8658 78.0108 16.7483 77.9657 16.6197C77.9206 16.491 77.9042 16.3543 77.9176 16.2187V10.8961H80.5854Z" fill="#0D67FE"/>
<path d="M86.1432 8.90967C83.3782 8.90967 81.1953 10.7553 81.1953 14.0743C81.1953 17.3931 83.3782 19.2388 86.1432 19.2388C88.9082 19.2388 91.0916 17.3762 91.0916 14.0743C91.0916 10.7723 88.9024 8.90967 86.1432 8.90967ZM86.1432 17.5512C84.5299 17.5512 83.2361 16.4223 83.2361 14.0743C83.2361 11.7262 84.5299 10.5748 86.1432 10.5917C87.7566 10.6086 89.0449 11.6923 89.0449 14.0743C89.0449 16.4562 87.7566 17.5342 86.1432 17.5512Z" fill="#0D67FE"/>
<path d="M97.7607 8.90874C97.0898 8.89341 96.4265 9.05007 95.8357 9.36357C95.244 9.67716 94.7448 10.1368 94.3857 10.698H94.3407C94.3748 10.3085 94.3748 10.0263 94.3748 9.67074V9.19091H92.4023V20.6828H94.3748V18.5267C94.3748 18.1542 94.3748 17.855 94.3407 17.4429H94.3748C94.7265 18.0136 95.2257 18.4809 95.8207 18.7964C96.4165 19.112 97.0857 19.2644 97.7607 19.2378C100.177 19.2378 102.321 17.4091 102.321 14.0168C102.321 10.6246 100.183 8.90874 97.7607 8.90874ZM97.259 17.5502C95.429 17.5502 94.369 15.9923 94.369 13.9999C94.369 12.1203 95.429 10.6133 97.259 10.6133C99.089 10.6133 100.235 11.9849 100.235 14.0394C100.235 16.094 99.0548 17.5672 97.2648 17.5502H97.259Z" fill="#0D67FE"/>
<path d="M109.019 8.90874C108.349 8.89341 107.685 9.05007 107.094 9.36357C106.503 9.67716 106.004 10.1368 105.644 10.698H105.61C105.644 10.3085 105.644 10.0263 105.644 9.67074V9.19091H103.672V20.6828H105.644V18.5267C105.644 18.1542 105.644 17.855 105.61 17.4429H105.644C105.995 18.0119 106.493 18.4781 107.086 18.7935C107.679 19.109 108.346 19.2623 109.019 19.2378C111.436 19.2378 113.551 17.4091 113.551 14.0168C113.551 10.6246 111.442 8.90874 109.019 8.90874ZM108.518 17.5502C106.688 17.5502 105.627 15.9923 105.627 13.9999C105.627 12.1203 106.688 10.6133 108.518 10.6133C110.347 10.6133 111.493 11.9849 111.493 14.0394C111.493 16.094 110.302 17.5672 108.518 17.5502Z" fill="#0D67FE"/>
<path d="M123.701 17.252C123.433 17.252 123.308 17.0883 123.308 16.7723V12.4769C123.308 10.4167 122.304 8.90967 119.346 8.90967C116.495 8.90967 115.168 10.3264 115.025 12.3528H116.997C117.123 11.2238 118 10.5917 119.346 10.5917C120.486 10.5917 121.283 11.094 121.283 11.8729C121.283 12.5108 120.833 12.9002 119.363 12.9002H118.576C116.228 12.9002 114.648 13.8428 114.648 15.9933C114.648 18.251 116.313 19.2727 118.268 19.2727C119.722 19.2727 120.959 18.6348 121.443 17.2689C121.495 18.2623 122.162 18.9622 123.416 18.9622H124.556V17.2689L123.701 17.252ZM121.335 14.4298C121.335 16.6311 120.133 17.585 118.593 17.585C117.248 17.585 116.712 16.8061 116.712 16.0103C116.712 15.2144 117.174 14.6218 118.61 14.6218H118.895C120.275 14.6218 121.136 14.1419 121.318 13.3066L121.335 14.4298Z" fill="#0D67FE"/>
<path d="M131.103 8.90917C130.433 8.89367 129.771 9.05033 129.18 9.36392C128.59 9.6775 128.092 10.1373 127.734 10.6984H127.694C127.727 10.3569 127.74 10.014 127.734 9.67108V6.07568H125.762V18.956H127.734V18.5271C127.74 18.1654 127.727 17.8037 127.694 17.4433H127.734C128.084 18.0118 128.581 18.4777 129.173 18.7932C129.765 19.1087 130.431 19.2623 131.103 19.2383C133.526 19.2383 135.663 17.4095 135.663 14.0173C135.663 10.625 133.526 8.90917 131.103 8.90917ZM130.602 17.5506C128.772 17.5506 127.717 15.9928 127.717 14.0003C127.717 12.1208 128.772 10.6138 130.602 10.6138C132.431 10.6138 133.577 11.9853 133.577 14.0398C133.577 16.0943 132.392 17.5675 130.602 17.5506Z" fill="#0D67FE"/>
<path d="M136.895 6.07568V18.956H138.867V6.07568H136.895Z" fill="#0D67FE"/>
<path d="M150 13.1881C150 10.7384 148.028 8.90967 145.337 8.90967C142.487 8.90967 140.48 10.84 140.48 14.0743C140.48 17.1786 142.43 19.2388 145.337 19.2388C147.72 19.2388 149.499 17.8559 149.898 15.9538H147.749C147.565 16.4384 147.233 16.8536 146.798 17.1403C146.363 17.4271 145.848 17.5708 145.326 17.5512C143.855 17.5512 142.778 16.5069 142.544 14.7685H149.989L150 13.1881ZM142.59 13.0244C142.67 12.3553 142.995 11.7386 143.504 11.2905C144.012 10.8423 144.668 10.5938 145.349 10.5917C146.022 10.5882 146.672 10.837 147.168 11.2882C147.664 11.7394 147.969 12.3597 148.022 13.0244H142.59Z" fill="#0D67FE"/>
<path d="M54.2964 20.6836V24.2226C54.2964 24.5951 54.2964 24.8999 54.3306 25.3063H54.2964C53.9449 24.7397 53.4479 24.2755 52.856 23.9612C52.2642 23.6468 51.5987 23.4936 50.9275 23.5171C48.4878 23.5171 46.3672 25.3063 46.3672 28.5969C46.3672 31.9835 48.4649 33.8518 50.9275 33.8518C51.5976 33.865 52.2598 33.7068 52.8499 33.3923C53.4402 33.0778 53.9384 32.6179 54.2964 32.0569H54.3306C54.2964 32.452 54.2964 32.7343 54.2964 33.0898V33.5696H56.2688V20.6836H54.2964ZM51.4463 32.1585C49.6335 32.1585 48.4479 30.7192 48.4479 28.5913C48.4479 26.4634 49.6335 25.2047 51.4463 25.2047C53.2589 25.2047 54.2964 26.7004 54.2964 28.5913C54.2964 30.5838 53.2362 32.1642 51.4292 32.1811L51.4463 32.1585Z" fill="#0D67FE"/>
<path d="M62.8307 23.5386C60.0661 23.5386 57.8828 25.3842 57.8828 28.7032C57.8828 32.022 60.0661 33.8677 62.8307 33.8677C65.5954 33.8677 67.7786 32.0051 67.7786 28.7032C67.7786 25.4012 65.5897 23.5386 62.8307 23.5386ZM62.8307 32.18C61.2176 32.18 59.9236 31.0512 59.9236 28.7032C59.9236 26.3551 61.2176 25.2037 62.8307 25.2206C64.444 25.2375 65.7322 26.3494 65.7322 28.7032C65.7322 31.0568 64.444 32.1631 62.8307 32.18Z" fill="#0D67FE"/>
<path d="M80.3053 23.5399C79.6801 23.5223 79.0622 23.6772 78.5207 23.9872C77.9791 24.2971 77.5352 24.75 77.2386 25.2953H77.1872L77.2386 25.7638C77.0592 25.109 76.66 24.5343 76.1067 24.1342C75.5534 23.7341 74.879 23.5324 74.1946 23.5625C73.6095 23.5694 73.0375 23.7353 72.541 24.0418C72.0445 24.3483 71.6424 24.7838 71.3786 25.3009H71.3443V23.8222H69.4062V33.5868H71.3786V28.0836C71.3786 26.2379 72.4331 25.2614 73.6929 25.2614C74.7475 25.2614 75.4999 25.9501 75.4999 27.57V33.5868H77.4722V28.0667C77.4722 26.221 78.5667 25.2784 79.8208 25.2784C80.8811 25.2784 81.6164 25.967 81.6164 27.5869V33.5868H83.5887V27.4233C83.5887 25.0639 82.3119 23.5399 80.3053 23.5399Z" fill="#0D67FE"/>
<path d="M94.2547 31.8809C93.9864 31.8809 93.8614 31.7172 93.8614 31.4011V27.1057C93.8614 25.0456 92.8522 23.5386 89.8714 23.5386C87.0205 23.5386 85.698 24.9553 85.5555 26.9816H87.528C87.6539 25.881 88.5314 25.2206 89.8714 25.2206C91.0114 25.2206 91.8088 25.7172 91.8088 26.5018C91.8088 27.1397 91.3647 27.5291 89.8939 27.5291H89.1013C86.753 27.5291 85.1797 28.4717 85.1797 30.6166C85.1797 32.8742 86.8438 33.9016 88.7988 33.9016C90.253 33.9016 91.4897 33.2637 91.9689 31.8978C92.0255 32.8912 92.6872 33.5911 93.9414 33.5911H95.0522V31.8978L94.2547 31.8809ZM91.8889 29.0587C91.8889 31.26 90.6864 32.2139 89.1414 32.2139C87.8014 32.2139 87.2605 31.435 87.2605 30.6335C87.2605 29.832 87.7272 29.2507 89.1639 29.2507H89.4488C90.8288 29.2507 91.6897 28.7708 91.8663 27.9355L91.8889 29.0587Z" fill="#0D67FE"/>
<path d="M96.2773 23.8218V33.5864H98.2498V23.8218H96.2773Z" fill="#0D67FE"/>
<path d="M105.422 23.5391C104.815 23.5289 104.217 23.6808 103.69 23.9788C103.165 24.2768 102.729 24.7098 102.43 25.2323H102.39V23.8212H100.457V33.5859H102.43V28.0827C102.43 26.237 103.524 25.2606 104.903 25.2606C106.043 25.2606 106.927 25.8814 106.927 27.5691V33.5859H108.9V27.4223C108.9 25.063 107.571 23.5391 105.422 23.5391Z" fill="#0D67FE"/>
<path d="M115.117 27.6713H114.741C113.031 27.6713 112.7 27.3722 112.7 26.6102C112.7 25.8482 113.378 25.1991 114.655 25.1991C114.898 25.1801 115.143 25.2118 115.373 25.2922C115.603 25.3726 115.813 25.4999 115.991 25.6658C116.168 25.8318 116.308 26.0328 116.402 26.2557C116.496 26.4787 116.542 26.7186 116.537 26.9601H118.594C118.452 24.9903 116.981 23.5171 114.655 23.5171C111.982 23.5171 110.665 25.0749 110.665 26.5876C110.665 28.343 112.136 29.3533 113.982 29.3533H114.518C116.228 29.3533 116.742 29.7428 116.742 30.6853C116.742 31.5208 115.881 32.1586 114.592 32.1586C114.077 32.1788 113.576 31.9987 113.193 31.6569C112.811 31.3152 112.578 30.8388 112.546 30.3298H110.488C110.613 32.3561 112.295 33.8462 114.592 33.8462C117.352 33.8462 118.788 32.2658 118.788 30.6853C118.777 28.8961 117.34 27.6713 115.117 27.6713Z" fill="#0D67FE"/>
</g>
<defs>
<clipPath id="clip0_2325_42455">
<rect width="150" height="40" fill="white"/>
</clipPath>
</defs>
</svg>
