<svg width="110" height="42" viewBox="0 0 110 42" fill="none" xmlns="http://www.w3.org/2000/svg">
<g clip-path="url(#clip0_2325_42444)">
<path d="M48.5469 32.444V10.0988C48.5494 10.0704 48.5622 10.044 48.5828 10.0243C48.6034 10.0047 48.6305 9.99325 48.6589 9.99207H62.8568C62.8879 9.99207 62.9178 10.0044 62.9398 10.0264C62.9618 10.0485 62.9742 10.0783 62.9742 10.1094V12.9533C62.9742 12.9844 62.9618 13.0143 62.9398 13.0363C62.9178 13.0583 62.8879 13.0707 62.8568 13.0707H51.9723V19.6547H61.2294C61.2606 19.6547 61.2904 19.6671 61.3124 19.6891C61.3345 19.7111 61.3468 19.741 61.3468 19.7721V22.5839C61.3468 22.6151 61.3345 22.6449 61.3124 22.6669C61.2904 22.6889 61.2606 22.7013 61.2294 22.7013H51.9723V29.4828H62.8568C62.8879 29.4828 62.9178 29.4951 62.9398 29.5172C62.9618 29.5392 62.9742 29.569 62.9742 29.6002V32.444C62.9742 32.4751 62.9618 32.505 62.9398 32.527C62.9178 32.549 62.8879 32.5614 62.8568 32.5614H48.6589C48.6287 32.56 48.6002 32.547 48.5793 32.5252C48.5585 32.5033 48.5468 32.4742 48.5469 32.444ZM83.8521 32.5027L73.4638 16.6828V32.4387C73.4638 32.4698 73.4515 32.4996 73.4294 32.5217C73.4074 32.5437 73.3776 32.556 73.3464 32.556H70.1451C70.114 32.556 70.0841 32.5437 70.0621 32.5217C70.0401 32.4996 70.0277 32.4698 70.0277 32.4387V10.1148C70.0277 10.0837 70.0401 10.0538 70.0621 10.0318C70.0841 10.0098 70.114 9.9974 70.1451 9.9974H73.1063C73.1255 9.99779 73.1442 10.0029 73.161 10.0122C73.1777 10.0215 73.1919 10.0347 73.2024 10.0508L83.6013 25.8386V10.1148C83.6013 10.0837 83.6137 10.0538 83.6357 10.0318C83.6577 10.0098 83.6876 9.9974 83.7187 9.9974H86.92C86.9512 9.9974 86.981 10.0098 87.003 10.0318C87.0251 10.0538 87.0374 10.0837 87.0374 10.1148V32.4387C87.0374 32.4698 87.0251 32.4996 87.003 32.5217C86.981 32.5437 86.9512 32.556 86.92 32.556H83.9481C83.929 32.5557 83.9102 32.5506 83.8935 32.5413C83.8768 32.532 83.8625 32.5187 83.8521 32.5027ZM97.5111 28.2236V29.2907C98.8828 29.5885 100.28 29.7529 101.683 29.7816C103.071 29.7533 104.452 29.5907 105.808 29.296V24.2379L94.187 20.1776C94.1654 20.1692 94.1468 20.1545 94.1335 20.1356C94.1202 20.1166 94.1129 20.0941 94.1123 20.0709V10.7817C94.1103 10.758 94.1166 10.7343 94.1303 10.7148C94.1439 10.6953 94.164 10.6812 94.187 10.675C96.6095 9.9982 99.1097 9.63949 101.625 9.60791C104.15 9.6411 106.661 9.99976 109.095 10.675C109.118 10.6812 109.138 10.6953 109.151 10.7148C109.165 10.7343 109.171 10.758 109.169 10.7817V14.2872C109.169 14.3183 109.157 14.3482 109.135 14.3702C109.113 14.3922 109.083 14.4046 109.052 14.4046H105.909C105.878 14.4046 105.848 14.3922 105.826 14.3702C105.804 14.3482 105.792 14.3183 105.792 14.2872V13.2201C104.42 12.9243 103.023 12.7617 101.619 12.7345C100.232 12.7618 98.8513 12.9226 97.4951 13.2147L97.5111 17.9954L109.089 22.0504C109.111 22.0588 109.129 22.0734 109.143 22.0924C109.156 22.1114 109.163 22.1339 109.164 22.1571V31.7344C109.166 31.7581 109.16 31.7818 109.146 31.8013C109.132 31.8208 109.112 31.8349 109.089 31.8411C106.667 32.5178 104.166 32.8765 101.651 32.9082C99.126 32.8748 96.6155 32.5161 94.1817 31.8411C94.1587 31.8349 94.1386 31.8208 94.1249 31.8013C94.1113 31.7818 94.1049 31.7581 94.107 31.7344V28.2236C94.107 28.1925 94.1194 28.1626 94.1414 28.1406C94.1634 28.1186 94.1932 28.1062 94.2244 28.1062H97.3617C97.3795 28.1011 97.3983 28.1004 97.4165 28.1039C97.4346 28.1075 97.4517 28.1154 97.4663 28.1268C97.4809 28.1383 97.4925 28.153 97.5003 28.1698C97.5081 28.1866 97.5118 28.2051 97.5111 28.2236Z" fill="black"/>
</g>
<g clip-path="url(#clip1_2325_42444)">
<path d="M4.81482 16.992C5.22989 17.8792 6.25719 19.6329 6.25719 19.6329L18.1334 0L6.54255 8.09389C5.8519 8.55463 5.28527 9.17829 4.89265 9.90982C4.36474 11.0134 4.08426 12.219 4.07082 13.4423C4.05738 14.6656 4.31129 15.877 4.81482 16.992Z" fill="url(#paint0_linear_2325_42444)"/>
<path d="M0.108835 23.4567C0.239703 25.3347 0.770302 27.163 1.6651 28.8193C2.5599 30.4756 3.79825 31.9216 5.29722 33.0604L18.1177 42C18.1177 42 10.0965 30.4403 3.33082 18.9376C2.64587 17.7224 2.1854 16.3937 1.97147 15.0152C1.87676 14.391 1.87676 13.7561 1.97147 13.1318C1.79506 13.4587 1.45263 14.128 1.45263 14.128C0.766614 15.5271 0.299408 17.0232 0.0673281 18.5641C-0.0662552 20.1929 -0.0523631 21.8304 0.108835 23.4567Z" fill="#A0A8D4"/>
<path d="M32.8147 25.0081C32.3996 24.1209 31.3723 22.3672 31.3723 22.3672L19.4961 42L31.087 33.9114C31.7776 33.4506 32.3442 32.8269 32.7369 32.0954C33.2655 30.9911 33.5465 29.7846 33.5599 28.5604C33.5733 27.3361 33.319 26.1237 32.8147 25.0081Z" fill="url(#paint1_linear_2325_42444)"/>
<path d="M37.5206 18.5433C37.3897 16.6653 36.8591 14.837 35.9643 13.1807C35.0695 11.5244 33.8312 10.0785 32.3322 8.93959L19.5117 0C19.5117 0 27.5278 11.5597 34.2986 23.0624C34.9818 24.278 35.4405 25.6067 35.6528 26.9848C35.7475 27.609 35.7475 28.244 35.6528 28.8682C35.8292 28.5413 36.1716 27.872 36.1716 27.872C36.8576 26.4729 37.3249 24.9768 37.5569 23.436C37.6922 21.8073 37.6801 20.1698 37.5206 18.5433Z" fill="#A0A8D4"/>
<path style="mix-blend-mode:color" d="M4.89253 9.90982C5.28515 9.17829 5.85178 8.55463 6.54244 8.09389L18.1333 0L6.25708 19.6381C6.25708 19.6381 5.2194 17.8844 4.8147 16.9972C4.31039 15.8815 4.05605 14.6691 4.0695 13.4449C4.08294 12.2206 4.36384 11.0141 4.89253 9.90982ZM0.108835 23.4567C0.239703 25.3347 0.770302 27.163 1.6651 28.8193C2.5599 30.4756 3.79825 31.9216 5.29722 33.0604L18.1177 42C18.1177 42 10.0965 30.4403 3.33082 18.9376C2.64587 17.7224 2.1854 16.3937 1.97147 15.0152C1.87676 14.391 1.87676 13.756 1.97147 13.1318C1.79506 13.4587 1.45263 14.128 1.45263 14.128C0.766614 15.5271 0.299408 17.0232 0.0673282 18.5641C-0.0662552 20.1929 -0.0523631 21.8304 0.108835 23.4567ZM32.7957 25.0132C32.3806 24.126 31.3533 22.3723 31.3533 22.3723L19.4978 42L31.0887 33.9113C31.7794 33.4506 32.346 32.8269 32.7386 32.0954C33.2673 30.9911 33.5482 29.7846 33.5616 28.5603C33.5751 27.3361 33.3207 26.1237 32.8164 25.008L32.7957 25.0132ZM37.5015 18.5485C37.3707 16.6705 36.8401 14.8422 35.9453 13.1859C35.0505 11.5296 33.8121 10.0836 32.3132 8.94478L19.5134 0C19.5134 0 27.5295 11.5597 34.3003 23.0624C34.9835 24.278 35.4422 25.6067 35.6545 26.9848C35.7492 27.609 35.7492 28.244 35.6545 28.8682C35.8309 28.5413 36.1733 27.872 36.1733 27.872C36.8593 26.4729 37.3265 24.9768 37.5586 23.436C37.6939 21.8073 37.6818 20.1698 37.5223 18.5433L37.5015 18.5485Z" fill="url(#paint2_linear_2325_42444)"/>
</g>
<defs>
<linearGradient id="paint0_linear_2325_42444" x1="18.6522" y1="0.48252" x2="3.40876" y2="17.0075" gradientUnits="userSpaceOnUse">
<stop offset="0.58" stop-color="#A0A8D4"/>
<stop offset="0.73" stop-color="#8791C7"/>
<stop offset="0.91" stop-color="#6470B4"/>
</linearGradient>
<linearGradient id="paint1_linear_2325_42444" x1="18.9721" y1="41.5175" x2="34.2207" y2="24.9925" gradientUnits="userSpaceOnUse">
<stop offset="0.58" stop-color="#A0A8D4"/>
<stop offset="0.73" stop-color="#8791C7"/>
<stop offset="0.91" stop-color="#6470B4"/>
</linearGradient>
<linearGradient id="paint2_linear_2325_42444" x1="18.813" y1="-0.207536" x2="18.813" y2="42.1297" gradientUnits="userSpaceOnUse">
<stop stop-color="#513EFF"/>
<stop offset="0.18" stop-color="#5157FF"/>
<stop offset="0.57" stop-color="#5298FF"/>
<stop offset="1" stop-color="#52E5FF"/>
</linearGradient>
<clipPath id="clip0_2325_42444">
<rect width="60.6223" height="23.3163" fill="white" transform="translate(48.5469 9.60303)"/>
</clipPath>
<clipPath id="clip1_2325_42444">
<rect width="37.6262" height="42" fill="white"/>
</clipPath>
</defs>
</svg>
