<svg xmlns="http://www.w3.org/2000/svg" width="139" height="38" fill="#9ca3af" xmlns:v="https://vecta.io/nano"><path fill-rule="evenodd" d="M38.029 7.273C38.029 3.256 34.8 0 30.817 0s-7.213 3.256-7.213 7.273a7.28 7.28 0 0 0 2.035 5.062l-1.85 2.809-5.948-9.189c-.104-.16-.247-.291-.417-.379s-.358-.132-.549-.125-.377.062-.54.161-.297.239-.39.406L5.591 24.58h-3.98c-.613 0-1.11.5-1.11 1.118s.497 1.118 1.109 1.118h36.796c.011 0 .023 0 .034 0h4.612c.613 0 1.11-.5 1.11-1.118s-.497-1.118-1.11-1.118h-3.98l-5.814-10.462a7.27 7.27 0 0 0 4.771-6.845zM29.895 24.58l-4.788-7.397 3.965-6.021 7.457 13.418h-6.634zM16.98 8.72l10.267 15.86H8.135L16.98 8.72zm17.937 1.666a5.17 5.17 0 0 0 1.032-3.113c0-2.859-2.298-5.176-5.133-5.176s-5.134 2.317-5.134 5.176a5.18 5.18 0 0 0 1.144 3.257l1.402-2.13c.105-.159.249-.288.418-.375s.358-.129.548-.122.375.063.537.163.296.239.388.406l2.101 3.781a5.17 5.17 0 0 0 2.696-1.867z"/><path d="M9.013 31.29c0-.617.496-1.117 1.107-1.117h24.421c.611 0 1.107.5 1.107 1.117a1.11 1.11 0 0 1-1.108 1.116H10.12a1.11 1.11 0 0 1-1.107-1.116zm8.51 5.592c0-.618.497-1.119 1.11-1.119h7.395c.613 0 1.11.501 1.11 1.119S26.641 38 26.029 38h-7.396c-.613 0-1.11-.501-1.11-1.118z"/><path d="M120.527 16.871c-.982-1.25-2.453-1.923-4.347-1.923-2.984 0-6.049 2.528-6.049 6.786s3.065 6.786 6.049 6.786c1.894 0 3.365-.66 4.347-1.923v1.058c0 2.445-1.472 3.929-4.142 3.929-1.594 0-3.107-.523-4.428-1.333l-1.036 2.432c1.376.989 3.515 1.525 5.464 1.525 4.36 0 7.003-2.541 7.003-6.677v-12.24h-2.861v1.58zm-7.467 4.863c0-2.225 1.444-4.08 3.855-4.08 2.303 0 3.857 1.773 3.857 4.08s-1.554 4.08-3.857 4.08c-2.411 0-3.855-1.867-3.855-4.08zm-8.219-4.849c-.899-1.168-2.248-1.937-4.101-1.937-3.65 0-6.526 2.898-6.526 6.923s2.875 6.924 6.526 6.924c1.854 0 3.202-.755 4.101-1.923v1.58h2.848v-13.16h-2.848v1.593zm-7.698 4.986c0-2.307 1.486-4.217 3.938-4.217 2.357 0 3.938 1.813 3.938 4.217s-1.581 4.218-3.938 4.218c-2.452 0-3.938-1.91-3.938-4.218zm41.357-.013c-.013-4.107-2.52-6.91-6.172-6.91-3.842 0-6.499 2.803-6.499 6.924 0 4.176 2.766 6.924 6.676 6.924 1.976 0 3.774-.48 5.368-1.854l-1.417-2.048c-1.076.865-2.466 1.388-3.774 1.388-1.853 0-3.501-.99-3.883-3.353h9.647l.054-1.071zm-9.687-1.113c.3-1.923 1.43-3.242 3.46-3.242 1.813 0 2.998 1.195 3.311 3.242h-6.771z" fill-rule="evenodd"/><path d="M64.832 22.956L59.287 9.219h-4.728v19.233h3.08V12.777L63.21 26.57h3.243l5.573-13.944v15.826h3.08V9.219h-4.729l-5.544 13.737zm16.872-7.664v13.16h-2.861v-13.16h2.861zm12.182.027h0z"/><path d="M91.692 14.949c.872 0 1.54.109 2.194.37l-.682 2.842c-.599-.316-1.471-.481-2.166-.481-1.812 0-3.106 1.292-3.106 3.53v7.24h-2.848V15.29h2.82v1.485c.858-1.25 2.194-1.826 3.788-1.826zM80.259 8.711c1.131 0 2.017.893 2.017 2.033a1.98 1.98 0 0 1-2.017 2.006c-1.13 0-1.99-.866-1.99-2.006s.86-2.033 1.99-2.033z"/></svg>