<svg width="150" height="40" viewBox="0 0 150 40" fill="none" xmlns="http://www.w3.org/2000/svg">
<path d="M36.26 4.57031V16.999L0 31.7083L36.26 4.57031Z" fill="#00C9FF"/>
<path d="M29.4761 4V25.4937C29.4761 31.7651 24.402 36.8392 18.1307 36.8392C11.8593 36.8392 6.78516 31.7651 6.78516 25.4937V16.4287L13.5696 12.6659V25.4937C13.5696 27.6602 15.337 29.4846 17.5605 29.4846C19.784 29.4846 21.5514 27.7172 21.5514 25.4937V8.33295L29.4761 4Z" fill="#FFFCF0"/>
<path d="M52.7932 9.47363V15.0038C52.7932 16.8853 51.71 17.8545 50.3987 17.8545C49.3155 17.8545 48.4603 17.2273 48.4603 15.517V9.47363H46.4648V15.688C46.4648 18.0825 47.7191 19.6219 49.8286 19.6219C51.3679 19.6219 52.2231 18.7097 52.7362 17.9115H52.7932V19.3368H54.7317V9.47363H52.7932Z" fill="#FFFCF0"/>
<path d="M61.3999 9.18848C59.8036 9.18848 58.8914 10.1007 58.3783 10.8989H58.3212V9.47354H56.3828V19.3367H58.3783V13.8065C58.3783 11.9251 59.4615 10.9559 60.8298 10.9559C61.97 10.9559 62.8822 11.583 62.8822 13.2934V19.3367H64.8777V13.1223C64.8777 10.7278 63.5664 9.18848 61.3999 9.18848Z" fill="#FFFCF0"/>
<path d="M70.7516 13.4074H70.3525C68.6421 13.4074 68.3 13.1223 68.3 12.3242C68.3 11.526 68.9842 10.8989 70.2385 10.8989C71.3787 10.8989 72.0058 11.526 72.1199 12.6662H74.1723C74.0013 10.6708 72.576 9.18848 70.2385 9.18848C67.5589 9.18848 66.2476 10.7848 66.2476 12.2672C66.2476 14.0345 67.7299 15.0608 69.5543 15.0608H70.0674C71.7778 15.0608 72.2909 15.4599 72.2909 16.4291C72.2909 17.2843 71.4357 17.9114 70.1244 17.9114C68.9842 17.9114 68.186 17.1132 68.072 16.087H66.0195C66.1336 18.1394 67.8439 19.6218 70.1244 19.6218C72.861 19.6218 74.3434 18.0254 74.3434 16.4291C74.4004 14.6047 72.9751 13.4074 70.7516 13.4074Z" fill="#FFFCF0"/>
<path d="M80.6151 11.2413V9.5309H77.9355V8.1626H75.9401V9.5309H74.3438V11.2413H75.9401V16.7715C75.9401 18.5959 76.9093 19.3941 78.7337 19.3941H80.5581V17.6837H78.9048C78.3346 17.6837 77.8785 17.2846 77.8785 16.6575V11.2983H80.6151V11.2413Z" fill="#FFFCF0"/>
<path d="M86.1437 9.18848C83.4071 9.18848 81.1836 11.0699 81.1836 14.4336C81.1836 17.7404 83.3501 19.6788 86.1437 19.6788C88.9373 19.6788 91.1038 17.7974 91.1038 14.4336C91.1038 11.0699 88.9373 9.18848 86.1437 9.18848ZM86.1437 17.9684C84.5473 17.9684 83.236 16.8282 83.236 14.4336C83.236 12.0391 84.5473 10.8989 86.1437 10.8989C87.74 10.8989 89.0513 11.9821 89.0513 14.4336C89.0513 16.8282 87.74 17.9114 86.1437 17.9684Z" fill="#FFFCF0"/>
<path d="M97.7771 9.18848C96.4088 9.18848 95.1546 9.81561 94.4134 11.0129H94.3564C94.4134 10.6138 94.4134 10.3287 94.4134 9.98665V9.53055H92.418V21.1041H94.4134V18.8806C94.4134 18.4815 94.4134 18.1965 94.3564 17.7974H94.4134C95.1546 18.9946 96.3518 19.6218 97.7771 19.6218C100.172 19.6218 102.338 17.7974 102.338 14.3766C102.338 11.0129 100.229 9.18848 97.7771 9.18848ZM97.264 17.9684C95.4396 17.9684 94.3564 16.3721 94.3564 14.3766C94.3564 12.4952 95.4396 10.9559 97.264 10.9559C99.0314 10.9559 100.229 12.3242 100.229 14.4336C100.229 16.4861 99.0884 17.9684 97.264 17.9684Z" fill="#FFFCF0"/>
<path d="M109.008 9.18848C107.639 9.18848 106.385 9.81561 105.644 11.0129H105.587C105.644 10.6138 105.644 10.3287 105.644 9.98665V9.53055H103.648V21.1041H105.644V18.8806C105.644 18.4815 105.644 18.1965 105.587 17.7974H105.644C106.385 18.9946 107.582 19.6218 109.008 19.6218C111.402 19.6218 113.569 17.7974 113.569 14.3766C113.569 11.0129 111.459 9.18848 109.008 9.18848ZM108.552 17.9684C106.727 17.9684 105.644 16.3721 105.644 14.3766C105.644 12.4952 106.727 10.9559 108.552 10.9559C110.319 10.9559 111.516 12.3242 111.516 14.4336C111.516 16.4861 110.319 17.9684 108.552 17.9684Z" fill="#FFFCF0"/>
<path d="M123.716 17.6264C123.431 17.6264 123.317 17.4554 123.317 17.1703V12.8374C123.317 10.7849 122.29 9.24561 119.326 9.24561C116.475 9.24561 115.164 10.6709 114.993 12.7234H116.988C117.102 11.6401 118.015 10.956 119.326 10.956C120.466 10.956 121.264 11.4691 121.264 12.2673C121.264 12.8944 120.808 13.2935 119.326 13.2935H118.528C116.19 13.2935 114.594 14.2627 114.594 16.4292C114.594 18.7097 116.247 19.7359 118.243 19.7359C119.668 19.7359 120.922 19.1088 121.435 17.6835C121.492 18.7097 122.176 19.3938 123.431 19.3938H124.514V17.6835H123.716V17.6264ZM121.378 14.7758C121.378 16.9993 120.181 17.9685 118.642 17.9685C117.273 17.9685 116.76 17.1703 116.76 16.3722C116.76 15.574 117.216 14.9469 118.642 14.9469H118.927C120.295 14.9469 121.15 14.4908 121.321 13.6356V14.7758H121.378Z" fill="#FFFCF0"/>
<path d="M131.129 9.18852C129.76 9.18852 128.506 9.81565 127.765 11.0129H127.708C127.765 10.6138 127.765 10.3288 127.765 9.98669V6.33789H125.77V19.3368H127.765V18.8806C127.765 18.4816 127.765 18.1965 127.708 17.7974H127.765C128.506 18.9947 129.703 19.6218 131.129 19.6218C133.523 19.6218 135.69 17.7974 135.69 14.3767C135.633 11.0129 133.523 9.18852 131.129 9.18852ZM130.616 17.9684C128.791 17.9684 127.708 16.3721 127.708 14.3767C127.708 12.4952 128.791 10.9559 130.616 10.9559C132.383 10.9559 133.58 12.3242 133.58 14.4337C133.58 16.4861 132.44 17.9684 130.616 17.9684Z" fill="#FFFCF0"/>
<path d="M136.887 6.33789V19.3368H138.882V6.33789H136.887Z" fill="#FFFCF0"/>
<path d="M149.998 13.5214C149.998 11.0699 148.002 9.18848 145.323 9.18848C142.472 9.18848 140.477 11.1269 140.477 14.4336C140.477 17.5693 142.415 19.6788 145.323 19.6788C147.717 19.6788 149.485 18.2535 149.884 16.3721H147.717C147.375 17.3413 146.463 17.9684 145.323 17.9684C143.84 17.9684 142.757 16.8852 142.529 15.1748H149.998V13.5214ZM142.586 13.3504C142.814 11.9251 143.84 10.8989 145.323 10.8989C146.748 10.8989 147.774 11.9251 148.002 13.3504H142.586Z" fill="#FFFCF0"/>
<path d="M54.2763 21.104V24.6958C54.2763 25.0949 54.2763 25.3799 54.3333 25.779H54.2763C53.5351 24.5818 52.3379 23.9546 50.9126 23.9546C48.461 23.9546 46.3516 25.779 46.3516 29.0858C46.3516 32.5065 48.461 34.3879 50.9126 34.3879C52.2809 34.3879 53.5351 33.7608 54.2763 32.5635H54.3333C54.2763 32.9626 54.2763 33.2477 54.2763 33.5898V34.0458H56.2717V21.104H54.2763ZM51.4257 32.7346C49.6013 32.7346 48.404 31.3092 48.404 29.1428C48.404 27.0903 49.6013 25.722 51.4257 25.722C53.2501 25.722 54.2763 27.2043 54.2763 29.1428C54.2763 31.0812 53.2501 32.6776 51.4257 32.7346Z" fill="#FFFCF0"/>
<path d="M62.8273 24.0112C60.0907 24.0112 57.8672 25.8926 57.8672 29.2564C57.8672 32.5631 60.0337 34.5015 62.8273 34.5015C65.5639 34.5015 67.7874 32.6201 67.7874 29.2564C67.7874 25.8356 65.6209 24.0112 62.8273 24.0112ZM62.8273 32.7342C61.2309 32.7342 59.9196 31.5939 59.9196 29.1994C59.9196 26.8048 61.2309 25.6646 62.8273 25.6646C64.4236 25.6646 65.7349 26.7478 65.7349 29.1994C65.7349 31.5939 64.4236 32.6771 62.8273 32.7342Z" fill="#FFFCF0"/>
<path d="M80.3308 24.0112C78.7915 24.0112 77.8793 24.8094 77.2521 25.7786H77.1951L77.2521 26.2347C76.796 24.8094 75.7128 24.0112 74.2305 24.0112C72.7481 24.0112 71.8929 24.9804 71.4368 25.7786H71.3798V24.2963H69.4414V34.1595H71.4368V28.6292C71.4368 26.7478 72.5201 25.7786 73.7744 25.7786C74.8576 25.7786 75.5988 26.4628 75.5988 28.1161V34.1595H77.5942V28.5722C77.5942 26.6908 78.6774 25.7786 79.9317 25.7786C81.0149 25.7786 81.6991 26.4628 81.6991 28.1161V34.1595H83.6945V27.8881C83.5805 25.5506 82.3262 24.0112 80.3308 24.0112Z" fill="#FFFCF0"/>
<path d="M94.2431 32.3921C93.958 32.3921 93.844 32.221 93.844 31.936V27.603C93.844 25.5506 92.8178 24.0112 89.8531 24.0112C87.0025 24.0112 85.6912 25.4365 85.5202 27.489H87.5156C87.6296 26.4058 88.5418 25.7216 89.8531 25.7216C90.9934 25.7216 91.7916 26.2347 91.7916 27.0329C91.7916 27.66 91.3355 28.0591 89.8531 28.0591H89.055C86.7174 28.0591 85.1211 29.0283 85.1211 31.1948C85.1211 33.4753 86.7745 34.5015 88.7699 34.5015C90.1952 34.5015 91.4495 33.8744 91.9626 32.4491C92.0196 33.4753 92.7038 34.1595 93.958 34.1595H95.0413V32.4491H94.2431V32.3921ZM91.9056 29.5414C91.9056 31.7649 90.7083 32.7342 89.169 32.7342C87.8007 32.7342 87.2876 31.936 87.2876 31.1378C87.2876 30.3396 87.7437 29.7125 89.169 29.7125H89.454C90.8223 29.7125 91.6775 29.2564 91.8486 28.4012V29.5414H91.9056Z" fill="#FFFCF0"/>
<path d="M96.2969 24.2964V34.1596H98.2923V24.2964H96.2969Z" fill="#FFFCF0"/>
<path d="M105.416 24.0112C103.819 24.0112 102.907 24.9234 102.394 25.7216H102.337V24.2963H100.398V34.1595H102.394V28.6292C102.394 26.7478 103.477 25.7786 104.845 25.7786C105.986 25.7786 106.898 26.4058 106.898 28.1161V34.1595H108.893V27.8881C108.893 25.5506 107.582 24.0112 105.416 24.0112Z" fill="#FFFCF0"/>
<path d="M115.166 28.1735H114.767C113.056 28.1735 112.714 27.8885 112.714 27.0903C112.714 26.2921 113.398 25.665 114.653 25.665C115.793 25.665 116.42 26.2921 116.534 27.4324H118.586C118.415 25.4369 116.99 23.9546 114.653 23.9546C111.973 23.9546 110.662 25.5509 110.662 27.0333C110.662 28.8007 112.144 29.8269 113.968 29.8269H114.481C116.192 29.8269 116.705 30.226 116.705 31.1952C116.705 32.0504 115.85 32.6775 114.538 32.6775C113.398 32.6775 112.6 31.8793 112.486 30.8531H110.434C110.548 32.9056 112.258 34.3879 114.538 34.3879C117.275 34.3879 118.757 32.7915 118.757 31.1952C118.814 29.4278 117.389 28.1735 115.166 28.1735Z" fill="#FFFCF0"/>
</svg>
