<svg width="73" height="24" viewBox="0 0 73 24" fill="none" xmlns="http://www.w3.org/2000/svg">
<path d="M0 23.5119V0.464355H2.76184V21.012H14.7973V23.5119H0Z" fill="#00501E"/>
<path d="M17.6055 23.5119V0.464355H31.7955V2.96432H20.3673V10.6667H29.6289V13.1667H20.3673V21H31.9622V23.5H17.6055V23.5119Z" fill="#00501E"/>
<path d="M34.7734 23.5119V0.464355H40.6423L48.6778 21.762H49.6064V0.464355H52.3444V23.5119H46.4755L38.4757 2.17864H37.5114V23.5119H34.7734Z" fill="#00501E"/>
<path d="M63.9132 23.9762C62.2466 23.9762 60.7467 23.6785 59.4372 23.0833C58.1277 22.4881 57.0801 21.5952 56.3301 20.4047C55.5682 19.2143 55.1992 17.7143 55.1992 15.9048V15.2143H57.9372V15.9048C57.9372 17.8095 58.4967 19.2381 59.6157 20.1666C60.7347 21.0952 62.1752 21.5714 63.9251 21.5714C65.6751 21.5714 67.0917 21.1667 68.0441 20.3572C68.9845 19.5476 69.4607 18.5238 69.4607 17.2976C69.4607 16.4405 69.2465 15.7619 68.8179 15.2619C68.3893 14.7619 67.7941 14.3452 67.0203 14.0238C66.2465 13.7024 65.3537 13.4286 64.318 13.1786L62.6037 12.75C61.2705 12.4048 60.08 11.9762 59.0443 11.4643C58.0086 10.9643 57.211 10.2976 56.6277 9.4762C56.0444 8.65477 55.7587 7.59527 55.7587 6.29765C55.7587 5.00004 56.0801 3.88098 56.7349 2.94051C57.3777 2.00003 58.2943 1.27382 59.4729 0.761921C60.6514 0.261922 61.9966 0 63.5442 0C65.0918 0 66.4965 0.2738 67.7465 0.809514C68.9845 1.34523 69.9607 2.14291 70.675 3.17862C71.3893 4.22624 71.7464 5.53575 71.7464 7.11908V8.5H69.0083V7.11908C69.0083 6.00004 68.7702 5.09526 68.306 4.41669C67.8298 3.73812 67.1869 3.22619 66.3655 2.90476C65.5441 2.57143 64.6037 2.4167 63.5561 2.4167C62.0442 2.4167 60.8181 2.74999 59.9014 3.41666C58.9848 4.08332 58.5205 5.03572 58.5205 6.26191C58.5205 7.07143 58.7229 7.73813 59.1158 8.23813C59.5086 8.73813 60.0681 9.15477 60.7942 9.4762C61.5204 9.79763 62.3894 10.0715 63.3894 10.3215L65.1037 10.75C66.437 11.0357 67.6393 11.4286 68.7107 11.9167C69.7702 12.4048 70.6274 13.0833 71.2583 13.9286C71.8892 14.7738 72.2106 15.881 72.2106 17.2381C72.2106 18.5953 71.8654 19.7857 71.1869 20.7976C70.5083 21.8095 69.544 22.5952 68.306 23.1547C67.0679 23.7143 65.6156 24 63.949 24L63.9132 23.9762Z" fill="#00501E"/>
</svg>
