<svg width="130" height="23" viewBox="0 0 130 23" fill="none" xmlns="http://www.w3.org/2000/svg">
<path d="M0 14.5706C0.0434671 14.2316 0.0782535 13.8925 0.121721 13.5534C0.521618 10.8236 1.90387 8.75455 4.32933 7.43312C5.45078 6.82456 6.66784 6.5116 7.95447 6.45943C10.1017 6.38119 12.0404 6.92889 13.7095 8.31118C15.0483 9.42397 15.8655 10.8584 16.248 12.545C16.2915 12.7362 16.2393 12.7971 16.0394 12.7971C14.9092 12.7971 13.7791 12.7971 12.6402 12.7971C12.4664 12.7971 12.4055 12.7188 12.3447 12.571C11.7535 11.1192 10.7016 10.189 9.15417 9.87603C6.91996 9.42396 4.73791 10.6672 4.01635 12.8319C3.50344 14.3707 3.56432 15.9007 4.36411 17.3352C5.09436 18.6479 6.22448 19.4043 7.73714 19.5694C9.42366 19.7607 10.7972 19.213 11.8057 17.8394C12.0404 17.5264 12.1795 17.1439 12.3707 16.7962C12.4142 16.7092 12.5185 16.6049 12.5968 16.6049C13.7704 16.5962 14.9527 16.6049 16.1263 16.6049C16.1611 16.6049 16.1958 16.6223 16.248 16.631C16.1611 17.3178 15.9263 17.9524 15.6221 18.561C14.3702 21.0647 12.3273 22.4818 9.57146 22.873C7.30248 23.1947 5.18997 22.7426 3.31219 21.3864C1.55612 20.1258 0.547696 18.3784 0.173879 16.2658C0.104332 15.8746 0.0956255 15.4747 0.0521584 15.0835C0.043465 14.9966 0.0173868 14.9183 0 14.8314C0 14.7445 0 14.6575 0 14.5706Z" fill="#344AFB"/>
<path d="M65.761 20.6387C65.7523 20.7256 65.7349 20.8212 65.7349 20.9082C65.7349 21.4124 65.7349 21.9166 65.7349 22.4209C65.7349 22.6034 65.6654 22.6643 65.4828 22.6643C64.4657 22.6643 63.4486 22.6556 62.4314 22.6643C62.1793 22.6643 62.1445 22.56 62.1445 22.3513C62.1445 19.5346 62.1445 16.7179 62.1445 13.9011C62.1445 9.39781 62.1445 4.89453 62.1445 0.391224C62.1445 0.130415 62.2749 0 62.5357 0C63.5007 0 64.4656 0 65.4306 0C65.7784 0 65.7871 -2.33441e-05 65.7871 0.356416C65.7871 3.03406 65.7871 5.70298 65.7871 8.38062C65.7871 8.48495 65.7871 8.58927 65.7871 8.76315C65.9001 8.67621 65.9609 8.64148 66.0044 8.58932C67.0911 7.38959 68.4472 6.66799 70.0555 6.49412C72.1246 6.26809 74.0197 6.78973 75.6541 8.09377C77.3667 9.45867 78.3056 11.2669 78.6099 13.4143C78.8794 15.3182 78.6098 17.1438 77.7144 18.8478C76.5843 20.9951 74.8196 22.3252 72.4376 22.8034C71.0205 23.0903 69.6209 22.9947 68.2821 22.4383C67.404 22.0731 66.6564 21.5167 66.0218 20.8126C65.961 20.743 65.8914 20.6735 65.8305 20.6039C65.8045 20.6039 65.7784 20.6126 65.7523 20.6213L65.761 20.6387ZM75.0195 14.7009C75.0021 14.4488 74.9847 14.1532 74.9499 13.8664C74.7847 12.7275 74.324 11.7364 73.4634 10.954C72.7157 10.2759 71.8203 9.89334 70.8118 9.8151C69.3253 9.70208 68.03 10.1455 67.0042 11.2409C65.987 12.3189 65.6045 13.6229 65.6828 15.0834C65.7958 17.2829 67.2997 19.1868 69.4905 19.552C70.5598 19.7259 71.5942 19.6215 72.5505 19.0912C74.2457 18.1436 74.9586 16.6222 75.0195 14.7009Z" fill="#344AFB"/>
<path d="M128.936 17.561C128.736 18.0565 128.571 18.5521 128.336 19.0041C127.198 21.1341 125.381 22.3425 123.042 22.7945C120.538 23.2727 118.2 22.8467 116.131 21.3253C114.444 20.0908 113.471 18.3869 113.097 16.3439C112.732 14.3096 113.001 12.3709 114.001 10.5626C115.174 8.44134 117 7.15468 119.365 6.65045C121.269 6.25054 123.129 6.42441 124.876 7.29377C127.102 8.39786 128.415 10.2236 128.849 12.6491C129.006 13.5445 128.971 14.4748 129.023 15.3876C129.04 15.6136 128.884 15.5962 128.745 15.5962C127.606 15.5962 126.467 15.5962 125.328 15.5962C122.564 15.5962 119.799 15.5962 117.035 15.5962C116.931 15.5962 116.826 15.5962 116.67 15.5962C116.722 15.8483 116.765 16.0657 116.818 16.283C117.339 18.3956 119.043 19.7257 121.225 19.7344C122.077 19.7344 122.894 19.604 123.642 19.178C124.25 18.8303 124.702 18.3347 125.015 17.7088C125.059 17.6218 125.181 17.5088 125.268 17.5088C126.441 17.5001 127.615 17.5088 128.797 17.5088C128.814 17.5088 128.832 17.5175 128.927 17.5523L128.936 17.561ZM116.922 12.9881C117.009 12.9968 117.052 13.0055 117.096 13.0055C119.739 13.0055 122.381 13.0055 125.015 13.0055C125.233 13.0055 125.259 12.9186 125.215 12.7273C124.842 11.1537 123.877 10.1453 122.312 9.76278C120.382 9.29333 118.452 9.92797 117.417 11.6667C117.183 12.0666 116.991 12.4926 116.913 12.9881H116.922Z" fill="#344AFB"/>
<path d="M91.0697 20.0739C90.835 20.4216 90.6612 20.7259 90.4525 21.0041C89.6788 22.0125 88.6356 22.5776 87.4011 22.8037C86.0537 23.0471 84.7062 23.0037 83.4022 22.5603C81.6461 21.9691 80.542 20.5433 80.3943 18.7785C80.1856 16.3443 81.4027 14.8751 83.3935 14.0666C84.5584 13.5971 85.7842 13.4058 87.0273 13.2754C87.9401 13.1798 88.853 13.0668 89.6875 12.6495C90.0613 12.4583 90.3743 12.2062 90.5047 11.7976C90.696 11.1977 90.4612 10.5109 89.9309 10.1023C89.418 9.70238 88.8269 9.57198 88.2009 9.51112C87.4098 9.43288 86.6274 9.51111 85.8885 9.82408C85.1235 10.1631 84.628 10.7456 84.428 11.5628C84.3845 11.7454 84.2976 11.7801 84.1411 11.7801C83.1066 11.7801 82.0721 11.7801 81.0376 11.7801C80.8202 11.7801 80.7681 11.7193 80.8115 11.4932C81.0636 10.2414 81.5766 9.12858 82.5067 8.24183C83.3935 7.39855 84.4628 6.91172 85.6451 6.67699C87.3142 6.34663 88.9834 6.35531 90.609 6.87693C92.7302 7.55503 93.9473 9.00687 94.2168 11.2237C94.269 11.641 94.2776 12.067 94.2863 12.493C94.2863 14.6838 94.2863 16.8746 94.2863 19.0654C94.2863 19.474 94.2864 19.474 94.7036 19.474C95.1035 19.474 95.5034 19.474 95.8946 19.474C96.0598 19.474 96.1293 19.5349 96.1293 19.7087C96.1293 20.6303 96.1293 21.5431 96.1293 22.4646C96.1293 22.595 96.1207 22.6906 95.9468 22.6906C95.0948 22.6733 94.2255 22.7167 93.3822 22.6211C92.1651 22.4907 91.2784 21.5518 91.122 20.3347C91.122 20.2738 91.0958 20.2217 91.0697 20.0913V20.0739ZM90.6612 14.6838C90.6612 14.6838 90.5829 14.736 90.5569 14.7708C90.1396 15.2576 89.6093 15.5271 88.9921 15.6314C88.227 15.7618 87.462 15.8574 86.697 15.9878C85.9928 16.1095 85.2974 16.2834 84.6975 16.7007C83.6369 17.4223 83.6803 18.8828 84.7757 19.5349C85.6016 20.0217 86.5057 20.0565 87.4186 19.8826C88.6704 19.6479 89.6615 19.0132 90.3048 17.8917C90.8785 16.8833 90.7307 15.7879 90.6699 14.6838H90.6612Z" fill="#344AFB"/>
<path d="M34.4171 14.7182C34.3997 19.3345 30.9397 22.9945 26.0106 22.9685C21.0118 22.9424 17.5866 19.2476 17.7518 14.4052C17.9083 9.78023 21.4726 6.42448 26.0975 6.45925C31.1397 6.49403 34.4345 10.2497 34.4171 14.7269V14.7182ZM30.7658 14.7095C30.7484 14.5009 30.7224 14.2487 30.6963 14.0053C30.4529 11.8667 28.975 10.2583 26.8712 9.85844C25.0456 9.51069 23.1504 10.3279 22.1855 11.9015C21.4378 13.1273 21.2466 14.4574 21.5248 15.8484C22.2376 19.3606 25.9497 20.5082 28.523 18.9433C30.0791 17.9957 30.6876 16.5091 30.7658 14.7095Z" fill="#344AFB"/>
<path d="M48.3059 8.78049C48.4015 8.65878 48.5058 8.54578 48.6014 8.42407C49.4707 7.33737 50.6357 6.77226 51.9745 6.55492C53.1307 6.36366 54.2782 6.42454 55.3997 6.79837C57.0079 7.32868 58.0859 8.41534 58.7118 9.96281C59.1204 10.9713 59.2943 12.0319 59.2943 13.1099C59.2943 16.1788 59.2943 19.2563 59.2943 22.3252C59.2943 22.586 59.2335 22.6729 58.9553 22.6729C57.9903 22.6555 57.0253 22.6729 56.0604 22.6729C55.788 22.6729 55.6517 22.5425 55.6517 22.2817C55.6517 19.3694 55.6604 16.457 55.6517 13.5446C55.6517 12.5535 55.4084 11.6146 54.6955 10.867C53.7827 9.91068 52.6264 9.64988 51.3659 9.8933C49.6446 10.2237 48.471 11.5624 48.2972 13.3272C48.2624 13.6576 48.245 13.9967 48.245 14.327C48.245 17.0047 48.245 19.6736 48.245 22.3512C48.245 22.5947 48.1928 22.6903 47.9233 22.6816C46.9149 22.6642 45.9064 22.6729 44.898 22.6816C44.6633 22.6816 44.5938 22.6121 44.5938 22.3773C44.5938 17.2742 44.5938 12.171 44.5938 7.06787C44.5938 6.84183 44.6546 6.76356 44.8893 6.76356C45.8977 6.77225 46.9062 6.77225 47.9146 6.76356C48.1233 6.76356 48.1928 6.82441 48.1928 7.03306C48.1841 7.5199 48.1928 8.00674 48.1928 8.49358C48.1928 8.58921 48.2015 8.67616 48.2102 8.77179C48.2363 8.77179 48.2624 8.7892 48.2797 8.79789L48.3059 8.78049Z" fill="#344AFB"/>
<path d="M97.3251 17.7522C97.8727 17.7522 98.3856 17.7522 98.8986 17.7522C99.481 17.7522 100.063 17.7522 100.646 17.7522C100.768 17.7522 100.881 17.7522 100.924 17.9174C101.133 18.8042 101.724 19.3692 102.55 19.6561C103.932 20.1343 105.323 20.1517 106.688 19.6127C107.349 19.3519 107.74 18.752 107.714 18.1435C107.688 17.4393 107.279 16.8655 106.549 16.6742C105.845 16.483 105.114 16.3873 104.402 16.2482C103.297 16.0396 102.167 15.9005 101.081 15.6049C99.8027 15.2572 98.716 14.5704 98.1596 13.3098C97.2121 11.2059 97.7598 8.69348 100.177 7.38943C101.246 6.81565 102.393 6.55481 103.602 6.48526C104.88 6.41571 106.123 6.52873 107.322 6.9721C109.313 7.71976 110.478 9.16292 110.869 11.232C110.904 11.4059 110.852 11.4928 110.652 11.4841C109.635 11.4841 108.618 11.4841 107.601 11.4755C107.514 11.4755 107.375 11.3972 107.357 11.3189C107.018 10.3105 106.288 9.77149 105.28 9.56284C104.323 9.36289 103.367 9.38025 102.437 9.70192C101.863 9.90187 101.402 10.2496 101.281 10.9016C101.168 11.4667 101.368 11.9275 101.828 12.2665C102.28 12.5882 102.802 12.7099 103.332 12.8056C104.697 13.0316 106.079 13.1968 107.427 13.501C108.896 13.8314 110.174 14.5443 110.826 15.9961C111.678 17.8913 111.304 20.5081 109.148 21.847C108.018 22.5424 106.784 22.8293 105.488 22.951C104.184 23.0727 102.889 22.9684 101.628 22.6206C99.9418 22.1512 98.5943 21.2123 97.8119 19.5953C97.5424 19.0389 97.386 18.4391 97.3164 17.7783L97.3251 17.7522Z" fill="#344AFB"/>
<path d="M41.4919 14.7012C41.4919 17.2311 41.4919 19.7696 41.4919 22.2995C41.4919 22.6559 41.4919 22.6559 41.1268 22.6559C40.1618 22.6559 39.1969 22.6559 38.2406 22.6559C37.9856 22.6559 37.8581 22.5255 37.8581 22.2647C37.8581 18.3265 37.8581 14.3883 37.8581 10.4587C37.8581 9.9458 37.8928 9.99799 37.406 9.99799C36.867 9.99799 36.328 9.99799 35.789 9.99799C35.6065 9.99799 35.5195 9.95449 35.5195 9.74584C35.5282 8.82432 35.5195 7.9115 35.5195 6.98998C35.5195 6.80741 35.5717 6.74658 35.7629 6.74658C37.5885 6.74658 39.4228 6.74658 41.2485 6.74658C41.518 6.74658 41.4919 6.90302 41.4919 7.07689C41.4919 9.61543 41.4919 12.1627 41.4919 14.7012Z" fill="#344AFB"/>
<path d="M39.6619 4.76453C38.3057 4.76453 37.332 3.80823 37.332 2.4868C37.332 1.15667 38.3231 0.174316 39.6706 0.174316C41.0354 0.174316 42.0177 1.13927 42.0177 2.4694C42.0177 3.8343 41.0615 4.76453 39.6619 4.76453Z" fill="#344AFB"/>
</svg>
