<?xml version="1.0" encoding="utf-8"?>
<!-- Generator: Adobe Illustrator 27.6.1, SVG Export Plug-In . SVG Version: 6.00 Build 0)  -->
<svg version="1.1" id="Layer_1" xmlns="http://www.w3.org/2000/svg" xmlns:xlink="http://www.w3.org/1999/xlink" x="0px" y="0px"
	 viewBox="0 0 130 23" style="enable-background:new 0 0 130 23;" xml:space="preserve">
<style type="text/css">
	.st0{fill:#231F20;}
</style>
<g>
	<path class="st0" d="M9.7,7.4v3.1H0.6V7.4H9.7z M2.7,22.1V6.3c0-1.1,0.2-2,0.6-2.7c0.4-0.7,1-1.2,1.7-1.6c0.7-0.4,1.6-0.5,2.5-0.5
		c0.6,0,1.2,0,1.7,0.1c0.5,0.1,0.9,0.2,1.2,0.3L9.7,5C9.5,5,9.3,4.9,9.1,4.9c-0.2,0-0.5-0.1-0.7-0.1c-0.6,0-1,0.1-1.3,0.4
		C6.9,5.5,6.8,5.9,6.8,6.4v15.7H2.7z"/>
	<path class="st0" d="M17.2,22.4c-1.5,0-2.8-0.3-3.9-1s-1.9-1.5-2.5-2.7c-0.6-1.1-0.9-2.5-0.9-4c0-1.5,0.3-2.9,0.9-4
		c0.6-1.1,1.4-2,2.5-2.7c1.1-0.6,2.4-1,3.9-1c1.5,0,2.8,0.3,3.9,1c1.1,0.6,1.9,1.5,2.5,2.7c0.6,1.1,0.9,2.5,0.9,4
		c0,1.5-0.3,2.8-0.9,4c-0.6,1.1-1.4,2-2.5,2.7C20,22.1,18.7,22.4,17.2,22.4z M17.3,19.2c0.7,0,1.2-0.2,1.7-0.6
		c0.5-0.4,0.8-0.9,1-1.6c0.2-0.7,0.3-1.4,0.3-2.3c0-0.9-0.1-1.6-0.3-2.3c-0.2-0.7-0.6-1.2-1-1.6c-0.5-0.4-1-0.6-1.7-0.6
		c-0.7,0-1.3,0.2-1.7,0.6c-0.5,0.4-0.8,0.9-1,1.6c-0.2,0.7-0.4,1.4-0.4,2.3c0,0.9,0.1,1.6,0.4,2.3s0.6,1.2,1,1.6
		S16.6,19.2,17.3,19.2z"/>
	<path class="st0" d="M35.5,15.8V7.4h4.1v14.7h-3.9v-2.7h-0.2c-0.3,0.9-0.9,1.6-1.7,2.1c-0.8,0.5-1.7,0.8-2.8,0.8
		c-1,0-1.9-0.2-2.6-0.7c-0.7-0.4-1.3-1.1-1.8-1.9c-0.4-0.8-0.6-1.8-0.6-3V7.4h4.1V16c0,0.9,0.2,1.6,0.7,2.1c0.5,0.5,1.1,0.8,1.9,0.8
		c0.5,0,1-0.1,1.4-0.3c0.4-0.2,0.8-0.6,1-1C35.4,17,35.5,16.5,35.5,15.8z"/>
	<path class="st0" d="M41.8,22.1V7.4h4v2.6h0.2c0.3-0.9,0.7-1.6,1.4-2.1s1.4-0.7,2.2-0.7c0.2,0,0.4,0,0.7,0c0.2,0,0.4,0.1,0.6,0.1
		v3.6c-0.2-0.1-0.5-0.1-0.8-0.2c-0.3,0-0.6-0.1-0.9-0.1c-0.6,0-1.1,0.1-1.6,0.4c-0.5,0.3-0.8,0.6-1.1,1.1c-0.3,0.5-0.4,1-0.4,1.6
		v8.3H41.8z"/>
	<path class="st0" d="M60.3,7.4v3.1h-8.9V7.4H60.3z M53.5,3.8h4.1v13.7c0,0.4,0.1,0.7,0.2,0.9c0.1,0.2,0.3,0.4,0.5,0.4
		c0.2,0.1,0.4,0.1,0.7,0.1c0.2,0,0.4,0,0.6-0.1s0.3-0.1,0.4-0.1l0.6,3c-0.2,0.1-0.5,0.1-0.9,0.2c-0.4,0.1-0.8,0.1-1.4,0.2
		c-1,0-1.8-0.1-2.6-0.4s-1.3-0.8-1.7-1.4s-0.6-1.4-0.6-2.4V3.8z"/>
	<path class="st0" d="M66.3,13.6v8.5h-4.1V2.5h4V10h0.2c0.3-0.9,0.9-1.6,1.6-2c0.7-0.5,1.7-0.7,2.8-0.7c1,0,1.9,0.2,2.7,0.7
		s1.4,1.1,1.8,1.9c0.4,0.8,0.6,1.8,0.6,3v9.4h-4.1v-8.6c0-0.9-0.2-1.6-0.7-2.1c-0.5-0.5-1.1-0.8-1.9-0.8c-0.6,0-1,0.1-1.5,0.4
		c-0.4,0.2-0.8,0.6-1,1C66.4,12.4,66.3,13,66.3,13.6z"/>
	<path class="st0" d="M80.9,22.1l-4-14.7H81l2.3,9.9h0.1l2.4-9.9h4.1l2.4,9.8h0.1l2.2-9.8h4.1l-4,14.7h-4.3l-2.5-9.3h-0.2l-2.5,9.3
		H80.9z"/>
	<path class="st0" d="M106.2,22.4c-1.5,0-2.8-0.3-3.9-0.9c-1.1-0.6-1.9-1.5-2.5-2.6c-0.6-1.1-0.9-2.5-0.9-4c0-1.5,0.3-2.8,0.9-4
		c0.6-1.1,1.4-2,2.5-2.7c1.1-0.6,2.3-1,3.8-1c1,0,1.9,0.2,2.7,0.5c0.8,0.3,1.6,0.8,2.2,1.4c0.6,0.6,1.1,1.4,1.5,2.3s0.5,2,0.5,3.3
		v1.1h-12.4v-2.5h8.6c0-0.6-0.1-1.1-0.4-1.6c-0.3-0.5-0.6-0.8-1.1-1.1c-0.5-0.3-1-0.4-1.6-0.4c-0.6,0-1.2,0.1-1.6,0.4
		c-0.5,0.3-0.8,0.7-1.1,1.1c-0.3,0.5-0.4,1-0.4,1.6v2.4c0,0.7,0.1,1.4,0.4,1.9c0.3,0.5,0.7,0.9,1.2,1.2c0.5,0.3,1.1,0.4,1.8,0.4
		c0.5,0,0.9-0.1,1.2-0.2c0.4-0.1,0.7-0.3,1-0.6c0.3-0.3,0.5-0.6,0.6-0.9l3.8,0.2c-0.2,0.9-0.6,1.7-1.2,2.4c-0.6,0.7-1.4,1.2-2.3,1.6
		C108.5,22.2,107.4,22.4,106.2,22.4z"/>
	<path class="st0" d="M114.6,22.1V2.5h4.1v7.4h0.1c0.2-0.4,0.4-0.8,0.8-1.2c0.3-0.4,0.8-0.8,1.3-1c0.6-0.3,1.2-0.4,2.1-0.4
		c1.1,0,2.1,0.3,3,0.8c0.9,0.6,1.6,1.4,2.2,2.5c0.5,1.1,0.8,2.5,0.8,4.2c0,1.6-0.3,3-0.8,4.2s-1.2,2-2.1,2.6c-0.9,0.6-1.9,0.9-3,0.9
		c-0.8,0-1.5-0.1-2-0.4s-1-0.6-1.4-1c-0.4-0.4-0.6-0.8-0.8-1.2h-0.2v2.4H114.6z M118.6,14.7c0,0.9,0.1,1.6,0.4,2.3s0.6,1.2,1.1,1.5
		s1,0.5,1.7,0.5c0.7,0,1.2-0.2,1.7-0.6s0.8-0.9,1-1.5c0.2-0.7,0.4-1.4,0.4-2.3c0-0.9-0.1-1.6-0.4-2.2c-0.2-0.6-0.6-1.2-1-1.5
		s-1-0.5-1.7-0.5c-0.7,0-1.2,0.2-1.7,0.5s-0.8,0.9-1,1.5C118.7,13.1,118.6,13.9,118.6,14.7z"/>
</g>
</svg>
