<svg width="16" height="18" viewBox="0 0 16 18" fill="none" xmlns="http://www.w3.org/2000/svg">
<path fill-rule="evenodd" clip-rule="evenodd" d="M10 0.585815L6 4.58582V17.4142L10 13.4142V0.585815Z" fill="#EF4444"/>
<path fill-rule="evenodd" clip-rule="evenodd" d="M1.70711 2.29292C1.42111 2.00692 0.990991 1.92137 0.617317 2.07615C0.243642 2.23093 0 2.59557 0 3.00003V13C0 13.2652 0.105357 13.5196 0.292893 13.7071L4 17.4142V4.58582L1.70711 2.29292Z" fill="#EF4444"/>
<path fill-rule="evenodd" clip-rule="evenodd" d="M15.7071 4.29292L12 0.585815V13.4142L14.2929 15.7071C14.5789 15.9931 15.009 16.0787 15.3827 15.9239C15.7564 15.7691 16 15.4045 16 15V5.00003C16 4.73481 15.8946 4.48046 15.7071 4.29292Z" fill="#EF4444"/>
</svg>
