<svg width="14" height="18" viewBox="0 0 14 18" fill="none" xmlns="http://www.w3.org/2000/svg">
<path d="M4 3C4 1.34315 5.34315 0 7 0C8.65685 0 10 1.34315 10 3V7C10 8.65685 8.65685 10 7 10C5.34315 10 4 8.65685 4 7V3Z" fill="#EF4444"/>
<path d="M8 13.9291C11.3923 13.4439 14 10.5265 14 7C14 6.44772 13.5523 6 13 6C12.4477 6 12 6.44772 12 7C12 9.76142 9.76142 12 7 12C4.23858 12 2 9.76142 2 7C2 6.44772 1.55228 6 1 6C0.447715 6 0 6.44772 0 7C0 10.5265 2.60771 13.4439 6 13.9291V16H3C2.44772 16 2 16.4477 2 17C2 17.5523 2.44772 18 3 18H11C11.5523 18 12 17.5523 12 17C12 16.4477 11.5523 16 11 16H8V13.9291Z" fill="#EF4444"/>
</svg>
