<svg width="77" height="18" viewBox="0 0 77 18" fill="none" xmlns="http://www.w3.org/2000/svg">
<path fill-rule="evenodd" clip-rule="evenodd" d="M13 9.32996C12.5569 9.45612 12.0891 9.52366 11.6055 9.52366C8.79895 9.52366 6.52366 7.24849 6.52366 4.44178C6.52366 3.94097 6.59608 3.45708 6.73106 3H1.46543C0.656111 3 0 3.65612 0 4.46544V14.5346C0 15.3439 0.656111 16 1.46543 16H11.5345C12.3438 16 12.9999 15.3439 12.9999 14.5346V9.33015L13 9.32996Z" fill="white"/>
<path d="M16 3.5C16 5.43301 14.2091 7 12 7C9.79084 7 8 5.43301 8 3.5C8 1.56699 9.79084 0 12 0C14.2091 0 16 1.56699 16 3.5Z" fill="url(#paint0_linear_64_562)"/>
<path d="M30.6635 10.5453V16H33V10.5453C33 7.19291 31.2056 5 28.3645 5C26.9813 5 25.7477 5.79736 25.3364 6.90276V5.12686H23V15.9995H25.3364V10.5632C25.3364 8.64229 26.4392 7.26507 27.9533 7.26507C29.5981 7.26507 30.6635 8.5517 30.6635 10.545V10.5453Z" fill="white"/>
<path d="M34 10.4912C34 13.6135 36.4092 16 39.5092 16C42.6092 16 45 13.6134 45 10.4912C45 7.38682 42.6095 5 39.5092 5C36.4089 5 34 7.38662 34 10.4912ZM39.5092 7.24323C41.302 7.24323 42.6654 8.64292 42.6654 10.4912C42.6654 12.3574 41.302 13.7571 39.5092 13.7571C37.7163 13.7571 36.3343 12.3574 36.3343 10.4912C36.3343 8.64292 37.7163 7.24323 39.5092 7.24323Z" fill="white"/>
<path d="M48.0756 2L47.5523 4.44565H46V6.71794H47.5523V12.0331C47.5523 14.8638 48.5989 16 51.0933 16H52V13.6122H51.3022C50.2209 13.6122 49.7324 13.0922 49.7324 11.8983V6.71815H52V4.44586H49.7324V2.00021H48.0756V2Z" fill="white"/>
<path d="M56 16V5H53V16H56Z" fill="white"/>
<path d="M67 15.9996V4.79811H60.8241V3.97663C60.8241 2.81911 61.3269 2.29636 62.4399 2.29636H63.1577V0H62.2244C59.6571 0 58.5799 1.08283 58.5799 3.84593V4.79805H57V7.00103H58.5799V16H60.8241V7.00103H64.7558V16H67V15.9996Z" fill="white"/>
<path fill-rule="evenodd" clip-rule="evenodd" d="M53.9788 0C53.2586 0 53 0.395141 53 0.957099V3H54.9972C55.6912 3 56 2.75714 56 2.07228V0.957155C56 0.316153 55.5769 5.57393e-05 54.927 5.57393e-05H53.9788V0Z" fill="white"/>
<defs>
<linearGradient id="paint0_linear_64_562" x1="14.4154" y1="0.545469" x2="11.3174" y2="7.34007" gradientUnits="userSpaceOnUse">
<stop stop-color="#FE7970"/>
<stop offset="1" stop-color="#FEB776"/>
</linearGradient>
</defs>
</svg>
