<svg width="90" height="22" viewBox="0 0 90 22" fill="none" xmlns="http://www.w3.org/2000/svg">
<g clip-path="url(#clip0_345_229)">
<path fill-rule="evenodd" clip-rule="evenodd" d="M17.1551 12.7231C16.5754 12.8882 15.9634 12.9765 15.3308 12.9765C11.6594 12.9765 8.68296 10.0003 8.68296 6.32865C8.68296 5.6735 8.77769 5.04051 8.95427 4.44257H2.06595C1.00723 4.44257 0.148926 5.30088 0.148926 6.3596V19.5316C0.148926 20.5903 1.00723 21.4486 2.06595 21.4486H15.2379C16.2967 21.4486 17.155 20.5903 17.155 19.5316V12.7234L17.1551 12.7231Z" fill="#262949"/>
<path d="M20.9345 5.38721C20.9345 7.99613 18.8195 10.111 16.2106 10.111C13.6017 10.111 11.4868 7.99613 11.4868 5.38721C11.4868 2.77829 13.6017 0.66338 16.2106 0.66338C18.8195 0.66338 20.9345 2.77829 20.9345 5.38721Z" fill="url(#paint0_linear_345_229)"/>
<path d="M41.0958 14.1338V21.3055H44.0741V14.1338C44.0741 9.72603 41.7867 6.8428 38.1652 6.8428C36.4021 6.8428 34.8296 7.89116 34.3054 9.34454V7.0096H31.3271V21.3049H34.3054V14.1572C34.3054 11.6317 35.7111 9.8209 37.641 9.8209C39.7377 9.8209 41.0958 11.5125 41.0958 14.1334V14.1338Z" fill="#262949"/>
<path d="M46.0645 14.1338C46.0645 18.2795 49.138 21.4482 53.0929 21.4482C57.0477 21.4482 60.0978 18.2794 60.0978 14.1338C60.0978 10.0119 57.0481 6.8428 53.0929 6.8428C49.1376 6.8428 46.0645 10.0117 46.0645 14.1338ZM53.0929 9.82129C55.3801 9.82129 57.1194 11.6797 57.1194 14.1338C57.1194 16.6117 55.3801 18.4701 53.0929 18.4701C50.8055 18.4701 49.0424 16.6117 49.0424 14.1338C49.0424 11.6797 50.8055 9.82129 53.0929 9.82129Z" fill="#262949"/>
<path d="M64.3246 3.98361L63.6098 7.00953H61.4893V9.82096H63.6098V16.3972C63.6098 19.8996 65.0394 21.3053 68.4468 21.3053H69.6854V18.351H68.7322C67.2551 18.351 66.5879 17.7076 66.5879 16.2304V9.82122H69.6854V7.00979H66.5879V3.98387H64.3246V3.98361Z" fill="#262949"/>
<path d="M74.7337 21.3049V7.0096H71.7554V21.3049H74.7337Z" fill="#262949"/>
<path d="M89.9932 21.3049V7.0096H81.7972V5.96124C81.7972 4.48401 82.4644 3.81688 83.9415 3.81688H84.8941V0.88628H83.6554C80.2484 0.88628 78.8189 2.26818 78.8189 5.79444V7.00954H76.7222V9.82096H78.8189V21.3054H81.7972V9.82096H87.0149V21.3054H89.9932V21.3049Z" fill="#262949"/>
<path fill-rule="evenodd" clip-rule="evenodd" d="M72.9029 0.66338C72.0611 0.66338 71.7588 1.12528 71.7588 1.78218V4.17022H74.0933C74.9045 4.17022 75.2655 3.88633 75.2655 3.08576V1.78224C75.2655 1.03295 74.771 0.663445 74.0112 0.663445H72.9029V0.66338Z" fill="#262949"/>
</g>
<defs>
<linearGradient id="paint0_linear_345_229" x1="19.0632" y1="1.39958" x2="14.5237" y2="10.111" gradientUnits="userSpaceOnUse">
<stop stop-color="#FE7970"/>
<stop offset="1" stop-color="#FEB776"/>
</linearGradient>
<clipPath id="clip0_345_229">
<rect width="89.8504" height="20.85" fill="white" transform="translate(0.149414 0.66338)"/>
</clipPath>
</defs>
</svg>
