<svg width="100" height="30" viewBox="0 0 100 30" fill="none" xmlns="http://www.w3.org/2000/svg">
<g clip-path="url(#clip0_699_81)">
<path d="M12.8132 15.9072C12.8132 13.389 10.7942 11.4807 8.40966 11.4807C5.94563 11.4807 3.89483 13.389 3.89483 15.9072C3.89483 18.3785 5.94563 20.3025 8.39375 20.3025C10.7942 20.3025 12.8132 18.3785 12.8132 15.9072ZM16.8827 15.9229C16.8827 20.6467 13.5445 24.1972 9.14096 24.1972C7.07428 24.1972 5.27793 23.3837 4.02207 21.9447L4.03795 29.4995C4.03795 29.8123 3.84713 30 3.5611 30H0.52457C0.206734 30 0 29.8123 0 29.4995V8.41501C0 8.11794 0.206734 7.91453 0.508882 7.91453H2.27342C2.52765 7.91453 2.70257 8.05536 2.81389 8.25855L3.49748 10.4954C4.78516 8.64972 6.77234 7.57031 9.15687 7.57031C13.5445 7.57031 16.8827 11.1054 16.8827 15.9229Z" fill="black"/>
<path d="M33.5705 14.3744V23.3211C33.5705 23.6341 33.3797 23.8062 33.0619 23.8062H30.0414C29.7234 23.8062 29.5326 23.6341 29.5326 23.3211V14.6089C29.5326 12.5757 28.4517 11.1522 26.2736 11.1522C24.1277 11.1522 22.7445 12.7632 22.7445 14.6715V23.3369C22.7445 23.6341 22.5536 23.8062 22.2517 23.8062H19.1836C18.8656 23.8062 18.7065 23.6341 18.7065 23.3369V0.469187C18.7065 0.156465 18.8656 0 19.1836 0H22.2517C22.5536 0 22.7445 0.156465 22.7445 0.469187V9.88529C23.8097 8.47751 25.5585 7.53914 27.4979 7.53914C31.2655 7.53914 33.5705 10.1669 33.5705 14.3744Z" fill="black"/>
<path d="M48.3658 15.9073C48.3658 13.4047 46.315 11.4808 43.8668 11.4808C41.4664 11.4808 39.4632 13.4047 39.4632 15.9073C39.4632 18.3786 41.4822 20.3025 43.8827 20.3025C46.3309 20.3025 48.3658 18.3786 48.3658 15.9073ZM52.197 8.46202V23.3526C52.197 23.6497 51.9903 23.8531 51.688 23.8531H49.9237C49.6692 23.8531 49.4784 23.7124 49.383 23.5091L48.7313 21.3661C47.4436 23.1491 45.4724 24.1972 43.1354 24.1972C38.7321 24.1972 35.3936 20.6467 35.3936 15.9229C35.3936 11.1055 38.7162 7.57037 43.1195 7.57037C45.4565 7.57037 47.4436 8.61848 48.7313 10.4329L49.383 8.28991C49.4784 8.08672 49.6692 7.94589 49.9237 7.94589H51.688C51.9903 7.94589 52.197 8.1493 52.197 8.46202Z" fill="black"/>
<path d="M69.8776 8.43075L62.5807 23.5401C62.422 23.8531 62.2312 24.0096 61.8656 24.0096H61.7543C61.3887 24.0096 61.1979 23.8531 61.039 23.5401L53.7423 8.43075C53.5514 8.03958 53.8056 7.7738 54.1077 7.7738H57.5416C57.8435 7.7738 58.098 7.96156 58.2093 8.22734L61.8019 16.6268L65.3947 8.22734C65.506 7.96156 65.7764 7.7738 66.0783 7.7738H69.5122C69.8142 7.7738 70.0685 8.03958 69.8776 8.43075Z" fill="black"/>
<path d="M72.8953 14.3713L72.9764 14.1121C73.5425 12.3059 75.2115 11.0929 77.1293 11.0929C79.1626 11.0929 80.8831 12.3076 81.4105 14.1159L81.485 14.3713H72.8953ZM77.2247 7.77051C72.6408 7.77051 69.0503 11.3447 69.0503 15.9072C69.0503 20.4523 72.7316 24.0126 77.4312 24.0126C79.2133 24.0126 81.6563 23.16 82.9925 22.072C83.1311 21.9455 83.1522 21.7261 83.0345 21.5578L81.4185 19.4696C81.2942 19.3169 81.0722 19.2818 80.9286 19.3953C79.9393 20.109 78.487 20.6434 77.5425 20.6434C75.4759 20.6434 73.6615 19.5223 73.0277 17.8543L72.9257 17.5839H83.1541C84.23 17.5839 85.0333 16.2857 85.0333 15.1251C85.0333 11.0011 81.6033 7.77051 77.2247 7.77051Z" fill="black"/>
<path d="M99.0061 9.36994C99.0009 9.36022 98.9939 9.35259 98.9883 9.34331C98.9742 9.32595 98.9628 9.30841 98.9467 9.29318C98.9264 9.26865 98.9107 9.24075 98.8865 9.22067C97.7894 8.32902 96.3109 7.75031 95.0394 7.75031C93.1317 7.75031 91.1921 8.95466 90.1588 10.7378L89.4595 8.45418C89.3481 8.251 89.1733 8.11017 88.9188 8.11017H87.1543C86.852 8.11017 86.6455 8.31337 86.6455 8.6261V23.5324C86.6455 23.8452 86.8203 24.0174 87.1383 24.0174H90.1905C90.4926 24.0174 90.6833 23.8452 90.6833 23.5324V15.3051C90.6833 13.0839 92.3368 11.1915 94.5463 11.1915C95.2618 11.1915 96.1677 11.5825 96.8993 12.1768C96.9194 12.1942 96.9407 12.1986 96.9614 12.2125C97.099 12.387 97.3469 12.4684 97.5517 12.3481C97.7779 12.2153 97.9699 12.0413 98.1391 11.8438C98.3152 11.6385 98.494 11.4277 98.6436 11.2027C98.9579 10.7293 99.0433 10.1757 99.0899 9.62324C99.0977 9.53211 99.0599 9.44584 99.0061 9.36994Z" fill="black"/>
</g>
<defs>
<clipPath id="clip0_699_81">
<rect width="99.0909" height="30" fill="white"/>
</clipPath>
</defs>
</svg>
