<svg width="16" height="16" viewBox="0 0 16 16" fill="none" xmlns="http://www.w3.org/2000/svg">
<path d="M8 1.5C8 0.671573 8.67157 0 9.5 0C10.3284 0 11 0.671573 11 1.5V2C11 2.55228 11.4477 3 12 3H15C15.5523 3 16 3.44772 16 4V7C16 7.55228 15.5523 8 15 8H14.5C13.6716 8 13 8.67157 13 9.5C13 10.3284 13.6716 11 14.5 11H15C15.5523 11 16 11.4477 16 12V15C16 15.5523 15.5523 16 15 16H12C11.4477 16 11 15.5523 11 15V14.5C11 13.6716 10.3284 13 9.5 13C8.67157 13 8 13.6716 8 14.5V15C8 15.5523 7.55228 16 7 16H4C3.44772 16 3 15.5523 3 15V12C3 11.4477 2.55228 11 2 11H1.5C0.671573 11 0 10.3284 0 9.5C0 8.67157 0.671573 8 1.5 8H2C2.55228 8 3 7.55228 3 7V4C3 3.44772 3.44772 3 4 3H7C7.55228 3 8 2.55228 8 2V1.5Z" fill="#EF4444"/>
</svg>
