<svg width="16" height="16" viewBox="0 0 16 16" fill="none" xmlns="http://www.w3.org/2000/svg">
<path fill-rule="evenodd" clip-rule="evenodd" d="M16 8C16 12.4183 12.4183 16 8 16C3.58172 16 0 12.4183 0 8C0 3.58172 3.58172 0 8 0C12.4183 0 16 3.58172 16 8ZM8.00001 5C7.63113 5 7.3076 5.19922 7.13318 5.50073C6.85664 5.97879 6.24491 6.14215 5.76685 5.86561C5.28879 5.58906 5.12543 4.97733 5.40197 4.49927C5.91918 3.60518 6.88833 3 8.00001 3C9.65687 3 11 4.34315 11 6C11 7.30622 10.1652 8.41746 9.00001 8.82929V9C9.00001 9.55228 8.5523 10 8.00001 10C7.44773 10 7.00001 9.55228 7.00001 9V8C7.00001 7.44772 7.44773 7 8.00001 7C8.5523 7 9.00001 6.55228 9.00001 6C9.00001 5.44772 8.5523 5 8.00001 5ZM8 13C8.55228 13 9 12.5523 9 12C9 11.4477 8.55228 11 8 11C7.44772 11 7 11.4477 7 12C7 12.5523 7.44772 13 8 13Z" fill="#EF4444"/>
</svg>
