<svg width="18" height="22" viewBox="0 0 18 22" fill="none" xmlns="http://www.w3.org/2000/svg">
<path fill-rule="evenodd" clip-rule="evenodd" d="M10.5604 0.255507C11.0599 0.412971 11.3996 0.876228 11.3996 1.39999V7.39999L16.1996 7.39999C16.6471 7.39999 17.0574 7.64894 17.264 8.04582C17.4706 8.4427 17.4393 8.92158 17.1827 9.28815L8.78269 21.2881C8.48233 21.7172 7.93838 21.9019 7.43885 21.7445C6.93931 21.587 6.59961 21.1238 6.59961 20.6L6.59961 14.6H1.79961C1.35216 14.6 0.941876 14.351 0.735238 13.9542C0.528601 13.5573 0.559939 13.0784 0.816535 12.7118L9.21653 0.711838C9.51689 0.282753 10.0608 0.0980427 10.5604 0.255507Z" fill="#EF4444"/>
</svg>
