<svg width="18" height="20" viewBox="0 0 18 20" fill="none" xmlns="http://www.w3.org/2000/svg">
<path fill-rule="evenodd" clip-rule="evenodd" d="M15.9341 0.24546C14.3226 0.892724 12.6128 1.71277 12.6128 1.83841C12.6128 1.88878 13.3971 2.77086 13.8322 3.20973C14.2231 3.604 14.9445 4.18838 15.3626 4.44927C16.0763 4.89462 17.4322 5.45246 17.5092 5.33238C17.631 5.14226 17.9479 2.89024 17.989 1.92225C18.0364 0.806236 17.9441 0.507429 17.452 0.183674C17.2625 0.0590003 17.1509 0.0231221 16.899 0.00602861C16.6059 -0.0138117 16.5369 0.00328181 15.9341 0.24546ZM11.6055 2.53022C11.5964 2.55016 11.2967 2.80399 10.9396 3.09431C10.1073 3.771 9.10342 4.74071 8.57605 5.37745C8.10269 5.94897 7.48645 6.83897 7.00094 7.65234L6.66703 8.2118L6.05634 8.2665C5.72047 8.29655 5.11978 8.34317 4.72146 8.37006C3.76951 8.43428 3.42161 8.46371 3.28768 8.49145C3.22231 8.50497 2.92815 8.80327 2.56499 9.22415C2.22816 9.6146 1.90388 9.98826 1.84435 10.0544C1.78481 10.1207 1.43572 10.5078 1.06864 10.9147C0.18302 11.8965 0.0476097 12.0758 0.00710637 12.3198C-0.043338 12.624 0.180503 13.0131 0.496675 13.1708C0.763141 13.3036 1.08007 13.2333 1.89957 12.8596C4.15005 11.8334 4.28538 11.7936 4.57546 12.0733C4.77579 12.2665 4.76693 12.4568 4.52212 13.2132C4.2286 14.1204 4.22956 14.0963 4.47956 14.2681C5.19773 14.7617 7.75607 16.4305 7.91274 16.5075C8.15727 16.6279 8.432 16.5416 9.10514 16.1332C9.94314 15.6247 10.3738 15.3998 10.5092 15.3998C10.6497 15.3998 10.8624 15.5051 10.9843 15.635C11.1076 15.7663 11.0794 16.0394 10.8394 17.0386C10.4277 18.7532 10.4124 18.8679 10.56 19.1458C10.7407 19.486 11.135 19.6506 11.5777 19.5705C11.9186 19.5088 12.1121 19.2709 13.2758 17.4814C14.7729 15.1792 14.6797 15.3431 14.6421 15.0785C14.615 14.8881 14.0819 13.3016 13.7539 12.4355L13.6435 12.144L14.0651 11.7373C14.9653 10.8687 15.8613 9.62427 16.4207 8.46529C16.7307 7.82297 17.1536 6.76404 17.1689 6.59191L17.1827 6.43553L16.6833 6.25327C16.0525 6.02301 15.1907 5.60421 14.7278 5.30287C13.8195 4.71159 12.7464 3.72778 11.9923 2.79494C11.7691 2.51886 11.6486 2.43641 11.6055 2.53022ZM11.3891 5.39995C10.4461 5.69979 9.85643 6.62049 10.0118 7.55064C10.1839 8.58098 11.0733 9.25166 12.1673 9.17619C13.2833 9.09918 14.1735 8.01147 13.9727 6.97026C13.8493 6.33082 13.4694 5.81891 12.8993 5.52381C12.6137 5.37595 12.5462 5.36146 12.0883 5.34948C11.7733 5.34124 11.5151 5.35988 11.3891 5.39995ZM4.27527 15.8271C3.92985 16.0083 3.45261 16.7453 3.20377 17.4818C3.02433 18.013 2.96495 18.3822 2.96176 18.9872C2.95844 19.618 3.02764 19.9084 3.19905 19.9838C3.53888 20.133 5.43886 19.2208 6.10477 18.5886C6.43417 18.2759 6.61892 17.9963 6.79633 17.5418L6.91843 17.2291L6.62895 17.0247C5.88937 16.5025 4.73168 15.7828 4.59659 15.7611C4.50326 15.7461 4.38207 15.7709 4.27527 15.8271Z" fill="#EF4444"/>
</svg>
