<svg width="14" height="18" viewBox="0 0 14 18" fill="none" xmlns="http://www.w3.org/2000/svg">
<path fill-rule="evenodd" clip-rule="evenodd" d="M8.30064 0.0462125C8.71692 0.177433 9 0.56348 9 0.99995V5.99995L13 5.99995C13.3729 5.99995 13.7148 6.20741 13.887 6.53814C14.0592 6.86887 14.0331 7.26794 13.8192 7.57341L6.81924 17.5734C6.56894 17.931 6.11564 18.0849 5.69936 17.9537C5.28309 17.8225 5 17.4364 5 17L5 12H1C0.627127 12 0.285222 11.7925 0.113024 11.4618C-0.0591735 11.131 -0.0330591 10.732 0.180771 10.4265L7.18077 0.426488C7.43107 0.0689178 7.88436 -0.0850076 8.30064 0.0462125Z" fill="#EF4444"/>
</svg>
