<svg width="16" height="18" viewBox="0 0 16 18" fill="none" xmlns="http://www.w3.org/2000/svg">
<path fill-rule="evenodd" clip-rule="evenodd" d="M0.166107 3.99891C3.17437 3.95809 5.91528 2.81033 8 0.944458C10.0847 2.81033 12.8256 3.95809 15.8339 3.99891C15.9431 4.64968 16 5.31821 16 6.00003C16 11.2249 12.6608 15.6698 8 17.3172C3.33923 15.6698 0 11.2249 0 6.00003C0 5.31821 0.0568637 4.64968 0.166107 3.99891ZM11.7071 7.70711C12.0976 7.31658 12.0976 6.68342 11.7071 6.29289C11.3166 5.90237 10.6834 5.90237 10.2929 6.29289L7 9.58579L5.70711 8.29289C5.31658 7.90237 4.68342 7.90237 4.29289 8.29289C3.90237 8.68342 3.90237 9.31658 4.29289 9.70711L6.29289 11.7071C6.68342 12.0976 7.31658 12.0976 7.70711 11.7071L11.7071 7.70711Z" fill="#EF4444"/>
</svg>
