<svg width="16" height="16" viewBox="0 0 16 16" fill="none" xmlns="http://www.w3.org/2000/svg">
<path fill-rule="evenodd" clip-rule="evenodd" d="M8 16C12.4183 16 16 12.4183 16 8C16 3.58172 12.4183 0 8 0C3.58172 0 0 3.58172 0 8C0 12.4183 3.58172 16 8 16ZM5 7C5.55228 7 6 6.55228 6 6C6 5.44772 5.55228 5 5 5C4.44772 5 4 5.44772 4 6C4 6.55228 4.44772 7 5 7ZM12 6C12 6.55228 11.5523 7 11 7C10.4477 7 10 6.55228 10 6C10 5.44772 10.4477 5 11 5C11.5523 5 12 5.44772 12 6ZM11.5355 11.5354C11.9261 11.1449 11.9261 10.5118 11.5355 10.1212C11.145 9.7307 10.5118 9.7307 10.1213 10.1212C8.94975 11.2928 7.05025 11.2928 5.87868 10.1212C5.48816 9.7307 4.85499 9.7307 4.46447 10.1212C4.07394 10.5118 4.07394 11.1449 4.46447 11.5354C6.41709 13.4881 9.58291 13.4881 11.5355 11.5354Z" fill="#EF4444"/>
</svg>
