<svg width="92" height="79" viewBox="0 0 92 79" fill="none" xmlns="http://www.w3.org/2000/svg">
<path d="M83.9489 55.2425C83.9461 55.239 83.9434 55.2365 83.9404 55.2332C84.0735 54.7983 84.2109 54.3662 84.3274 53.9205C89.3218 34.8207 77.1323 12.2396 56.5052 0.349976C65.5444 12.112 69.5412 26.3585 65.9902 38.8173C65.6735 39.9285 65.2928 40.9951 64.8719 42.0317C64.4152 41.7436 63.8398 41.4167 63.067 41.0077C63.067 41.0077 42.5485 28.8474 20.3097 7.33883C19.7262 6.77426 32.1684 24.4084 46.2888 38.7278C39.6361 35.1441 21.0961 22.1962 9.35904 11.885C10.8011 14.1933 12.5162 16.416 14.4015 18.5559C24.203 30.4871 36.9853 45.2083 52.2991 56.5125C41.5395 62.8327 26.3359 63.3242 11.1984 56.5191C7.45427 54.8349 3.93445 52.8028 0.676208 50.4939C7.08389 60.3317 16.9526 68.8196 28.9638 73.7748C43.2876 79.6833 57.5316 79.2827 68.1405 73.8716L68.1322 73.8833C68.1806 73.854 68.2422 73.8219 68.2925 73.7921C68.7281 73.5673 69.1605 73.3384 69.5833 73.0966C74.6805 70.5571 84.7484 67.9806 90.1523 78.073C91.4758 80.5429 94.2881 67.4536 83.9489 55.2425Z" fill="url(#paint0_linear_1427_19518)"/>
<defs>
<linearGradient id="paint0_linear_1427_19518" x1="0.779978" y1="42" x2="101.312" y2="42" gradientUnits="userSpaceOnUse">
<stop stop-color="white"/>
<stop offset="1" stop-color="white" stop-opacity="0"/>
</linearGradient>
</defs>
</svg>
