<svg width="20" height="20" viewBox="0 0 20 20" fill="none" xmlns="http://www.w3.org/2000/svg">
<g clip-path="url(#clip0_1316_21679)">
<path d="M6.2918 18.125C13.8371 18.125 17.9652 11.8723 17.9652 6.45161C17.9652 6.27583 17.9613 6.09614 17.9535 5.92036C18.7566 5.33961 19.4496 4.62027 20 3.79614C19.2521 4.12889 18.458 4.34621 17.6449 4.44067C18.5011 3.92748 19.1421 3.12129 19.4492 2.17153C18.6438 2.64886 17.763 2.98557 16.8445 3.16724C16.2257 2.5097 15.4075 2.07432 14.5164 1.92844C13.6253 1.78255 12.711 1.93427 11.9148 2.36014C11.1186 2.78601 10.4848 3.46232 10.1115 4.28449C9.73825 5.10666 9.64619 6.02891 9.84961 6.90864C8.21874 6.8268 6.62328 6.40315 5.16665 5.66514C3.71002 4.92714 2.42474 3.89126 1.39414 2.62466C0.870333 3.52776 0.710047 4.59643 0.945859 5.61347C1.18167 6.63051 1.79589 7.5196 2.66367 8.10005C2.01219 8.07937 1.37498 7.90396 0.804688 7.58833V7.63911C0.804104 8.58685 1.13175 9.50555 1.73192 10.239C2.3321 10.9725 3.16777 11.4755 4.09687 11.6625C3.49338 11.8277 2.85999 11.8517 2.2457 11.7329C2.50788 12.5479 3.01798 13.2608 3.70481 13.772C4.39164 14.2832 5.22093 14.5672 6.07695 14.5844C4.62369 15.726 2.82848 16.3452 0.980469 16.3422C0.652739 16.3417 0.325333 16.3216 0 16.2821C1.87738 17.4865 4.06128 18.1262 6.2918 18.125Z" fill="#60A5FA"/>
</g>
<defs>
<clipPath id="clip0_1316_21679">
<rect width="20" height="20" fill="white"/>
</clipPath>
</defs>
</svg>
