<svg width="96" height="91" viewBox="0 0 96 91" fill="none" xmlns="http://www.w3.org/2000/svg">
<path d="M0.783569 45.5C0.783569 20.4171 22.0598 0.0833282 48.3054 0.0833282C74.534 0.0833282 94.7987 20.0391 95.4158 45.3034C95.4158 53.3643 92.5357 60.1474 85.3354 66.5371C79.251 71.9367 68.8777 72.7303 61.2666 68.6998C55.8342 65.705 51.6475 59.3268 48.0997 54.6423L41.5166 64.2761H27.3217L40.6937 45.3027L27.7332 26.6255H42.3395L48.2026 36.2594L53.9628 26.6255H68.6719L55.3 45.3034C55.3 45.3034 61.6774 54.6423 65.1747 58.2796C68.6719 61.9168 75.0493 62.0151 79.1638 58.083C83.6874 53.7597 84.7001 50.3172 84.7183 45.3034C84.7888 25.8969 68.6599 10.307 48.3054 10.307C27.9679 10.307 11.4811 26.0634 11.4811 45.5C11.4811 64.9366 27.9679 80.693 48.3054 80.693C51.1185 80.693 53.8149 80.4671 56.4315 79.9066L58.9001 89.8353C55.1768 90.6332 51.9627 90.9167 48.3054 90.9167C22.0598 90.9167 0.783569 70.5829 0.783569 45.5Z" fill="url(#paint0_linear_1427_19484)"/>
<defs>
<linearGradient id="paint0_linear_1427_19484" x1="1.3131" y1="45" x2="95.1698" y2="45" gradientUnits="userSpaceOnUse">
<stop stop-color="white"/>
<stop offset="1" stop-color="white" stop-opacity="0"/>
</linearGradient>
</defs>
</svg>
