<svg width="1058" height="248" viewBox="0 0 1058 248" fill="none" xmlns="http://www.w3.org/2000/svg">
<path d="M401.246 122.658L461.097 42.1384H414.665L377.359 96.0865L339.516 42.1384H290.937L349.983 124.537L287.716 208.813H333.879L374.138 151.913L414.129 208.813H462.976L401.246 122.658Z" fill="#010613"/>
<path d="M591.535 158.086H590.999L553.189 42.1384H489.815V209.082H529V86.1557H530.074L571.406 209.082H608.176L649.24 86.1557H650.313V209.082H692.182V42.1384H629.647L591.535 158.086Z" fill="#010613"/>
<path d="M720.095 41.87V77.0302H779.018L778.873 208.813H821.01L821.094 77.0302H879.788V41.87H720.095Z" fill="#010613"/>
<path d="M990.365 41.87H907.164V208.813H949.301V156.744H989.56C1032.32 156.744 1058 136.233 1058 98.502C1058 61.228 1032.27 42.1092 990.428 42.1092L990.365 41.87ZM949.301 122.121V77.0302H986.339C1003.95 77.0302 1015.59 82.9221 1015.59 99.844C1015.59 116.537 1004.06 121.853 985.534 121.853L949.301 122.121Z" fill="#010613"/>
<path d="M0 124C0 55.5167 55.5153 0 123.997 0C192.434 0 245.31 54.4848 246.92 123.463C246.92 145.472 239.405 163.991 220.618 181.437C204.742 196.18 177.675 198.346 157.816 187.342C143.641 179.165 132.717 161.751 123.46 148.961L106.283 175.264H69.2451L104.136 123.461L70.3186 72.4675H108.43L123.729 98.7706L138.759 72.4675H177.139L142.248 123.463C142.248 123.463 158.888 148.961 168.013 158.892C177.139 168.823 193.779 169.091 204.514 158.355C216.318 146.551 218.96 137.152 219.008 123.463C219.192 70.4783 177.107 27.9134 123.997 27.9134C70.9311 27.9134 27.9127 70.9328 27.9127 124C27.9127 177.067 70.9311 220.087 123.997 220.087C131.337 220.087 138.373 219.47 145.2 217.939L151.105 245.048C141.39 247.226 133.54 248 123.997 248C55.5153 248 0 192.483 0 124Z" fill="#010613"/>
</svg>
