<svg width="20" height="20" viewBox="0 0 20 20" fill="none" xmlns="http://www.w3.org/2000/svg">
<path d="M0 10C0 4.47715 4.49662 0 10.0435 0C15.5867 0 19.8696 4.39394 20 9.95671C20 11.7316 19.3913 13.2251 17.8696 14.632C16.5837 15.8209 14.3913 15.9957 12.7827 15.1082C11.6346 14.4488 10.7498 13.0444 10 12.013L8.6087 14.1342H5.6087L8.43479 9.95657L5.69565 5.84416H8.78261L10.0217 7.96537L11.2391 5.84416H14.3478L11.5217 9.95671C11.5217 9.95671 12.8696 12.013 13.6087 12.8139C14.3478 13.6147 15.6957 13.6364 16.5652 12.7706C17.5213 11.8186 17.7353 11.0607 17.7391 9.95671C17.754 5.68373 14.3453 2.25108 10.0435 2.25108C5.74526 2.25108 2.26087 5.72039 2.26087 10C2.26087 14.2796 5.74526 17.7489 10.0435 17.7489C10.638 17.7489 11.2079 17.6992 11.7609 17.5758L12.2826 19.7619C11.4957 19.9376 10.8164 20 10.0435 20C4.49662 20 0 15.5228 0 10Z" fill="#EF4444"/>
</svg>
