<svg width="85" height="44" viewBox="0 0 85 44" fill="none" xmlns="http://www.w3.org/2000/svg">
<path d="M27.9784 2.19113C28.1589 1.86408 27.9268 1.47206 27.5584 1.48174L21.4866 1.64127C21.3069 1.64599 21.1422 1.75064 21.0593 1.91276L14.6183 14.5011C14.4383 14.8528 13.9436 14.8658 13.7636 14.5236L7.32263 2.27367C7.23969 2.11591 7.07498 2.01991 6.89533 2.02464L0.821793 2.18421C0.453798 2.19388 0.221687 2.59735 0.401422 2.91492L10.9505 21.5543C10.9907 21.6254 11.0119 21.7062 11.0119 21.7888V33.8039C11.0119 34.0709 11.2275 34.2817 11.4936 34.2747L16.8423 34.1342C17.1083 34.1272 17.324 33.9051 17.324 33.638V21.6235C17.324 21.5405 17.3453 21.4584 17.3858 21.385L27.9784 2.19113Z" fill="black"/>
<path d="M72.7093 8.89689C69.934 8.96981 67.7862 9.87635 66.1882 11.4108C65.8528 11.7327 65.2456 11.5261 65.2456 11.0665V10.224C65.2456 9.95691 65.0297 9.74609 64.7637 9.75306L59.7837 9.88389C59.5177 9.89091 59.3018 10.113 59.3018 10.3801V41.784C59.3018 42.051 59.5177 42.2618 59.7837 42.2548L64.7637 42.124C65.0297 42.117 65.2456 41.8949 65.2456 41.6278V31.5364C65.2456 31.0768 65.8528 30.8383 66.1882 31.1426C67.7862 32.593 69.934 33.3867 72.7093 33.3138C78.8835 33.1516 83.9517 27.7004 83.9517 20.81C83.9517 13.9196 78.8835 8.73467 72.7093 8.89689ZM71.6038 27.6548C67.964 27.7505 65.2456 25.186 65.2456 21.3015C65.2456 17.4169 67.964 14.7096 71.6038 14.614C75.2894 14.5171 78.0079 17.0816 78.0079 20.9661C78.0079 24.8507 75.2894 27.558 71.6038 27.6548Z" fill="black"/>
<path d="M35.1275 16.274C32.4841 16.3435 30.3073 14.3834 30.0352 11.8136C30.0092 11.5149 30.2425 11.2615 30.5275 11.254L31.4346 11.2302C31.7326 11.2224 31.9658 11.4375 32.0176 11.7225C32.2638 13.2127 33.5596 14.337 35.1275 14.2958C36.6953 14.2546 37.991 13.0752 38.2372 11.559C38.289 11.2713 38.5223 11.044 38.8203 11.0362L39.7273 11.0123C40.0254 11.0045 40.2586 11.2587 40.2198 11.546C39.9476 14.1301 37.7578 16.2049 35.1275 16.274Z" fill="black"/>
<path d="M51.9465 14.8301L51.0395 14.8539C50.7412 14.8617 50.508 14.6466 50.4564 14.3617C50.2102 12.8714 48.9143 11.7471 47.3465 11.7883C45.7787 11.8295 44.4829 13.0089 44.2367 14.525C44.1849 14.8127 43.9517 15.0401 43.6537 15.048L42.7466 15.0718C42.4486 15.0796 42.2154 14.8255 42.2542 14.5381C42.5263 11.954 44.7032 9.87951 47.3465 9.81008C49.9899 9.7406 52.1667 11.7007 52.439 14.2705C52.4645 14.5561 52.2313 14.8226 51.9465 14.8301Z" fill="black"/>
<path d="M29.504 20.3787C29.3096 20.3839 29.1671 20.5568 29.18 20.7387C29.5817 24.4113 31.629 27.5331 34.5574 29.4084V20.246L29.504 20.3787Z" fill="#FF0B4A"/>
<path d="M34.5576 20.2459V29.4083C36.3847 30.5837 38.5615 31.2553 40.9068 31.2588V20.079L34.5576 20.2459Z" fill="#FF9C00"/>
<path d="M40.9065 31.2588C41.0102 31.256 41.1268 31.266 41.2305 31.2633C43.4203 31.2057 45.4805 30.566 47.2427 29.4915V19.9125L40.8936 20.0794V31.2591L40.9065 31.2588Z" fill="#F6C900"/>
<path d="M53.3005 20.0769C53.3265 19.8796 53.1704 19.7264 52.9743 19.7316L47.2212 19.8827V29.5289C50.5349 27.5283 52.8702 24.0593 53.3005 20.0769Z" fill="#00E586"/>
<path d="M41.4764 33.2349C33.5983 33.572 27.1455 27.13 27.1455 19.204V18.9697C27.1455 18.6964 27.3658 18.4694 27.6379 18.4622L54.8227 17.748C55.095 17.7408 55.3152 17.9563 55.3152 18.2296V18.7242C55.3282 26.4416 49.1343 32.9035 41.4764 33.2349ZM29.5038 20.3785C29.3094 20.3835 29.1669 20.5565 29.1798 20.7383C29.8536 26.7986 34.9977 31.4138 41.2303 31.2501C47.4628 31.0863 52.6069 26.2008 53.2806 20.1051C53.3066 19.9092 53.151 19.7571 52.9568 19.7623L29.5038 20.3785Z" fill="black"/>
</svg>
