<svg width="136" height="80" viewBox="0 0 136 80" fill="none" xmlns="http://www.w3.org/2000/svg">
<path d="M60.0469 33H63.8269V21.15H52.6969V24.57H59.1769C58.5169 27.72 55.4869 29.49 52.1569 29.49C48.1069 29.49 45.4969 26.85 45.4969 22.26C45.4969 17.55 48.2269 14.64 52.5469 14.64C56.1769 14.64 58.2769 16.65 59.1169 19.26L63.3769 18.15C61.9669 13.62 58.0669 10.74 52.5769 10.74C45.4669 10.74 40.8469 15.36 40.8469 22.32C40.8469 28.83 44.4769 33.36 51.4669 33.36C55.3069 33.36 58.3669 31.35 59.7469 27.81H59.8369L60.0469 33Z" fill="white"/>
<path d="M84.3105 27.96L80.6505 26.82C80.0505 29.04 78.1905 30.03 76.0005 30.03C73.0605 30.03 71.8605 28.26 71.6505 25.77H84.3405C84.3405 19.8 80.9505 16.65 75.8505 16.65C70.6005 16.65 67.2105 20.16 67.2105 25.23C67.2105 30.09 70.4505 33.36 75.7305 33.36C79.6005 33.36 82.9605 31.74 84.3105 27.96ZM71.8006 23.1C72.3106 20.88 73.8105 19.89 75.8505 19.89C77.8605 19.89 79.2405 20.91 79.7205 23.1H71.8006Z" fill="white"/>
<path d="M85.7344 17.01V20.22H88.2844V29.16C88.2844 31.8 89.5744 33.3 93.4444 33.3C95.3044 33.3 96.2944 33.15 97.7044 32.88V29.73C96.8044 29.88 95.9944 30 95.2144 30C93.3844 30 92.7844 29.43 92.7844 27.42V20.22H97.5544V17.01H92.7844V12.36H90.7744L88.7644 17.01H85.7344Z" fill="white"/>
<path d="M11.5421 53.01H7.19215V51.6C7.19215 50.79 7.31215 49.62 9.65215 49.62C10.2521 49.62 10.9721 49.68 11.6021 49.77V47.16C10.6421 46.92 9.62215 46.74 8.39215 46.74C4.76215 46.74 2.69215 48.63 2.69215 51.27V53.01H0.202148V56.22H2.69215V69H7.19215V56.22H11.5421V53.01Z" fill="white"/>
<path d="M29.3057 63.96L25.6457 62.82C25.0457 65.04 23.1857 66.03 20.9957 66.03C18.0557 66.03 16.8557 64.26 16.6457 61.77H29.3357C29.3357 55.8 25.9457 52.65 20.8457 52.65C15.5957 52.65 12.2057 56.16 12.2057 61.23C12.2057 66.09 15.4457 69.36 20.7257 69.36C24.5957 69.36 27.9557 67.74 29.3057 63.96ZM16.7957 59.1C17.3057 56.88 18.8057 55.89 20.8457 55.89C22.8557 55.89 24.2357 56.91 24.7157 59.1H16.7957Z" fill="white"/>
<path d="M36.7595 69.36C39.7295 69.36 41.9495 67.77 43.0895 65.37H43.2095V65.7C43.2095 68.07 44.9495 69.3 47.1995 69.3C48.2495 69.3 49.6595 69 50.4095 68.67V65.4C49.9895 65.64 49.3595 65.79 48.9095 65.79C47.9195 65.79 47.5295 65.16 47.5295 63.99V58.38C47.5295 55.11 44.9795 52.68 40.1795 52.68C36.3395 52.68 33.3095 54.18 31.8695 58.05L35.4995 59.4C36.4295 56.82 37.9895 55.77 39.9995 55.77C41.9795 55.77 43.0895 56.61 43.0895 58.47V58.68L35.8295 60.63C33.0695 61.38 31.5395 62.76 31.5395 65.07C31.5395 67.14 33.2795 69.36 36.7595 69.36ZM35.9495 64.41C35.9495 63.54 36.7295 63.24 37.8695 62.85L43.0895 61.05V62.61C42.3095 64.65 39.8495 65.97 38.0495 65.97C36.5795 65.97 35.9495 65.16 35.9495 64.41Z" fill="white"/>
<path d="M50.7978 53.01V56.22H53.3479V65.16C53.3479 67.8 54.6378 69.3 58.5078 69.3C60.3678 69.3 61.3578 69.15 62.7678 68.88V65.73C61.8678 65.88 61.0579 66 60.2779 66C58.4479 66 57.8479 65.43 57.8479 63.42V56.22H62.6178V53.01H57.8479V48.36H55.8378L53.8278 53.01H50.7978Z" fill="white"/>
<path d="M81.6271 69V53.01H77.1271V61.56C77.1271 64.26 75.4771 65.73 73.1071 65.73C70.9771 65.73 69.8671 64.56 69.8671 62.37V53.01H65.3671V62.97C65.3671 67.11 67.4671 69.36 71.2171 69.36C74.1271 69.36 76.1971 68.01 77.1271 65.31H77.2471V69H81.6271Z" fill="white"/>
<path d="M97.6726 56.85V53.01C97.2226 52.89 96.7126 52.83 96.1726 52.83C95.3326 52.83 94.4626 52.98 93.8326 53.25C91.7926 54.12 90.8926 55.56 90.2026 58.59H90.1426V53.01H85.7626V69H90.2626V63.81C90.2626 59.73 92.5426 56.67 96.2326 56.67C96.7726 56.67 97.2826 56.76 97.6726 56.85Z" fill="white"/>
<path d="M115.731 63.96L112.071 62.82C111.471 65.04 109.611 66.03 107.421 66.03C104.481 66.03 103.281 64.26 103.071 61.77H115.761C115.761 55.8 112.371 52.65 107.271 52.65C102.021 52.65 98.6314 56.16 98.6314 61.23C98.6314 66.09 101.871 69.36 107.151 69.36C111.021 69.36 114.381 67.74 115.731 63.96ZM103.221 59.1C103.731 56.88 105.231 55.89 107.271 55.89C109.281 55.89 110.661 56.91 111.141 59.1H103.221Z" fill="white"/>
<path d="M125.405 69.36C128.345 69.36 130.385 67.89 131.375 65.52H131.465V69H135.965V47.1H131.465V56.34H131.375C130.445 54.12 128.345 52.65 125.495 52.65C121.115 52.65 118.055 55.95 118.055 61.05C118.055 66.27 121.385 69.36 125.405 69.36ZM122.675 61.05C122.675 58.02 124.415 55.98 126.995 55.98C129.635 55.98 131.495 58.02 131.495 60.6V61.41C131.495 63.9 129.635 66.03 126.995 66.03C124.415 66.03 122.675 63.99 122.675 61.05Z" fill="white"/>
</svg>
