<svg width="201" height="79" viewBox="0 0 201 79" fill="none" xmlns="http://www.w3.org/2000/svg">
<path d="M15.36 17.808H18.384V8.328H9.48V11.064H14.664C14.136 13.584 11.712 15 9.048 15C5.808 15 3.72 12.888 3.72 9.216C3.72 5.448 5.904 3.12 9.36 3.12C12.264 3.12 13.944 4.728 14.616 6.816L18.024 5.928C16.896 2.304 13.776 0 9.384 0C3.696 0 0 3.696 0 9.264C0 14.472 2.904 18.096 8.496 18.096C11.568 18.096 14.016 16.488 15.12 13.656H15.192L15.36 17.808Z" fill="white"/>
<path d="M34.7709 13.776L31.8429 12.864C31.3629 14.64 29.8749 15.432 28.1229 15.432C25.7709 15.432 24.8109 14.016 24.6429 12.024H34.7949C34.7949 7.248 32.0829 4.728 28.0029 4.728C23.8029 4.728 21.0909 7.536 21.0909 11.592C21.0909 15.48 23.6829 18.096 27.9069 18.096C31.0029 18.096 33.6909 16.8 34.7709 13.776ZM24.7629 9.888C25.1709 8.112 26.3709 7.32 28.0029 7.32C29.6109 7.32 30.7149 8.136 31.0989 9.888H24.7629Z" fill="white"/>
<path d="M35.91 5.016V7.584H37.95V14.736C37.95 16.848 38.982 18.048 42.078 18.048C43.566 18.048 44.358 17.928 45.486 17.712V15.192C44.766 15.312 44.118 15.408 43.494 15.408C42.03 15.408 41.55 14.952 41.55 13.344V7.584H45.366V5.016H41.55V1.296H39.942L38.334 5.016H35.91Z" fill="white"/>
<path d="M62.0679 5.016H58.5879V3.888C58.5879 3.24 58.6839 2.304 60.5559 2.304C61.0359 2.304 61.6119 2.352 62.1159 2.424V0.336C61.3479 0.144 60.5319 0 59.5479 0C56.6439 0 54.9879 1.512 54.9879 3.624V5.016H52.9959V7.584H54.9879V17.808H58.5879V7.584H62.0679V5.016Z" fill="white"/>
<path d="M76.2788 13.776L73.3508 12.864C72.8708 14.64 71.3828 15.432 69.6308 15.432C67.2788 15.432 66.3187 14.016 66.1507 12.024H76.3027C76.3027 7.248 73.5908 4.728 69.5107 4.728C65.3108 4.728 62.5988 7.536 62.5988 11.592C62.5988 15.48 65.1907 18.096 69.4147 18.096C72.5107 18.096 75.1988 16.8 76.2788 13.776ZM66.2708 9.888C66.6788 8.112 67.8788 7.32 69.5107 7.32C71.1187 7.32 72.2228 8.136 72.6068 9.888H66.2708Z" fill="white"/>
<path d="M82.2418 18.096C84.6178 18.096 86.3938 16.824 87.3058 14.904H87.4018V15.168C87.4018 17.064 88.7938 18.048 90.5938 18.048C91.4338 18.048 92.5618 17.808 93.1618 17.544V14.928C92.8258 15.12 92.3218 15.24 91.9618 15.24C91.1698 15.24 90.8578 14.736 90.8578 13.8V9.312C90.8578 6.696 88.8178 4.752 84.9778 4.752C81.9058 4.752 79.4818 5.952 78.3298 9.048L81.2338 10.128C81.9778 8.064 83.2258 7.224 84.8338 7.224C86.4178 7.224 87.3058 7.896 87.3058 9.384V9.552L81.4978 11.112C79.2898 11.712 78.0658 12.816 78.0658 14.664C78.0658 16.32 79.4578 18.096 82.2418 18.096ZM81.5938 14.136C81.5938 13.44 82.2178 13.2 83.1298 12.888L87.3058 11.448V12.696C86.6818 14.328 84.7138 15.384 83.2738 15.384C82.0978 15.384 81.5938 14.736 81.5938 14.136Z" fill="white"/>
<path d="M93.4725 5.016V7.584H95.5125V14.736C95.5125 16.848 96.5445 18.048 99.6405 18.048C101.129 18.048 101.921 17.928 103.049 17.712V15.192C102.329 15.312 101.681 15.408 101.057 15.408C99.5925 15.408 99.1125 14.952 99.1125 13.344V7.584H102.929V5.016H99.1125V1.296H97.5045L95.8965 5.016H93.4725Z" fill="white"/>
<path d="M118.136 17.808V5.016H114.536V11.856C114.536 14.016 113.216 15.192 111.32 15.192C109.616 15.192 108.728 14.256 108.728 12.504V5.016H105.128V12.984C105.128 16.296 106.808 18.096 109.808 18.096C112.136 18.096 113.792 17.016 114.536 14.856H114.632V17.808H118.136Z" fill="white"/>
<path d="M130.972 8.088V5.016C130.612 4.92 130.204 4.872 129.772 4.872C129.1 4.872 128.404 4.992 127.9 5.208C126.268 5.904 125.548 7.056 124.996 9.48H124.948V5.016H121.444V17.808H125.044V13.656C125.044 10.392 126.868 7.944 129.82 7.944C130.252 7.944 130.66 8.016 130.972 8.088Z" fill="white"/>
<path d="M145.419 13.776L142.491 12.864C142.011 14.64 140.523 15.432 138.771 15.432C136.419 15.432 135.459 14.016 135.291 12.024H145.443C145.443 7.248 142.731 4.728 138.651 4.728C134.451 4.728 131.739 7.536 131.739 11.592C131.739 15.48 134.331 18.096 138.555 18.096C141.651 18.096 144.339 16.8 145.419 13.776ZM135.411 9.888C135.819 8.112 137.019 7.32 138.651 7.32C140.259 7.32 141.363 8.136 141.747 9.888H135.411Z" fill="white"/>
<path d="M153.158 18.096C155.51 18.096 157.142 16.92 157.934 15.024H158.006V17.808H161.606V0.288001H158.006V7.68H157.934C157.19 5.904 155.51 4.728 153.23 4.728C149.726 4.728 147.278 7.368 147.278 11.448C147.278 15.624 149.942 18.096 153.158 18.096ZM150.974 11.448C150.974 9.024 152.366 7.392 154.43 7.392C156.542 7.392 158.03 9.024 158.03 11.088V11.736C158.03 13.728 156.542 15.432 154.43 15.432C152.366 15.432 150.974 13.8 150.974 11.448Z" fill="white"/>
<path d="M178.079 18.096C182.423 18.096 185.255 15.456 185.255 11.424C185.255 7.392 182.423 4.728 178.079 4.728C173.735 4.728 170.903 7.392 170.903 11.424C170.903 15.456 173.735 18.096 178.079 18.096ZM174.599 11.424C174.599 9 175.871 7.368 178.079 7.368C180.287 7.368 181.559 9 181.559 11.424C181.559 13.848 180.287 15.456 178.079 15.456C175.871 15.456 174.599 13.848 174.599 11.424Z" fill="white"/>
<path d="M187.819 5.016V17.808H191.419V10.944C191.419 8.784 192.739 7.632 194.635 7.632C196.339 7.632 197.227 8.568 197.227 10.32V17.808H200.827V9.84C200.827 6.528 199.147 4.728 196.147 4.728C193.819 4.728 192.163 5.808 191.419 7.968H191.323V5.016H187.819Z" fill="white"/>
<path d="M38.1483 35.016V37.584H40.1883V44.736C40.1883 46.848 41.2203 48.048 44.3163 48.048C45.8043 48.048 46.5963 47.928 47.7243 47.712V45.192C47.0043 45.312 46.3563 45.408 45.7323 45.408C44.2683 45.408 43.7883 44.952 43.7883 43.344V37.584H47.6043V35.016H43.7883V31.296H42.1803L40.5723 35.016H38.1483Z" fill="white"/>
<path d="M49.9717 30.288V47.808H53.5717V40.968C53.5717 38.808 54.8917 37.632 56.7877 37.632C58.4917 37.632 59.3797 38.568 59.3797 40.32V47.808H62.9797V39.84C62.9797 36.528 61.2997 34.728 58.2997 34.728C55.8517 34.728 54.2437 35.904 53.6437 37.8H53.5717V30.288H49.9717Z" fill="white"/>
<path d="M79.0561 43.776L76.1281 42.864C75.6481 44.64 74.1601 45.432 72.4081 45.432C70.0561 45.432 69.0961 44.016 68.9281 42.024H79.0801C79.0801 37.248 76.3681 34.728 72.2881 34.728C68.0881 34.728 65.3761 37.536 65.3761 41.592C65.3761 45.48 67.9681 48.096 72.1921 48.096C75.2881 48.096 77.9761 46.8 79.0561 43.776ZM69.0481 39.888C69.4561 38.112 70.6561 37.32 72.2881 37.32C73.8961 37.32 75.0001 38.136 75.3841 39.888H69.0481Z" fill="white"/>
<path d="M104.322 47.808L97.7937 38.832L104.082 30.288H100.17L95.8017 36.504L91.4577 30.288H87.2337L93.4497 38.928L86.8977 47.808H90.8097L95.4417 41.352L100.098 47.808H104.322Z" fill="white"/>
<path d="M126.647 30.288H121.103L116.663 43.488H116.591L112.103 30.288H106.415V47.808H109.847V34.176H109.943L114.815 47.808H118.199L122.927 34.176H123.047V47.808H126.647V30.288Z" fill="white"/>
<path d="M135.358 47.808H138.958V33.384H145.414V30.288H128.902V33.384H135.358V47.808Z" fill="white"/>
<path d="M147.665 47.808H151.265V41.76H155.705C160.049 41.76 162.689 39.72 162.689 35.928C162.689 32.112 160.025 30.288 155.849 30.288H147.665V47.808ZM151.265 38.664V33.384H155.609C157.769 33.384 159.065 34.08 159.065 36.072C159.065 37.968 157.793 38.664 155.489 38.664H151.265Z" fill="white"/>
<path d="M38.6957 73.224L36.1037 74.256C37.2077 76.8 39.4397 78.096 42.8957 78.096C46.5917 78.096 49.1837 76.464 49.1837 73.656C49.1837 70.728 46.4477 70.032 44.4557 69.864C43.6877 69.792 42.6797 69.768 41.9597 69.696C40.6637 69.576 40.2797 69.24 40.2797 68.592C40.2797 67.752 41.3357 67.224 42.8237 67.224C44.2397 67.224 45.5837 67.824 46.5677 69.048L48.6797 67.272C47.2397 65.448 44.9837 64.728 42.7037 64.728C39.4157 64.728 36.9197 66.336 36.9197 68.976C36.9197 71.808 39.5837 72.432 41.1677 72.576C42.1037 72.672 42.8957 72.696 43.8317 72.768C45.1757 72.888 45.8717 73.224 45.8717 73.968C45.8717 74.952 44.6717 75.576 42.9437 75.576C41.0477 75.576 39.4637 74.832 38.6957 73.224Z" fill="white"/>
<path d="M51.5303 60.288V77.808H55.1302V70.968C55.1302 68.808 56.4503 67.632 58.3463 67.632C60.0503 67.632 60.9383 68.568 60.9383 70.32V77.808H64.5383V69.84C64.5383 66.528 62.8583 64.728 59.8583 64.728C57.4103 64.728 55.8023 65.904 55.2023 67.8H55.1302V60.288H51.5303Z" fill="white"/>
<path d="M74.1107 78.096C78.4547 78.096 81.2867 75.456 81.2867 71.424C81.2867 67.392 78.4547 64.728 74.1107 64.728C69.7667 64.728 66.9347 67.392 66.9347 71.424C66.9347 75.456 69.7667 78.096 74.1107 78.096ZM70.6307 71.424C70.6307 69 71.9027 67.368 74.1107 67.368C76.3187 67.368 77.5907 69 77.5907 71.424C77.5907 73.848 76.3187 75.456 74.1107 75.456C71.9027 75.456 70.6307 73.848 70.6307 71.424Z" fill="white"/>
<path d="M100.198 65.016L97.6539 74.376H97.6059L94.7979 65.016H91.3419L88.4619 74.376H88.4139L85.9659 65.016H82.1979L86.0139 77.808H90.1899L92.9739 68.832L95.5899 77.808H99.9099L103.726 65.016H100.198Z" fill="white"/>
<path d="M118.734 72.336L115.566 71.904C115.278 73.92 114.15 75.432 111.822 75.432C109.662 75.432 108.342 74.16 108.342 71.448C108.342 68.664 109.806 67.392 111.774 67.392C113.838 67.392 114.966 68.712 115.398 70.512L118.35 69.744C117.726 66.48 115.206 64.728 111.702 64.728C107.838 64.728 104.646 67.344 104.646 71.592C104.646 75.456 107.334 78.096 111.534 78.096C115.71 78.096 118.182 75.912 118.734 72.336Z" fill="white"/>
<path d="M124.453 78.096C126.829 78.096 128.605 76.824 129.517 74.904H129.613V75.168C129.613 77.064 131.005 78.048 132.805 78.048C133.645 78.048 134.773 77.808 135.373 77.544V74.928C135.037 75.12 134.533 75.24 134.173 75.24C133.381 75.24 133.069 74.736 133.069 73.8V69.312C133.069 66.696 131.029 64.752 127.189 64.752C124.117 64.752 121.693 65.952 120.541 69.048L123.445 70.128C124.189 68.064 125.437 67.224 127.045 67.224C128.629 67.224 129.517 67.896 129.517 69.384V69.552L123.709 71.112C121.501 71.712 120.277 72.816 120.277 74.664C120.277 76.32 121.669 78.096 124.453 78.096ZM123.805 74.136C123.805 73.44 124.429 73.2 125.341 72.888L129.517 71.448V72.696C128.893 74.328 126.925 75.384 125.485 75.384C124.309 75.384 123.805 74.736 123.805 74.136Z" fill="white"/>
<path d="M138.914 73.224L136.322 74.256C137.426 76.8 139.658 78.096 143.114 78.096C146.81 78.096 149.402 76.464 149.402 73.656C149.402 70.728 146.666 70.032 144.674 69.864C143.906 69.792 142.898 69.768 142.178 69.696C140.882 69.576 140.498 69.24 140.498 68.592C140.498 67.752 141.554 67.224 143.042 67.224C144.458 67.224 145.802 67.824 146.786 69.048L148.898 67.272C147.458 65.448 145.202 64.728 142.922 64.728C139.634 64.728 137.138 66.336 137.138 68.976C137.138 71.808 139.802 72.432 141.386 72.576C142.322 72.672 143.114 72.696 144.05 72.768C145.394 72.888 146.09 73.224 146.09 73.968C146.09 74.952 144.89 75.576 143.162 75.576C141.266 75.576 139.682 74.832 138.914 73.224Z" fill="white"/>
<path d="M164.685 73.776L161.757 72.864C161.277 74.64 159.789 75.432 158.037 75.432C155.685 75.432 154.725 74.016 154.557 72.024H164.709C164.709 67.248 161.997 64.728 157.917 64.728C153.717 64.728 151.005 67.536 151.005 71.592C151.005 75.48 153.597 78.096 157.821 78.096C160.917 78.096 163.605 76.8 164.685 73.776ZM154.677 69.888C155.085 68.112 156.285 67.32 157.917 67.32C159.525 67.32 160.629 68.136 161.013 69.888H154.677Z" fill="white"/>
</svg>
