<svg width="80" height="80" viewBox="0 0 80 80" fill="none" xmlns="http://www.w3.org/2000/svg">
<g clip-path="url(#clip0_1316_21710)">
<path d="M34.7108 36.9001C33.6834 38.6277 17.6563 38.9179 8.9128 34.0178C0.169269 29.1177 4.41721 14.1352 13.2858 10.201C22.1543 6.26676 35.7382 35.1728 34.7108 36.9001Z" fill="white"/>
<path d="M34.5893 42.8965C35.6167 44.624 27.8624 58.2418 19.1188 63.1419C10.3753 68.0421 -0.86783 56.9799 0.0564176 47.5577C0.980668 38.1353 33.5618 41.1689 34.5893 42.8965Z" fill="white"/>
<path d="M39.8787 45.9963C41.9338 45.9963 50.206 59.3241 50.206 69.1243C50.206 78.9243 34.7151 82.8448 26.7708 77.3566C18.8265 71.8686 37.8239 45.9961 39.8787 45.9963Z" fill="white"/>
<path d="M45.2889 43.101C46.3164 41.3733 62.3436 41.0832 71.0869 45.9833C79.8304 50.8834 75.5827 65.8658 66.7141 69.8C57.8453 73.7342 44.2615 44.8283 45.2889 43.101Z" fill="white"/>
<path d="M45.4106 37.1036C44.3832 35.376 52.1375 21.7581 60.881 16.8579C69.6248 11.9578 80.8678 23.0201 79.9437 32.4423C79.0193 41.8647 46.4381 38.8311 45.4106 37.1036Z" fill="white"/>
<path d="M40.1213 34.0037C38.0662 34.0037 29.7939 20.6759 29.7939 10.8757C29.7939 1.0755 45.2849 -2.84476 53.2291 2.64337C61.1736 8.13151 42.1761 34.0039 40.1213 34.0037Z" fill="white"/>
</g>
<defs>
<clipPath id="clip0_1316_21710">
<rect width="80" height="80" fill="white"/>
</clipPath>
</defs>
</svg>
