<svg enable-background="new 0 0 72 72" viewBox="0 0 72 72" xmlns="http://www.w3.org/2000/svg"><path d="m54.9 4.1c.6-.3 1.2-.5 1.8-.5.7 0 1.3.2 1.9.5s1 .7 1.3 1.3c.3.5.5 1.2.5 1.8s-.1 1.3-.4 1.8-.8 1-1.3 1.3c-.6.3-1.2.5-1.9.5s-1.3-.2-1.8-.5c-.6-.3-1-.7-1.3-1.3-.3-.5-.5-1.1-.5-1.8s.2-1.3.5-1.8c.2-.6.7-1 1.2-1.3zm3.4.6c-.4-.3-.9-.4-1.5-.4-.5 0-1 .1-1.5.4-.4.3-.8.6-1 1s-.4.9-.4 1.5c0 .5.1 1 .4 1.5.2.4.6.8 1 1s.9.4 1.5.4c.5 0 1-.1 1.5-.4.4-.3.8-.6 1-1s.4-.9.4-1.5-.1-1-.4-1.5c-.3-.4-.6-.8-1-1zm-.2.9c.3.2.4.5.4.9 0 .3-.1.5-.2.7-.2.2-.4.3-.7.4l.9 1.6h-.9l-.8-1.4h-.6v1.4h-.8v-4h1.5c.5 0 .9.1 1.2.4zm-1.2 1.5c.2 0 .4-.1.6-.2.1-.1.2-.3.2-.5s-.1-.3-.2-.5c-.1-.1-.3-.2-.6-.2h-.7v1.3h.7z"/><path d="m72 29.4-.2-5.1-4.2-2.6-27.2 15.7v-31.4l-4.4-2.4-4.5 2.4v31.3l-27.1-15.6-4.2 2.6-.2 5.1 27.1 15.6-27.1 15.7.2 5 4.2 2.7 31.6-18.2 31.6 18.2 4.2-2.7.2-5-27.1-15.7z"/></svg>