<svg width="20" height="20" viewBox="0 0 20 20" fill="none" xmlns="http://www.w3.org/2000/svg">
<path d="M10 0C10.6904 0 11.25 0.559644 11.25 1.25V2.5C11.25 3.19036 10.6904 3.75 10 3.75C9.30964 3.75 8.75 3.19036 8.75 2.5V1.25C8.75 0.559644 9.30964 0 10 0Z" fill="white"/>
<path d="M15 10C15 12.7614 12.7614 15 10 15C7.23858 15 5 12.7614 5 10C5 7.23858 7.23858 5 10 5C12.7614 5 15 7.23858 15 10Z" fill="white"/>
<path d="M14.4195 16.1871L15.3034 17.071C15.7915 17.5592 16.583 17.5592 17.0711 17.071C17.5593 16.5829 17.5593 15.7914 17.0711 15.3033L16.1873 14.4194C15.6991 13.9312 14.9076 13.9312 14.4195 14.4194C13.9313 14.9075 13.9313 15.699 14.4195 16.1871Z" fill="white"/>
<path d="M17.071 2.92887C17.5592 3.41702 17.5592 4.20848 17.071 4.69663L16.1871 5.58052C15.699 6.06867 14.9075 6.06867 14.4194 5.58052C13.9312 5.09236 13.9312 4.30091 14.4194 3.81275L15.3033 2.92887C15.7914 2.44071 16.5829 2.44071 17.071 2.92887Z" fill="white"/>
<path d="M18.75 11.25C19.4404 11.25 20 10.6904 20 10C20 9.30964 19.4404 8.75 18.75 8.75H17.5C16.8096 8.75 16.25 9.30964 16.25 10C16.25 10.6904 16.8096 11.25 17.5 11.25H18.75Z" fill="white"/>
<path d="M10 16.25C10.6904 16.25 11.25 16.8096 11.25 17.5V18.75C11.25 19.4404 10.6904 20 10 20C9.30964 20 8.75 19.4404 8.75 18.75V17.5C8.75 16.8096 9.30964 16.25 10 16.25Z" fill="white"/>
<path d="M3.81289 5.58054C4.30104 6.06869 5.0925 6.06869 5.58066 5.58054C6.06881 5.09238 6.06881 4.30093 5.58066 3.81277L4.69677 2.92889C4.20862 2.44073 3.41716 2.44073 2.929 2.92889C2.44085 3.41704 2.44085 4.2085 2.929 4.69666L3.81289 5.58054Z" fill="white"/>
<path d="M5.58054 16.1871L4.69666 17.071C4.2085 17.5592 3.41704 17.5592 2.92889 17.071C2.44073 16.5828 2.44073 15.7914 2.92889 15.3032L3.81277 14.4193C4.30093 13.9312 5.09238 13.9312 5.58054 14.4193C6.06869 14.9075 6.06869 15.699 5.58054 16.1871Z" fill="white"/>
<path d="M2.5 11.25C3.19036 11.25 3.75 10.6904 3.75 10C3.75 9.30964 3.19036 8.75 2.5 8.75H1.25C0.559644 8.75 0 9.30964 0 10C0 10.6904 0.559644 11.25 1.25 11.25H2.5Z" fill="white"/>
</svg>
