<svg width="24" height="24" viewBox="0 0 24 24" fill="none" xmlns="http://www.w3.org/2000/svg">
<path fill-rule="evenodd" clip-rule="evenodd" d="M12.0056 1.2C9.43993 1.19913 6.95778 2.13451 5.00348 3.83869C3.04919 5.54287 1.75037 7.90456 1.33958 10.5009C0.928786 13.0973 1.43284 15.7588 2.7615 18.0089C4.09015 20.2591 6.15665 21.9509 8.59099 22.7814C9.12759 22.8841 9.32794 22.5412 9.32794 22.2496C9.32794 21.9856 9.31898 21.1127 9.31361 20.1866C6.30865 20.8578 5.67546 18.881 5.67546 18.881C5.18358 17.5974 4.47529 17.26 4.47529 17.26C3.4951 16.5723 4.55039 16.587 4.55039 16.587C5.63433 16.6659 6.20491 17.7276 6.20491 17.7276C7.169 19.422 8.73231 18.9324 9.3494 18.6445C9.44599 17.9293 9.725 17.4415 10.0344 17.1646C7.63584 16.8841 5.11382 15.9342 5.11382 11.6909C5.09776 10.5907 5.49628 9.52664 6.22637 8.72021C6.11369 8.43965 5.74345 7.31372 6.33013 5.78621C6.33013 5.78621 7.23697 5.48914 9.30109 6.9213C11.0722 6.42496 12.9407 6.42496 14.7118 6.9213C16.7723 5.48914 17.6792 5.78621 17.6792 5.78621C18.2659 7.31189 17.8974 8.43781 17.7847 8.72021C18.5142 9.52693 18.9121 10.591 18.8955 11.6909C18.8955 15.9452 16.3699 16.8822 13.9641 17.1555C14.3523 17.4984 14.6975 18.1732 14.6975 19.2056C14.6975 20.6873 14.685 21.881 14.685 22.246C14.685 22.5394 14.8782 22.8859 15.4255 22.7759C17.8563 21.9421 19.9188 20.2494 21.244 18.0001C22.5694 15.7508 23.0715 13.0916 22.6603 10.4978C22.2493 7.90393 20.9518 5.54452 18.9998 3.84121C17.0479 2.13791 14.5688 1.20173 12.0056 1.2Z" fill="black"/>
<path d="M4.53608 17.6339C4.51029 17.697 4.41707 17.7132 4.33773 17.6725C4.25839 17.6319 4.20087 17.5485 4.23062 17.4875C4.26038 17.4264 4.34963 17.4081 4.42897 17.4488C4.50831 17.4895 4.56385 17.5729 4.53409 17.6339H4.53608Z" fill="black"/>
<path d="M5.02192 18.1891C4.9644 18.2441 4.85332 18.2197 4.77795 18.1322C4.74149 18.1025 4.71748 18.0596 4.71085 18.0124C4.70421 17.9651 4.71545 17.917 4.74225 17.878C4.80175 17.823 4.90886 17.8495 4.9882 17.9349C5.06754 18.0203 5.08142 18.1383 5.02192 18.1891Z" fill="black"/>
<path d="M5.49418 18.8969C5.4208 18.9498 5.29584 18.8969 5.22642 18.7912C5.15699 18.6854 5.15303 18.5512 5.22642 18.4983C5.2998 18.4454 5.42476 18.4983 5.49418 18.602C5.56361 18.7058 5.56757 18.8441 5.49418 18.8969Z" fill="black"/>
<path d="M6.14104 19.5803C6.07559 19.6556 5.94269 19.6353 5.8336 19.5336C5.72451 19.4319 5.70073 19.2936 5.76618 19.2203C5.83164 19.1471 5.96451 19.1654 6.07559 19.2671C6.18666 19.3688 6.21046 19.5071 6.14104 19.5803Z" fill="black"/>
<path d="M7.03361 19.977C7.00584 20.0725 6.87097 20.1173 6.73411 20.0766C6.59725 20.0359 6.50997 19.922 6.53576 19.8244C6.56154 19.7268 6.70039 19.682 6.83526 19.7247C6.97014 19.7675 7.05939 19.8793 7.03361 19.977Z" fill="black"/>
<path d="M8.01326 20.0481C8.01326 20.1498 7.90218 20.2332 7.75937 20.2353C7.61656 20.2373 7.50152 20.158 7.49954 20.0583C7.49755 19.9586 7.61261 19.8732 7.75543 19.8692C7.89824 19.8651 8.01326 19.9485 8.01326 20.0481Z" fill="black"/>
<path d="M8.92583 19.8915C8.94368 19.9912 8.84451 20.0949 8.70368 20.1193C8.56285 20.1437 8.43591 20.0847 8.41806 19.9851C8.40021 19.8854 8.50137 19.7817 8.64021 19.7573C8.77905 19.7329 8.90798 19.7919 8.92583 19.8915Z" fill="black"/>
</svg>
