<svg width="21" height="20" viewBox="0 0 21 20" fill="none" xmlns="http://www.w3.org/2000/svg">
  <path fill-rule="evenodd" clip-rule="evenodd" d="M16.8 6.8l-.6-.2V6c.6-2.4.3-4.3-.9-5-1-.6-2.8 0-4.5 1.6l-.6.5c0-.2-.2-.3-.3-.4C8.1 1.2 6.2.5 5.1 1.1 4 1.8 3.7 3.6 4 6l.2.7-.7.2C1.4 7.6 0 8.8 0 10c0 1.3 1.5 2.5 3.7 3.3l.6.2-.2.7c-.4 2.3 0 4 1 4.7 1.1.6 3 0 4.8-1.6 0-.2.2-.3.4-.4l.5.5c1.8 1.5 3.5 2 4.6 1.5 1-.7 1.4-2.6 1-5l-.2-.5.4-.1c2.4-.8 3.9-2 3.9-3.3 0-1.3-1.4-2.4-3.7-3.2zm-.5 5.7H16L15 10l1-2.6.6.2c1.8.7 3 1.6 3 2.4 0 .8-1.2 1.8-3.3 2.5zm-.7 4.3a7.4 7.4 0 00-.2-3.2l-2.8.5-1.7 2.2.5.4c1.5 1.3 2.9 1.8 3.5 1.4.3-.2.6-.6.7-1.3zM7 18.1c-.6.2-1.2.2-1.5 0-.6-.4-.9-1.8-.5-3.7l.1-.7L8 14l1.8 2.2c-.2 0-.3.2-.4.3-.8.7-1.6 1.2-2.3 1.5zm-5.4-6.9a7.4 7.4 0 003 1.4c.2-.8.5-1.7 1-2.6a21 21 0 01-1-2.6l-.8.2C2 8.3.8 9.2.8 10c0 .3.3.8.8 1.2zM5 5.7c-.4-2-.1-3.4.5-3.8.7-.4 2.2.2 3.8 1.6l.3.3A21 21 0 008 5.9l-2.7.5-.2-.7zM13.2 7a27.7 27.7 0 011.2 2l.7-1.7-1.9-.3zm-3-2.5c.5.4.9 1 1.3 1.5a25.8 25.8 0 00-2.5 0l1.2-1.5zM6 9l.6-1 .7-1.1c-.7 0-1.3.2-1.9.3L6 9zM7.3 13c-.7 0-1.3-.1-2-.3L6 11l.6 1 .7 1.1zm1.7 1l1.3 1.5 1.2-1.5a27.8 27.8 0 01-2.5 0zm5.4-3.1c.3.6.6 1.2.7 1.8l-1.9.3a30.6 30.6 0 001.2-2.1zm-2.3 2.2A28.7 28.7 0 0014 10 28.7 28.7 0 0012 6.8l-1.9-.1H8.4l-1 1.7-.9 1.6.9 1.7 1 1.5a28.6 28.6 0 003.7 0zM15 2c.7.4 1 2 .5 4v.5a21 21 0 00-2.8-.5l-1.7-2.1.4-.5C12.8 2 14.3 1.5 15 2zm-2.8 8a1.8 1.8 0 10-3.7 0 1.8 1.8 0 003.7 0z" fill="#00D8FF"/>
</svg>